<svg width="180" height="180" viewBox="0 0 180 180" fill="none" xmlns="http://www.w3.org/2000/svg">
<rect width="180" height="180" fill="#D9D9D9"/>
<path d="M128.085 63.8653L91.3229 13.0586C90.9935 12.6029 90.5026 12.3958 90.0013 12.3751V12.3688C89.9599 12.3647 89.9164 12.373 89.8749 12.373C89.8314 12.373 89.79 12.3668 89.7465 12.3688V12.3751C89.2452 12.3958 88.7543 12.605 88.4249 13.0586L51.6627 63.8653C51.6627 63.8653 17.9248 106.635 42.6311 142.602C60.1267 168.358 89.8459 168 89.8459 168C89.8459 168 89.8687 168 89.8729 168C89.877 168 89.8998 168 89.8998 168C89.8998 168 119.617 168.358 137.115 142.602C161.823 106.635 128.083 63.8653 128.083 63.8653H128.085Z" fill="#FFF1B6"/>
<path d="M72.4938 59.8553C72.4938 59.8553 81.5129 44.7771 96.4482 44.7771C111.383 44.7771 117.444 60.7004 117.304 66.4777C117.163 72.255 114.627 85.6408 125.053 92.1224C135.481 98.604 139.284 110.374 135.903 125.485C132.521 140.597 120.262 154.123 103.352 157.504C86.443 160.887 63.4746 156.94 51.7792 143.273C45.368 135.781 42.4721 125.452 42.6482 115.093C42.8636 102.391 48.6078 90.3907 58.0226 81.8604C61.4881 78.72 62.9071 77.1934 72.4938 59.8532V59.8553Z" fill="#8383ED"/>
<path d="M111.064 62.05C111.064 62.05 112.895 62.2655 112.841 64.3659C112.787 66.4664 112.371 71.7341 110.579 73.847C109.775 74.6217 109.003 75.3633 108.474 75.8729C108.029 76.2996 107.778 76.89 107.778 77.5073V83.3281C107.778 84.339 106.958 85.1593 105.947 85.1593H104.493C104.493 85.1593 103.631 85.267 103.2 86.5596C102.77 87.8522 100.615 88.283 100.615 88.283C100.615 88.283 99.4304 88.3907 99.592 90.4373C99.7536 92.4839 97.9763 93.8842 95.0141 93.1841C92.0519 92.4839 87.3642 89.1447 87.3642 89.1447C87.3642 89.1447 84.7251 88.4446 86.0716 90.7066C87.418 92.9687 93.9369 95.8231 97.0607 97.4409C100.184 99.0567 104.711 102.234 105.357 104.606C105.357 104.606 97.3838 112.741 101.802 120.496C101.802 120.496 95.9856 125.128 89.1974 120.496C82.4092 115.864 81.0089 113.035 74.8153 103.61C68.7148 94.3275 66.8008 94.226 64.1286 91.5953C64.0892 91.5373 64.1141 91.4565 64.1825 91.4461C65.4088 91.2825 73.8562 89.4244 78.2601 79.4503C82.5687 68.3535 82.838 69.3229 86.1793 69.4307C89.5185 69.5384 94.9064 72.5813 104.924 66.253L111.064 62.0521V62.05Z" fill="#FFCDBB"/>
<path d="M106.739 107.464C106.739 107.464 107.586 103.108 114.606 100.746C121.627 98.3868 127.315 103.168 128.404 106.919C129.494 110.671 129.54 113.902 127 116.924C124.46 119.947 122.406 122.971 114.122 123.031C105.838 123.091 103.056 117.952 103.056 117.952C103.056 117.952 101.061 114.267 103.781 111.574C106.503 108.881 106.741 107.462 106.741 107.462L106.739 107.464Z" fill="#FFCDBB"/>
<path d="M99.9065 125.098C99.9065 125.098 112.642 121.645 116.946 126.669C116.946 126.669 117.663 128.282 116.004 130.033C114.345 131.781 112.909 132.634 112.012 132.902C111.115 133.171 103.045 133.036 99.3223 135.681C95.5999 138.327 91.1173 142.631 81.1619 140.525C71.2064 138.418 63.4488 128.148 63.8527 120.616C63.8527 120.616 72.238 142.318 89.5927 138.194C89.5927 138.194 83.9873 137.566 86.5435 134.024C89.0997 130.482 95.9604 126.221 99.9065 125.1V125.098Z" fill="#FFCDBB"/>
<path d="M116.672 135.194C116.672 135.194 116.73 135.268 116.718 135.426C116.652 136.271 116.169 139.208 113.457 142.208C110.883 145.058 106.443 145.477 106.443 145.477C106.443 145.477 102.489 145.688 101.749 144.528C101.012 143.368 106.358 143.838 109.892 140.938C113.426 138.038 115.777 134.351 116.674 135.194H116.672Z" fill="#FFCDBB"/>
<path d="M47.2538 142.233C20.882 103.842 56.8923 58.1937 56.8923 58.1937L90.0377 12.3854C90.0232 12.3854 90.0108 12.3771 89.9984 12.3751V12.3688C89.9569 12.3647 89.9134 12.373 89.872 12.373C89.8285 12.373 89.7871 12.3668 89.7457 12.3688V12.3751C89.2423 12.3958 88.7534 12.605 88.4241 13.0586L51.6619 63.8653C51.6619 63.8653 17.924 106.635 42.6324 142.602C55.84 162.044 76.0036 166.604 85.0994 167.672C74.1766 165.112 58.3983 158.635 47.2559 142.235L47.2538 142.233Z" fill="#FFEB99"/>
</svg>
