<svg width="40" height="41" viewBox="0 0 40 41" fill="none" xmlns="http://www.w3.org/2000/svg">
<path fill-rule="evenodd" clip-rule="evenodd" d="M7.41283 27.5357C7.29955 27.5476 7.18627 27.5547 7.07058 27.5547C5.37623 27.5547 4 26.1999 4 24.5318C4 22.8638 5.37623 21.5089 7.07058 21.5089H7.14289C8.0033 17.0623 11.1582 13.4155 15.3447 11.804V7.94828L19.7047 10.9213C19.8228 10.9166 19.9409 10.9166 20.0614 10.9142C20.1675 10.8359 20.3097 10.7054 20.3916 10.6485C20.488 10.582 20.5796 10.5108 20.6712 10.4373C20.7604 10.3637 20.8447 10.2878 20.9267 10.2071C21.0062 10.1265 21.0834 10.0434 21.1557 9.95798C21.228 9.87256 21.2954 9.78477 21.3581 9.69461C21.4208 9.60445 21.4786 9.51191 21.534 9.417C21.5871 9.32446 21.6377 9.22955 21.6835 9.13227C21.7293 9.03736 21.7678 8.9377 21.804 8.83804C21.8401 8.73839 21.8715 8.6411 21.8956 8.53907C21.9221 8.43942 21.9438 8.33976 21.9607 8.23774C21.9775 8.13808 21.9896 8.03842 21.9992 7.93877C22.0089 7.83911 22.0113 7.73946 22.0113 7.64217C22.0113 7.54489 22.0064 7.44761 21.9968 7.35032C21.9872 7.25541 21.9751 7.1605 21.9582 7.06559C21.9414 6.97306 21.9197 6.88052 21.8956 6.79036C21.8715 6.70019 21.8426 6.6124 21.8088 6.52698C21.7775 6.44156 21.7413 6.35852 21.7028 6.27547C21.6642 6.1948 21.6232 6.11649 21.5774 6.0382C21.5341 5.96227 21.4859 5.88872 21.4352 5.81753C21.3846 5.74635 21.334 5.67991 21.2762 5.61347C21.2231 5.54941 21.1653 5.48772 21.1051 5.4284C21.0472 5.37145 20.9845 5.3145 20.9219 5.2623C20.8592 5.2101 20.7965 5.16265 20.7291 5.11519C20.664 5.07011 20.5989 5.0274 20.529 4.98706C20.4615 4.94909 20.394 4.91351 20.3241 4.88029C20.2567 4.84707 20.1868 4.8186 20.1169 4.79487C20.047 4.76877 19.9771 4.74741 19.9072 4.72843C19.8397 4.70945 19.7674 4.69521 19.6975 4.68097C19.63 4.66911 19.5601 4.65962 19.4902 4.6525C19.4227 4.64538 19.3553 4.64301 19.2878 4.64301C19.2227 4.64301 19.1576 4.64538 19.0901 4.65013C19.0275 4.65487 18.9624 4.66436 18.8997 4.67386C18.8395 4.68335 18.7792 4.69758 18.7166 4.71182C18.6587 4.72606 18.6009 4.74504 18.5454 4.76402C18.49 4.783 18.4346 4.80436 18.3816 4.83045C18.3309 4.85418 18.2803 4.88028 18.2321 4.90638C18.1839 4.93486 18.1381 4.96333 18.0923 4.99417C18.049 5.02502 18.0056 5.05586 17.967 5.08908C17.9285 5.1223 17.8899 5.15552 17.8537 5.19111C17.82 5.22433 17.7863 5.2623 17.7525 5.30026C17.7212 5.33585 17.6923 5.37382 17.6657 5.41415C17.6392 5.45212 17.6151 5.49008 17.5934 5.52805C17.5717 5.56601 17.5501 5.60635 17.5332 5.64668C17.5139 5.68465 17.4994 5.72261 17.485 5.76295C17.4705 5.80091 17.4609 5.83888 17.4488 5.87922C17.4392 5.91718 17.4295 5.95515 17.4247 5.99311C17.4199 6.0287 17.4151 6.06666 17.4103 6.10226C17.4079 6.13785 17.4054 6.17344 17.4054 6.20903C17.4054 6.24225 17.4079 6.27547 17.4103 6.30869C17.4127 6.33953 17.4175 6.37275 17.4247 6.4036C17.4295 6.43207 17.4368 6.46292 17.444 6.49139C17.4512 6.51986 17.4609 6.54596 17.4705 6.57206C17.4802 6.59579 17.4898 6.62189 17.5019 6.64561C17.5139 6.66697 17.526 6.6907 17.538 6.71205C17.5501 6.73341 17.5621 6.75239 17.5766 6.77137C17.5886 6.79036 17.6031 6.80696 17.6151 6.82357C17.6272 6.83781 17.6416 6.85205 17.6561 6.86628C17.6682 6.87815 17.6826 6.89001 17.6947 6.90187C17.7067 6.91137 17.7188 6.92086 17.7332 6.93035C17.7453 6.93747 17.7573 6.94458 17.7694 6.95408C17.7814 6.95882 17.7911 6.96594 17.8031 6.97068C17.8128 6.97543 17.8224 6.98018 17.832 6.98255C17.8417 6.98492 17.8489 6.98729 17.8586 6.98967C17.8658 6.99204 17.873 6.99441 17.8778 6.99441C17.8827 6.99441 17.8875 6.99678 17.8923 6.99678H17.8971C18.0417 6.94221 18.2129 6.99679 18.2924 7.1344C18.3816 7.28626 18.3285 7.48082 18.1743 7.56862L18.143 7.58523L18.1068 7.59946L18.0634 7.6137L18.0152 7.62319L17.9598 7.63031C17.9405 7.63268 17.9188 7.63268 17.8995 7.63268C17.8778 7.63268 17.8537 7.63268 17.832 7.63031C17.8079 7.62793 17.7838 7.62556 17.7597 7.62082C17.7332 7.61607 17.7091 7.61133 17.6826 7.60421C17.6561 7.59709 17.6296 7.5876 17.6055 7.57811C17.5766 7.56862 17.55 7.55675 17.5235 7.54489C17.4946 7.53065 17.4681 7.51642 17.4416 7.50218C17.4127 7.48557 17.3838 7.46896 17.3572 7.44998C17.3283 7.431 17.3018 7.40964 17.2753 7.38591C17.2464 7.36218 17.2199 7.33846 17.1933 7.31236C17.1668 7.28626 17.1403 7.25779 17.1162 7.22931C17.0921 7.19847 17.0656 7.16762 17.0439 7.1344C17.0198 7.10118 16.9981 7.06559 16.9764 7.03C16.9547 6.99203 16.933 6.95407 16.9162 6.9161C16.8969 6.87577 16.88 6.83306 16.8632 6.79272C16.8463 6.74764 16.8318 6.70256 16.8198 6.65985C16.8053 6.61239 16.7957 6.56494 16.786 6.51748C16.7764 6.46765 16.7692 6.41783 16.7643 6.368C16.7595 6.3158 16.7571 6.2636 16.7571 6.2114C16.7571 6.15683 16.7595 6.10225 16.7619 6.05006C16.7667 5.99548 16.774 5.94091 16.7836 5.88396C16.7933 5.82701 16.8053 5.77244 16.8198 5.7155C16.8342 5.65855 16.8535 5.6016 16.8728 5.54703C16.8921 5.49009 16.9162 5.43314 16.9427 5.37857C16.9692 5.32162 16.9981 5.26705 17.0295 5.21248C17.0608 5.15553 17.0969 5.10333 17.1331 5.04876C17.1717 4.99418 17.2102 4.94198 17.2536 4.89216C17.297 4.83996 17.3452 4.79013 17.3934 4.74267C17.4416 4.69285 17.4946 4.64539 17.5476 4.60031C17.6031 4.55522 17.6609 4.51014 17.7188 4.46981C17.779 4.4271 17.8417 4.38913 17.9068 4.35117C17.9718 4.31321 18.0393 4.27999 18.1092 4.24914C18.1791 4.21592 18.2514 4.18745 18.3237 4.16135C18.3984 4.13525 18.4731 4.11152 18.5503 4.09016C18.6298 4.07118 18.7093 4.0522 18.7889 4.04034C18.8708 4.0261 18.9528 4.01661 19.0347 4.00949C19.1191 4.00237 19.2034 4 19.2902 4C19.377 4 19.4637 4.00475 19.5505 4.01186C19.6373 4.02135 19.7264 4.03085 19.8132 4.04746C19.9024 4.06406 19.9891 4.08305 20.0783 4.10677C20.1675 4.1305 20.2543 4.15897 20.341 4.18982C20.4278 4.22304 20.5146 4.25863 20.6013 4.29897C20.6881 4.33931 20.7725 4.38439 20.8568 4.43184C20.9412 4.4793 21.0231 4.5315 21.1026 4.58844C21.1846 4.64539 21.2641 4.70471 21.3388 4.76878C21.416 4.83284 21.4907 4.90165 21.563 4.97284C21.6353 5.04402 21.7052 5.11995 21.7727 5.19825C21.8402 5.27892 21.9028 5.35959 21.9655 5.44501C22.0257 5.53043 22.0836 5.6206 22.139 5.71076C22.192 5.8033 22.2427 5.90058 22.2884 5.99549C22.3367 6.09515 22.3776 6.1948 22.4162 6.29683C22.4547 6.40124 22.4885 6.50563 22.5174 6.61241C22.5463 6.72155 22.5728 6.8307 22.5921 6.94222C22.6138 7.05611 22.6283 7.16763 22.6403 7.28152C22.6524 7.39542 22.6572 7.51405 22.6596 7.62794C22.6596 7.74658 22.6548 7.86285 22.6451 7.97911C22.6355 8.09775 22.621 8.21638 22.5994 8.33502C22.5801 8.45366 22.5536 8.5723 22.5222 8.68856C22.4909 8.8072 22.4547 8.92584 22.4138 9.03973C22.3704 9.15837 22.3222 9.27226 22.2716 9.38615C22.2185 9.50004 22.1607 9.61394 22.098 9.72308C22.0354 9.83223 21.9679 9.93663 21.8956 10.041L24.9758 7.93879V11.7946C29.1671 13.4056 32.3219 17.0597 33.1801 21.5085C34.7564 21.6366 36 22.9369 36 24.5219C36 26.1899 34.6238 27.5448 32.9294 27.5448H32.9053C31.3194 33.0022 26.2121 37 20.1629 37C14.1062 37 8.99393 32.9924 7.41563 27.5254L7.41283 27.5357ZM7.03684 22.1448C5.71608 22.1614 4.64595 23.2244 4.64595 24.5318C4.64595 25.8487 5.73052 26.9188 7.07059 26.9188C7.13084 26.9188 7.1911 26.9165 7.24894 26.9117C7.02721 25.9626 6.90911 24.9755 6.90911 23.9624C6.90911 23.3455 6.95249 22.738 7.03684 22.1448ZM15.3473 12.4898C11.397 14.1009 8.45657 17.6315 7.73097 21.8976C7.61769 22.5691 7.55744 23.2572 7.55744 23.9619C7.55744 25.0438 7.69723 26.0926 7.96235 27.0939C9.37473 32.4278 14.3058 36.3711 20.1624 36.3711C26.0047 36.3711 30.9217 32.4513 32.3507 27.1413C32.623 26.1257 32.7701 25.0604 32.7701 23.9618C32.7701 23.2523 32.7098 22.5571 32.5917 21.8785C31.859 17.6218 28.9234 14.098 24.9779 12.4895V14.5158L20.642 11.5593C20.4829 11.5546 20.3239 11.5498 20.1624 11.5498C20.0033 11.5498 19.8418 11.5522 19.6827 11.5593L15.3469 14.5158L15.3473 12.4898ZM25.8993 22.4625C26.926 22.4625 27.7575 23.2835 27.7575 24.2919C27.7575 25.3027 26.9236 26.1213 25.8993 26.1213C24.8725 26.1213 24.0411 25.3027 24.0411 24.2919C24.0411 23.2811 24.875 22.4625 25.8993 22.4625ZM14.2632 22.4625C15.29 22.4625 16.1214 23.2835 16.1214 24.2919C16.1214 25.3027 15.2875 26.1213 14.2632 26.1213C13.2364 26.1213 12.405 25.3027 12.405 24.2919C12.405 23.2811 13.2389 22.4625 14.2632 22.4625ZM22.5878 26.9185C22.5878 26.743 22.7324 26.6006 22.9108 26.6006C23.0891 26.6006 23.2337 26.743 23.2337 26.9185C23.2337 28.5866 21.8575 29.9415 20.1632 29.9415C18.4688 29.9415 17.0926 28.5866 17.0926 26.9185C17.0926 26.743 17.2372 26.6006 17.4155 26.6006C17.5939 26.6006 17.7385 26.743 17.7385 26.9185C17.7385 28.2354 18.8231 29.3055 20.1632 29.3055C21.5008 29.3055 22.5878 28.2354 22.5878 26.9185ZM33.0744 26.9138C34.3446 26.8402 35.3544 25.801 35.3544 24.5315C35.3544 23.3356 34.4579 22.3438 33.2913 22.1706C33.3732 22.7567 33.4166 23.3546 33.4166 23.9621C33.4166 24.9776 33.2986 25.9647 33.0744 26.9138Z" fill="#8484BF"/>
</svg>
