<svg width="16" height="16" viewBox="0 0 16 16" fill="none" xmlns="http://www.w3.org/2000/svg">
<g clip-path="url(#clip0_341_11018)">
<path d="M16 0H0V16H16V0Z" fill="white" fill-opacity="0.01"/>
<path fill-rule="evenodd" clip-rule="evenodd" d="M7.99984 14.5333C10.8105 14.5333 13.1867 12.3063 13.9643 9.74983C14.1391 9.17507 15.3332 9.17507 15.3332 7.93327C15.3332 6.69143 14.1278 6.61997 13.9327 6.01593C13.124 3.51147 10.7735 1.33325 7.99984 1.33325C5.22467 1.33325 2.87308 3.5135 2.06559 6.02013C1.87139 6.62293 0.666504 6.66963 0.666504 7.93327C0.666504 9.19687 1.86392 9.19687 2.0448 9.7806C2.83207 12.3212 5.20044 14.5333 7.99984 14.5333Z" stroke="#4B90E2"/>
<path d="M13.9329 6.01593C13.1241 3.51146 10.7736 1.33325 8 1.33325" stroke="#4B90E2" stroke-linecap="round"/>
<path d="M6.36673 7.19994C6.36673 7.47537 6.292 7.7172 6.17993 7.8853C6.0671 8.05457 5.9295 8.13327 5.80007 8.13327C5.67063 8.13327 5.53303 8.05457 5.4202 7.8853C5.30813 7.7172 5.2334 7.47537 5.2334 7.19994C5.2334 6.92447 5.30813 6.68267 5.4202 6.51457C5.53303 6.3453 5.67063 6.2666 5.80007 6.2666C5.9295 6.2666 6.0671 6.3453 6.17993 6.51457C6.292 6.68267 6.36673 6.92447 6.36673 7.19994Z" fill="#4B90E2" stroke="#4B90E2"/>
<path d="M10.7666 7.19994C10.7666 7.47537 10.6919 7.7172 10.5798 7.8853C10.467 8.05457 10.3294 8.13327 10.2 8.13327C10.0705 8.13327 9.93293 8.05457 9.8201 7.8853C9.70803 7.7172 9.6333 7.47537 9.6333 7.19994C9.6333 6.92447 9.70803 6.68267 9.8201 6.51457C9.93293 6.3453 10.0705 6.2666 10.2 6.2666C10.3294 6.2666 10.467 6.3453 10.5798 6.51457C10.6919 6.68267 10.7666 6.92447 10.7666 7.19994Z" fill="#4B90E2" stroke="#4B90E2"/>
<path d="M10.5761 2.06665C10.6655 2.71114 10.4689 3.18209 9.98643 3.4795C9.50397 3.77687 8.72007 3.91623 7.63477 3.89757" stroke="#4B90E2" stroke-linecap="round"/>
<path d="M6.16602 10.5834C6.80965 11.0166 7.42202 11.2332 8.00315 11.2332C8.58365 11.2332 9.15922 11.0171 9.72982 10.5848" stroke="#4B90E2" stroke-linecap="round"/>
</g>
<defs>
<clipPath id="clip0_341_11018">
<rect width="16" height="16" fill="white"/>
</clipPath>
</defs>
</svg>
