<svg width="40" height="41" viewBox="0 0 40 41" fill="none" xmlns="http://www.w3.org/2000/svg">
<path fill-rule="evenodd" clip-rule="evenodd" d="M6.99849 26.0716C6.7606 26.1289 6.51513 26.1576 6.26207 26.1576C4.46026 26.1576 3 24.6513 3 22.7984C3 21.0524 4.29823 19.6139 5.95583 19.4523C6.47715 11.9362 12.5711 6 20.0013 6C27.4315 6 33.5226 11.9391 34.0442 19.4523C35.7018 19.6113 37 21.0498 37 22.7984C37 24.6539 35.5373 26.1576 33.7379 26.1576C33.4849 26.1576 33.2394 26.1289 33.0015 26.0716C30.8783 31.3124 25.855 35 20.0017 35C14.1457 35 9.12228 31.3125 6.99926 26.0716H6.99849ZM33.2515 25.4045C33.4084 25.4357 33.5703 25.4514 33.7348 25.4514C35.157 25.4514 36.3111 24.2631 36.3111 22.7984C36.3111 21.4537 35.3368 20.3409 34.0765 20.1689C34.079 20.2784 34.079 20.3878 34.079 20.4999C34.079 22.2199 33.7879 23.8721 33.2515 25.4045ZM33.3755 19.8093C33.0667 13.3308 28.4052 8.01957 22.3419 6.91745C23.4098 7.57938 24.2298 8.64262 24.5917 9.94041C25.1307 11.8871 24.3513 13.9668 22.6835 15.0378C21.2993 15.9238 19.5101 15.757 18.3004 14.6312C17.3413 13.7347 17.0731 12.2936 17.6475 11.0975C18.0727 10.2114 19.0166 9.72147 19.9606 9.89866C20.3452 9.97163 20.6843 10.2062 20.8944 10.5476C20.9956 10.7144 20.9475 10.9307 20.7855 11.0349C20.6261 11.1391 20.4135 11.0896 20.3123 10.9254C20.206 10.7508 20.0339 10.631 19.8365 10.5945C19.1937 10.4746 18.5509 10.8082 18.2624 11.4102C17.8246 12.3223 18.0296 13.4246 18.761 14.1101C19.7429 15.0248 21.1955 15.1603 22.3191 14.441C23.7287 13.5393 24.3867 11.7829 23.9312 10.1385C23.3972 8.21524 21.6916 6.88876 19.748 6.88876C19.6265 6.88876 19.5177 6.82361 19.457 6.72197C12.5379 7.00863 6.96311 12.7054 6.62364 19.8147C6.61352 20.044 6.60592 20.2733 6.60592 20.5053C6.60592 22.2748 6.92985 23.9661 7.52205 25.5219C9.47319 30.6558 14.3271 34.2962 20.001 34.2962C25.6748 34.2962 30.5286 30.6556 32.48 25.5219C33.0696 23.9661 33.3961 22.2748 33.3961 20.5053C33.3961 20.2734 33.391 20.044 33.3784 19.8147L33.3755 19.8093ZM26.0469 20.6772C27.1377 20.6772 28.0209 21.5893 28.0209 22.7099C28.0209 23.8331 27.1351 24.7426 26.0469 24.7426C24.9587 24.7426 24.073 23.8305 24.073 22.7099C24.073 21.5893 24.9587 20.6772 26.0469 20.6772ZM22.5268 25.6286C22.5268 25.4332 22.6811 25.2742 22.8709 25.2742C23.0607 25.2742 23.2151 25.4332 23.2151 25.6286C23.2151 27.4841 21.7524 28.9878 19.953 28.9878C18.1512 28.9878 16.691 27.4816 16.691 25.6286C16.691 25.4332 16.8453 25.2742 17.0351 25.2742C17.2249 25.2742 17.3793 25.4332 17.3793 25.6286C17.3793 27.0932 18.5333 28.2816 19.9556 28.2816C21.3779 28.2816 22.5318 27.0933 22.5318 25.6286H22.5268ZM13.6849 20.6772C14.7756 20.6772 15.6588 21.5893 15.6588 22.7099C15.6588 23.8331 14.7731 24.7426 13.6849 24.7426C12.5941 24.7426 11.7109 23.8305 11.7109 22.7099C11.7109 21.5893 12.5967 20.6772 13.6849 20.6772ZM5.92098 20.169C4.66071 20.341 3.68641 21.4538 3.68641 22.7985C3.68641 24.263 4.84036 25.4514 6.26266 25.4514C6.42968 25.4514 6.58912 25.4358 6.74602 25.4045C6.20952 23.8722 5.91851 22.22 5.91851 20.4999C5.91851 20.3905 5.91845 20.2784 5.92098 20.169Z" fill="#8484BF"/>
</svg>
