<svg width="32" height="32" viewBox="0 0 32 32" fill="none" xmlns="http://www.w3.org/2000/svg">
<rect width="32" height="32" rx="6" fill="#FFF0DE"/>
<path d="M16.4664 12.088C16.722 12.2158 16.9268 12.2418 17.1315 12.2418C17.5659 12.2418 17.8475 12.063 17.8725 12.0371C18.0263 11.9352 18.0512 11.7554 17.9494 11.6027C17.8475 11.4489 17.6677 11.4239 17.515 11.5008C17.489 11.5008 17.1575 11.7055 16.748 11.5008C16.5942 11.4239 16.3905 11.4748 16.3136 11.6546C16.2617 11.8323 16.3126 12.0111 16.4664 12.088Z" fill="#3A3A47"/>
<path d="M14.4718 11.5259C14.0374 11.7306 13.7308 11.5259 13.7049 11.5259C13.5511 11.424 13.3723 11.475 13.2705 11.6278C13.1686 11.7815 13.2195 11.9853 13.3474 12.0622C13.3733 12.0622 13.6539 12.2669 14.0883 12.2669C14.2931 12.2669 14.5227 12.2159 14.7534 12.1131C14.9072 12.0362 14.9831 11.8315 14.9072 11.6787C14.8293 11.4999 14.6506 11.449 14.4718 11.5259Z" fill="#3A3A47"/>
<path d="M24.213 21.8289L23.5999 18.915L22.9607 15.9241C22.6791 14.5949 21.7334 13.5214 20.4811 13.035L20.3264 12.1652C20.1476 11.1166 20.0447 10.0691 20.0707 9.07133C20.1216 7.15395 19.4056 5.79875 18.1024 5.26265C17.9486 5.18575 17.2076 4.82825 15.6228 4.82825C14.038 4.82825 13.296 5.18575 13.1432 5.26265C11.814 5.79992 11.124 7.15405 11.1749 9.07133C11.2008 10.068 11.124 11.1165 10.9192 12.1652L10.7654 13.034C9.51316 13.5193 8.56644 14.5939 8.28584 15.9231L7.72361 18.6335L7.05851 21.8292C6.90472 22.5192 7.05851 23.2612 7.46796 23.8484C7.87741 24.4366 8.51653 24.8201 9.23154 24.9219L9.87066 24.9988L9.51316 26.7884C9.4872 26.8902 9.51316 26.9671 9.59006 27.044C9.64099 27.1209 9.74385 27.1718 9.84571 27.1718H21.4517C21.5536 27.1718 21.6305 27.1209 21.7074 27.044C21.7583 26.9671 21.7843 26.8653 21.7843 26.7884L21.4268 24.9988L22.0659 24.9219C22.7819 24.8201 23.4211 24.4366 23.8295 23.8484C24.213 23.2602 24.3658 22.5192 24.213 21.8292L24.213 21.8289ZM20.2504 23.3628C20.2245 23.4397 20.1735 23.4906 20.1226 23.5415C20.0967 23.5925 20.0457 23.6184 19.9948 23.6434C19.9439 23.6694 19.9179 23.6943 19.867 23.7203C19.6113 23.8481 19.2538 23.8481 18.9213 23.8481H18.8444H18.7675H18.2302H18.0005L17.9745 23.7972L17.9486 23.7712C17.9486 23.7453 17.9226 23.7453 17.9226 23.7203C17.8967 23.6434 17.8457 23.5925 17.7948 23.5415C17.7948 23.5415 17.7948 23.5156 17.7688 23.5156C17.7179 23.4387 17.641 23.3618 17.5641 23.3109C17.5641 23.3109 17.5381 23.3109 17.5381 23.2849C17.5122 23.2589 17.4872 23.234 17.4613 23.234C17.2825 23.1321 17.0518 23.0802 16.8221 23.0802H16.7712L16.0552 23.1571L15.3671 23.209L15.444 22.493V22.3392V22.2882C15.444 22.2373 15.418 22.2114 15.418 22.1604V22.1345C15.3921 22.0835 15.3921 22.0326 15.3671 21.9807C15.3671 21.9807 15.3671 21.9547 15.3411 21.9547C15.3152 21.9038 15.2902 21.8778 15.2643 21.8528C15.2643 21.8528 15.2643 21.8269 15.2383 21.8269C15.2383 21.8009 15.2643 21.776 15.2643 21.776C15.2902 21.725 15.2902 21.6991 15.3152 21.6481C15.3411 21.5712 15.3661 21.5203 15.3921 21.4434C15.418 21.3925 15.418 21.3415 15.443 21.3156C15.469 21.2387 15.469 21.1618 15.4939 21.1109C15.4939 21.0599 15.5199 21.009 15.5199 20.9571C15.5199 20.8802 15.5459 20.8033 15.5459 20.7274V20.5996V20.3439V20.2161C15.5459 20.0883 15.5199 19.9864 15.4949 19.8586V19.8326C15.469 19.7308 15.444 19.6029 15.3931 19.5001C15.3671 19.4491 15.3671 19.4232 15.3421 19.3722C15.3162 19.3213 15.2912 19.2444 15.2653 19.1935C15.6997 19.1675 16.3138 19.2194 17.0548 19.4232C17.643 19.577 18.2312 19.8326 18.7934 20.1641C18.8703 20.2151 18.9472 20.266 19.0491 20.3179C19.126 20.3689 19.2029 20.4198 19.2788 20.4717C19.5085 20.6255 19.6882 20.7783 19.867 20.9321L19.8929 20.9581C19.9439 21.009 19.9948 21.0859 20.0467 21.1368C20.0727 21.1628 20.0727 21.1628 20.0727 21.1878C20.1745 21.3156 20.2774 21.4434 20.3283 21.5712C20.3283 21.5712 20.3283 21.5972 20.3543 21.5972C20.3803 21.6481 20.4052 21.725 20.4312 21.776V21.8019C20.4312 21.8528 20.4572 21.8788 20.4572 21.9297V21.9807C20.4572 22.0066 20.4572 22.0576 20.4831 22.0825V22.1335V22.491C20.4801 22.6977 20.4292 23.0562 20.2504 23.3628ZM11.3277 22.3402C11.2508 22.2893 11.1739 22.2124 11.098 22.1614C11.0721 22.1355 11.0471 22.1105 11.0211 22.0845C10.8674 21.9307 10.7395 21.778 10.6377 21.5992C10.5867 21.5223 10.5358 21.4204 10.4839 21.3436C10.4329 21.2417 10.382 21.1139 10.3561 21.011C10.3051 20.8322 10.2542 20.6535 10.2282 20.4488C10.2023 20.1931 10.2023 19.9375 10.2542 19.6818V19.6559C10.2542 19.6299 10.2542 19.6049 10.2802 19.6049C10.3061 19.4771 10.3571 19.3493 10.408 19.2474C10.5358 18.9409 10.7405 18.6592 10.9702 18.4545C11.124 18.3267 11.2768 18.1989 11.4555 18.122C11.7621 17.9682 12.0687 17.9172 12.3763 17.9172C13.1692 17.9172 13.9611 18.3516 14.4215 19.0936C14.4724 19.1955 14.5234 19.2724 14.5753 19.3753C14.6262 19.4771 14.6522 19.554 14.7031 19.6569C14.7031 19.6828 14.7291 19.7338 14.7291 19.7587C14.755 19.8097 14.78 19.8866 14.78 19.9635C14.78 19.9894 14.806 20.0404 14.806 20.0653C14.806 20.1163 14.8319 20.1932 14.8319 20.2441V20.3719V20.5507V20.6785C14.8319 20.7294 14.8319 20.7803 14.806 20.8572C14.806 20.9082 14.806 20.9341 14.78 20.9851C14.78 21.036 14.754 21.0869 14.754 21.1389C14.754 21.1898 14.7281 21.2158 14.7281 21.2667C14.7021 21.3176 14.7021 21.3685 14.6771 21.4454C14.6512 21.4714 14.6512 21.5223 14.6262 21.5473C14.6262 21.5473 14.6262 21.5733 14.6002 21.5733H14.4984C14.2687 21.5733 14.064 21.7011 13.9611 21.9058C13.9351 21.9318 13.9351 21.9827 13.9102 22.0077L13.8333 22.4681C13.7564 22.519 13.7055 22.5449 13.6286 22.5699C13.6286 22.5699 13.6026 22.5699 13.5776 22.5959C13.3989 22.6728 13.2201 22.7237 13.0154 22.7497C12.4272 22.8266 11.865 22.6987 11.3797 22.3662C11.3787 22.3652 11.3537 22.3402 11.3277 22.3402ZM16.0573 18.5563C15.5719 18.5054 15.1625 18.5303 14.8809 18.5563C14.4205 17.9172 13.7564 17.5077 13.0404 17.329H13.0913C13.2701 17.329 13.4748 17.329 13.6535 17.3799C14.5493 17.5077 15.3932 18.019 16.0573 18.5563ZM11.5583 12.2668C11.763 11.1673 11.8399 10.0938 11.814 9.04507C11.788 7.89564 12.0437 6.38682 13.4238 5.82439C13.4497 5.82439 13.4497 5.79843 13.4747 5.79843C13.4747 5.79843 14.1138 5.44092 15.6477 5.44092C17.1816 5.44092 17.7948 5.79843 17.8208 5.79843C17.8467 5.79843 17.8467 5.82439 17.8717 5.82439C19.2518 6.38662 19.5075 7.89557 19.4825 9.0461C19.4565 10.0947 19.5594 11.1682 19.7382 12.2678L19.84 12.83H19.7891L18.8693 12.6762C18.9203 12.5744 18.9462 12.4715 18.9972 12.3697C18.9972 12.3437 19.0231 12.3187 19.0231 12.2928C19.0491 12.1909 19.0741 12.0881 19.1 11.9862V11.9602C19.126 11.8584 19.1509 11.7305 19.1509 11.6277V11.5508C19.1509 11.4489 19.1769 11.3211 19.1769 11.2182V11.0644C19.1769 10.9107 19.0491 10.7579 18.8953 10.7579C17.1826 10.6041 16.1601 9.96495 15.9292 8.94234C15.9033 8.78855 15.7754 8.68669 15.6227 8.68669C15.4689 8.68669 15.341 8.78855 15.3161 8.94234C15.0864 9.96495 14.0638 10.5781 12.35 10.7579C12.1713 10.7589 12.0434 10.8867 12.0434 11.0654V11.2192C12.0434 11.3211 12.0434 11.4489 12.0694 11.5518V11.6287C12.0954 11.7305 12.0954 11.8584 12.1203 11.9612V11.9872C12.1463 12.0891 12.1713 12.1919 12.1972 12.2938C12.1972 12.3197 12.2232 12.3447 12.2232 12.3707C12.2492 12.4725 12.3001 12.5754 12.351 12.6772L11.4822 12.831H11.4313L11.5583 12.2668ZM13.3479 13.0597C13.271 12.9578 13.1941 12.881 13.1432 12.7781C13.1172 12.7272 13.0663 12.6503 13.0413 12.5993C13.0153 12.5484 12.9904 12.4975 12.9644 12.4455C12.9384 12.3686 12.9135 12.3177 12.8875 12.2408C12.8615 12.1899 12.8366 12.139 12.8366 12.087C12.8106 12.0101 12.7856 11.9332 12.7856 11.8573C12.7856 11.8064 12.7597 11.7804 12.7597 11.7295C12.7337 11.6017 12.7337 11.4739 12.7088 11.346C14.3705 11.1413 15.2143 10.5022 15.6487 9.83811C16.0582 10.5032 16.901 11.1423 18.5887 11.346C18.5627 11.8573 18.41 12.3427 18.1543 12.7521C18.0774 12.854 18.0265 12.9568 17.9496 13.0587C17.3874 13.7487 16.5695 14.1582 15.6747 14.1582C15.3422 14.1582 15.0096 14.1073 14.703 14.0044C14.1398 13.8007 13.6794 13.4941 13.3479 13.0597ZM11.1489 13.571C11.3027 13.5201 11.4555 13.4941 11.6092 13.4691L12.7088 13.2904C12.7597 13.3413 12.7856 13.4182 12.8366 13.4691C13.5266 14.313 14.5243 14.7983 15.6227 14.7983C15.9043 14.7983 16.1599 14.7724 16.4156 14.7214C17.1825 14.5427 17.8986 14.1083 18.4099 13.4692C18.4608 13.4182 18.4868 13.3673 18.5377 13.3154V13.2894L19.6372 13.4682C19.791 13.4941 19.9438 13.5451 20.0976 13.57C21.222 13.9275 22.0918 14.8742 22.3215 16.0496L22.8837 18.734L20.7367 19.1943C20.8385 18.5552 20.8645 17.4048 20.1994 16.3561C20.0976 16.2023 19.9178 16.1514 19.765 16.2542C19.6112 16.3561 19.5603 16.5359 19.6632 16.6886C20.481 17.9929 20.0466 19.5008 20.0207 19.5269L19.8918 20.0901C19.8149 20.0392 19.764 19.9882 19.6871 19.9363L19.6611 19.9103C19.5843 19.8594 19.4824 19.7825 19.3795 19.7316C19.2777 19.6807 19.1748 19.6038 19.0729 19.5528C18.996 19.5019 18.9192 19.4759 18.8682 19.425C18.8173 19.399 18.7664 19.3741 18.6895 19.3481C18.5616 19.2972 18.4598 19.2203 18.332 19.1694C18.2551 19.1434 18.1782 19.1184 18.1023 19.0925C18.0004 19.0415 17.8976 19.0156 17.7957 18.9646C17.7188 18.9387 17.6419 18.9137 17.566 18.8877C17.4891 18.8618 17.3873 18.8368 17.3104 18.8108C16.4665 17.967 14.8557 16.6887 13.143 16.7147H13.0921C12.4529 16.7407 11.8647 16.9444 11.3025 17.3279C11.3794 17.1231 11.4813 16.9184 11.5841 16.7147C11.686 16.5609 11.6351 16.3572 11.4823 16.2803C11.3285 16.1785 11.1248 16.2294 11.0479 16.3822C10.7413 16.8675 10.5366 17.4557 10.4857 18.0699C10.4347 18.1208 10.4088 18.1468 10.3578 18.1977C10.3319 18.2237 10.3319 18.2237 10.3069 18.2486C10.256 18.2996 10.205 18.3505 10.1791 18.4274C10.1531 18.4534 10.1531 18.4783 10.1281 18.5043C10.0772 18.5552 10.0513 18.6321 10.0263 18.683C10.0003 18.709 10.0003 18.734 9.97535 18.7599C9.97535 18.7599 9.97535 18.7859 9.94939 18.7859L8.41549 18.4793L8.92679 16.0766C9.15447 14.9002 9.99845 13.9545 11.1489 13.571ZM7.97932 23.4905C7.67274 23.0561 7.54492 22.4939 7.67274 21.9826L8.28589 19.0676L9.71795 19.3493C9.71795 19.4002 9.69198 19.4262 9.69198 19.4771C9.69198 19.5031 9.69198 19.528 9.66602 19.554C9.64006 19.6309 9.64006 19.7327 9.61509 19.8096V19.8356C9.61509 19.9125 9.58912 19.9894 9.58912 20.0653V20.1422V20.3209V20.3978C9.58912 20.4747 9.58912 20.5257 9.61509 20.6026V20.6535C9.61509 20.7304 9.64105 20.8322 9.66602 20.9091C9.66602 20.9351 9.66602 20.9601 9.69198 20.986C9.69198 21.037 9.71795 21.0879 9.71795 21.1139V21.1398L9.43632 21.038C9.25757 20.987 9.07882 21.0639 9.02687 21.2427C8.97594 21.4214 9.05284 21.6002 9.23159 21.6521L9.81979 21.8569L10.1523 22.0106C10.2033 22.0875 10.2542 22.1644 10.3311 22.2403L10.382 22.2913C10.4589 22.3931 10.5358 22.47 10.6117 22.5469C10.6377 22.5729 10.6377 22.5729 10.6626 22.5978C10.7395 22.6747 10.8414 22.7516 10.9183 22.8275L10.9443 22.8535C11.0461 22.9304 11.123 22.9813 11.2259 23.0582H11.2518C11.3537 23.1091 11.4566 23.1601 11.5584 23.212C11.5844 23.212 11.5844 23.212 11.6094 23.238C11.7112 23.2889 11.8141 23.3149 11.9159 23.3398C11.9419 23.3398 11.9419 23.3398 11.9669 23.3658C12.0687 23.3918 12.1716 23.4167 12.2994 23.4427H12.3503C12.4522 23.4686 12.5551 23.4686 12.6829 23.4686H12.7089H12.7858H12.8876H13.0154H13.0664L13.7824 23.8261C13.8593 23.8771 13.9612 23.8771 14.064 23.8261C14.1409 23.7752 14.2178 23.7243 14.2428 23.6214L14.6003 22.1355C14.6262 22.1355 14.6512 22.1355 14.6772 22.1614H14.7031C14.78 22.2124 14.831 22.2633 14.831 22.3402V22.4171L14.7031 23.5166C14.7031 23.5935 14.7031 23.6704 14.7541 23.7213C14.7541 23.7473 14.78 23.7722 14.805 23.7722C14.8819 23.8491 14.9588 23.8741 15.0606 23.8741L16.7484 23.7203H16.9021H16.9281H17.03C17.1318 23.7463 17.2347 23.7972 17.3116 23.8741C17.3376 23.9001 17.3376 23.9001 17.3625 23.925C17.3625 23.925 17.3885 23.951 17.3885 23.976C17.4144 24.0019 17.4144 24.0269 17.4394 24.0528L17.4654 24.1038L17.747 24.7689C17.747 24.7948 17.747 24.8458 17.721 24.8707L17.6951 24.8967H17.6691H17.6431L15.6229 25.1524L9.30861 24.3085C8.77133 24.2066 8.28589 23.9249 7.97932 23.4905ZM21.0425 26.5583H10.2035L10.4851 25.1013L15.572 25.7914H15.623H15.6739L17.7191 25.5097L18.0517 25.4588L20.736 25.1013L21.0425 26.5583ZM23.2665 23.4905C22.9599 23.9249 22.4736 24.2315 21.9373 24.2834L18.3321 24.7688V24.7428C18.3321 24.6919 18.3321 24.615 18.3062 24.564C18.3062 24.5381 18.2802 24.5131 18.2802 24.4622H18.7406H18.7915H19.0212H19.2259H19.3028H19.4566H19.5335C19.5844 24.4622 19.6354 24.4362 19.6613 24.4362C19.6873 24.4362 19.7123 24.4102 19.7382 24.4102C19.7892 24.4102 19.8401 24.3843 19.8661 24.3843C19.892 24.3843 19.917 24.3583 19.9429 24.3583C19.9939 24.3324 20.0198 24.3324 20.0708 24.3074C20.0967 24.2814 20.1217 24.2814 20.1477 24.2565C20.1986 24.2305 20.2495 24.2055 20.2755 24.1546C20.3015 24.1286 20.3264 24.1286 20.3264 24.1037C20.3774 24.0527 20.4542 24.0018 20.5052 23.9249C20.5561 23.874 20.607 23.7971 20.633 23.7462C20.8887 23.3627 21.0165 22.8514 21.0425 22.2892V22.0075V21.9566C21.0425 21.9057 21.0425 21.8797 21.0165 21.8288L21.8344 21.5222C21.9882 21.4713 22.09 21.2665 22.0391 21.1127C21.9882 20.934 21.7834 20.8571 21.6296 20.908L20.8367 21.1897C20.8107 21.1387 20.7858 21.0878 20.7598 21.0618C20.7339 21.0359 20.7339 21.0109 20.7089 20.9849C20.7089 20.959 20.6829 20.959 20.6829 20.934C20.6829 20.908 20.657 20.908 20.657 20.8831C20.631 20.8321 20.5801 20.7812 20.5551 20.7293C20.5551 20.7293 20.5551 20.7033 20.5291 20.7033C20.5291 20.6774 20.5032 20.6774 20.4782 20.6524C20.4522 20.6264 20.4522 20.6015 20.4273 20.5755C20.4013 20.5495 20.3763 20.5246 20.3504 20.4986L20.3244 20.4726L20.4782 19.8075L21.0914 19.6797L22.9069 19.2962L23.4691 21.9036C23.7018 22.4928 23.5741 23.0301 23.2665 23.4905Z" fill="#3A3A47"/>
</svg>
