<svg width="49" height="48" viewBox="0 0 49 48" fill="none" xmlns="http://www.w3.org/2000/svg">
<path d="M39.7544 14.7463H39.5961V14.1175C39.5961 12.3983 38.1978 11 36.4786 11H11.5258C9.80653 11 8.40829 12.3983 8.40829 14.1175V14.7463H8.25C7.28266 14.7463 6.5 15.5334 6.5 16.4964V19.46C6.5 20.4274 7.28706 21.21 8.25 21.21H8.40829V21.4079C8.40829 30.0042 15.4039 37 24 37C32.5961 37 39.5917 30.0042 39.5917 21.4079V21.21H39.75C40.7173 21.21 41.5 20.423 41.5 19.46V16.4964C41.5044 15.5334 40.7217 14.7463 39.7544 14.7463ZM8.25 19.8909C8.01256 19.8909 7.81909 19.6974 7.81909 19.46V16.4964C7.81909 16.2589 8.01256 16.0654 8.25 16.0654H13.5176V19.8909H8.25ZM19.1721 34.841C14.6168 33.1965 11.1344 29.3007 10.0703 24.4991C10.7915 24.2748 11.5389 24.1605 12.3084 24.1605C16.468 24.1605 19.858 27.5463 19.858 31.7103C19.8536 32.7964 19.6162 33.8605 19.1721 34.841ZM28.8323 34.841C28.3882 33.8649 28.1507 32.7876 28.1507 31.7059C28.1507 27.5419 31.5364 24.1561 35.7004 24.1561C36.4654 24.1561 37.2129 24.2748 37.934 24.4991C36.87 29.3007 33.3875 33.1965 28.8323 34.841ZM38.277 21.4123C38.277 22.0147 38.233 22.6127 38.1627 23.1975C37.3668 22.9689 36.5402 22.8458 35.7004 22.8458C30.8109 22.8458 26.8316 26.8251 26.8316 31.7147C26.8316 32.9283 27.0867 34.1331 27.5659 35.2412C26.4271 35.5358 25.2311 35.6897 24.0044 35.6897C22.7776 35.6897 21.5816 35.5314 20.4428 35.2412C20.9221 34.1331 21.1727 32.9327 21.1727 31.7147C21.1727 26.8251 17.1935 22.8458 12.304 22.8458C11.4598 22.8458 10.6376 22.9689 9.84171 23.2019C9.76696 22.6171 9.72738 22.0235 9.72738 21.4167V21.2188H14.8763C16.657 21.2188 18.108 19.7678 18.108 17.987C18.108 16.2062 16.657 14.7551 14.8763 14.7551H9.73178V14.1263C9.73178 13.137 10.5364 12.3279 11.5301 12.3279H36.483C37.4723 12.3279 38.2814 13.1326 38.2814 14.1263V14.7551H33.1281C31.3473 14.7551 29.8963 16.2062 29.8963 17.987C29.8963 19.7678 31.3473 21.2188 33.1281 21.2188H38.277V21.4123ZM14.8367 19.8909V16.0654H14.8806C15.9359 16.0654 16.7933 16.9229 16.7933 17.9782C16.7933 19.0335 15.9359 19.8909 14.8806 19.8909H14.8367ZM33.1677 16.0654V19.8909H33.1237C32.0685 19.8909 31.211 19.0335 31.211 17.9782C31.211 16.9229 32.0685 16.0654 33.1237 16.0654H33.1677ZM40.1853 19.46C40.1853 19.6974 39.9918 19.8909 39.7544 19.8909H34.4868V16.0654H39.7544C39.9918 16.0654 40.1853 16.2589 40.1853 16.4964V19.46Z" fill="#3A3A47"/>
</svg>
