<svg width="98" height="48" viewBox="0 0 98 48" fill="none" xmlns="http://www.w3.org/2000/svg">
<path fill-rule="evenodd" clip-rule="evenodd" d="M38.5721 19.2834C38.5721 19.0462 38.76 18.8545 38.9926 18.8545C39.2251 18.8545 39.413 19.0462 39.413 19.2834V21.9876C39.413 22.2248 39.2251 22.4165 38.9926 22.4165C38.76 22.4165 38.5721 22.2248 38.5721 21.9876V19.2834ZM32.7754 19.2834C32.7754 19.0462 32.9633 18.8545 33.1958 18.8545C33.4284 18.8545 33.6163 19.0462 33.6163 19.2834V21.9876C33.6163 22.2248 33.4284 22.4165 33.1958 22.4165C32.9633 22.4165 32.7754 22.2248 32.7754 21.9876V19.2834ZM33.8732 27.3122C33.6425 27.3198 33.4472 27.1357 33.4398 26.9004C33.4323 26.6651 33.6128 26.4658 33.8435 26.4582L38.3156 26.2893C38.5463 26.2817 38.7416 26.4658 38.749 26.7011C38.7565 26.9364 38.576 27.1357 38.3453 27.1433L33.8732 27.3122ZM40.1833 32.2538C42.4045 31.1076 43.9671 29.1568 44.6964 26.9211C45.4294 24.6743 45.3233 22.1428 44.2034 19.858C43.0835 17.5732 41.1618 15.9697 38.961 15.222C36.7584 14.4743 34.2768 14.5825 32.0371 15.7249C29.7973 16.8673 28.2253 18.8276 27.4924 21.0726C26.7632 23.3081 26.8654 25.8263 27.9705 28.1017C27.9835 28.1226 27.9946 28.1454 28.0021 28.1681C29.1257 30.4359 31.0381 32.028 33.2297 32.7719C35.4211 33.5157 37.8897 33.4114 40.1203 32.2842C40.1389 32.2747 40.161 32.2633 40.1833 32.2538ZM45.4909 27.1907C46.2909 24.737 46.1755 21.9742 44.9515 19.4786C43.7274 16.9832 41.6271 15.2297 39.2219 14.4136C36.8165 13.5976 34.1081 13.7153 31.6617 14.9639C29.2154 16.2126 27.4965 18.3551 26.6965 20.8086C25.8965 23.2604 26.0119 26.0252 27.236 28.5208V28.5227C28.46 31.0162 30.5584 32.7696 32.9636 33.5857C35.3671 34.4017 38.0774 34.284 40.5238 33.0354H40.5257C42.972 31.7848 44.6891 29.6424 45.4909 27.1907Z" fill="#3A3A47"/>
<path fill-rule="evenodd" clip-rule="evenodd" d="M14.3383 32.2731C16.5781 31.1306 18.1501 29.1704 18.883 26.9253C19.616 24.6785 19.5099 22.147 18.39 19.8623C17.2701 17.5775 15.3485 15.9739 13.1477 15.2262C10.9451 14.4785 8.46347 14.5867 6.22369 15.7291C3.98392 16.8716 2.41197 18.8318 1.679 21.0769C0.946025 23.3237 1.05208 25.8552 2.17199 28.1399C3.2919 30.4247 5.21355 32.0283 7.41437 32.776C9.61695 33.5237 12.0986 33.4155 14.3383 32.2731ZM4.94472 22.0159C4.86658 22.2379 4.62474 22.3518 4.4071 22.2721C4.18944 22.1924 4.07782 21.9457 4.15596 21.7237C4.31966 21.2682 4.65267 20.8792 5.09357 20.6097C5.50841 20.3554 6.01813 20.2055 6.56694 20.2055C7.1157 20.2055 7.62546 20.3554 8.04031 20.6097C8.4812 20.8792 8.81605 21.2682 8.97792 21.7237C9.05605 21.9457 8.94443 22.1905 8.72678 22.2721C8.50913 22.3518 8.26915 22.2379 8.18916 22.0159C8.09429 21.7483 7.88593 21.513 7.60873 21.3423C7.32038 21.1658 6.95948 21.0614 6.56511 21.0614C6.17074 21.0614 5.80799 21.1658 5.52149 21.3423C5.24617 21.513 5.03958 21.7484 4.94472 22.0159ZM12.3692 22.0159C12.2911 22.2379 12.0492 22.3518 11.8334 22.2721C11.6158 22.1924 11.5042 21.9457 11.5823 21.7237C11.746 21.2682 12.079 20.8792 12.5199 20.6097C12.9347 20.3554 13.4445 20.2055 13.9933 20.2055C14.542 20.2055 15.0518 20.3554 15.4667 20.6097C15.9075 20.8792 16.2424 21.2682 16.4043 21.7237C16.4824 21.9457 16.3708 22.1905 16.1531 22.2721C15.9355 22.3518 15.6955 22.2379 15.6155 22.0159C15.5188 21.7483 15.3123 21.513 15.0351 21.3423C14.7467 21.1658 14.3858 21.0614 13.9915 21.0614C13.5971 21.0614 13.2362 21.1658 12.9478 21.3423C12.6725 21.513 12.4659 21.7484 12.3692 22.0159ZM6.16721 25.185C6.08908 24.963 6.20069 24.7182 6.41834 24.6385C6.636 24.5588 6.87598 24.6726 6.95596 24.8947C7.16618 25.481 7.61079 25.9915 8.20608 26.3559C8.80323 26.7221 9.54734 26.9384 10.3584 26.9384C11.1695 26.9384 11.9155 26.7221 12.5108 26.3559C13.106 25.9915 13.5507 25.481 13.7609 24.8947C13.839 24.6726 14.0808 24.5588 14.2985 24.6385C14.5161 24.7182 14.6278 24.963 14.5496 25.185C14.2724 25.9593 13.6995 26.6234 12.9423 27.0884C12.2187 27.5324 11.3239 27.7943 10.3584 27.7943C9.39292 27.7943 8.49998 27.5324 7.77444 27.0884C7.01732 26.6235 6.44437 25.9593 6.16721 25.185ZM19.6784 27.1927C18.8804 29.6331 17.1763 31.7661 14.7504 33.0165C14.7262 33.0317 14.702 33.045 14.676 33.0545C12.2408 34.2842 9.54549 34.398 7.15289 33.5859C4.76029 32.7737 2.66958 31.0335 1.4438 28.5588C1.42892 28.5341 1.4159 28.5094 1.4066 28.4829C0.201155 25.9988 0.0895253 23.2493 0.885693 20.8086C1.68748 18.3549 3.4064 16.2125 5.8509 14.9639C8.29717 13.7153 11.0076 13.5976 13.4111 14.4136C15.8165 15.2315 17.9167 16.9831 19.1407 19.4786C20.3629 21.974 20.4784 24.7389 19.6784 27.1927Z" fill="#3A3A47"/>
<path fill-rule="evenodd" clip-rule="evenodd" d="M64.385 19.3071C64.385 19.0699 64.5729 18.8782 64.8055 18.8782C65.038 18.8782 65.2259 19.0699 65.2259 19.3071V22.0112C65.2259 22.2485 65.038 22.4401 64.8055 22.4401C64.5729 22.4401 64.385 22.2485 64.385 22.0112V19.3071ZM58.5883 19.3071C58.5883 19.0699 58.7762 18.8782 59.0087 18.8782C59.2413 18.8782 59.4292 19.0699 59.4292 19.3071V22.0112C59.4292 22.2485 59.2413 22.4401 59.0087 22.4401C58.7762 22.4401 58.5883 22.2485 58.5883 22.0112V19.3071ZM58.579 28.1234C58.5009 28.3455 58.259 28.4593 58.0414 28.3796C57.8237 28.2999 57.7121 28.0532 57.7903 27.8331C58.0674 27.0588 58.6404 26.3947 59.3975 25.9297C60.1212 25.4856 61.016 25.2238 61.9815 25.2238C62.947 25.2238 63.8418 25.4857 64.5654 25.9297C65.3226 26.3946 65.8956 27.0588 66.1727 27.8331C66.2509 28.0551 66.1392 28.2999 65.9216 28.3796C65.7039 28.4593 65.464 28.3455 65.384 28.1234C65.1738 27.5371 64.7292 27.0266 64.1339 26.6622C63.5367 26.296 62.7926 26.0796 61.9815 26.0796C61.1705 26.0796 60.4245 26.296 59.8292 26.6622C59.2358 27.0266 58.7892 27.5371 58.579 28.1234ZM66.3754 33.0155C68.8013 31.7649 70.5071 29.6319 71.3035 27.1917C72.0997 24.7513 71.9881 22.0033 70.7826 19.5174C70.7733 19.4909 70.7603 19.4643 70.7454 19.4415C69.5195 16.9669 67.4285 15.2268 65.0344 14.4144C62.6309 13.5965 59.9206 13.7161 57.4742 14.9647C55.0278 16.2134 53.309 18.3559 52.509 20.8094C51.709 23.2631 51.8244 26.026 53.0485 28.5216C54.2725 31.0171 56.3728 32.7704 58.778 33.5865C61.1703 34.3988 63.8642 34.2849 66.3011 33.0552C66.3271 33.0419 66.3513 33.0306 66.3754 33.0155ZM65.9643 32.2697C68.2041 31.1272 69.776 29.167 70.509 26.9219C71.242 24.6751 71.1359 22.1436 70.016 19.8588C68.8961 17.5741 66.9745 15.9705 64.7736 15.2228C62.5711 14.4751 60.0894 14.5833 57.8497 15.7257C55.6099 16.8681 54.0379 18.8284 53.305 21.0734C52.5701 23.3203 52.6762 25.8537 53.7961 28.1365C54.916 30.4213 56.8376 32.0249 59.0384 32.7726C61.241 33.5203 63.7226 33.4121 65.9624 32.2697H65.9643Z" fill="#3A3A47"/>
<path fill-rule="evenodd" clip-rule="evenodd" d="M82.3802 22.0155C82.3021 22.2375 82.0603 22.3514 81.8426 22.2717C81.625 22.192 81.5133 21.9453 81.5915 21.7233C81.7552 21.2678 82.0882 20.8788 82.5291 20.6093C82.9439 20.355 83.4536 20.2051 84.0025 20.2051C84.5512 20.2051 85.061 20.355 85.4758 20.6093C85.9167 20.8788 86.2516 21.2678 86.4134 21.7233C86.4916 21.9453 86.38 22.1901 86.1623 22.2717C85.9447 22.3514 85.7047 22.2375 85.6247 22.0155C85.5298 21.7479 85.3215 21.5126 85.0442 21.3418C84.7578 21.1654 84.395 21.061 84.0006 21.061C83.6063 21.061 83.2454 21.1654 82.957 21.3418C82.6817 21.5126 82.4751 21.7479 82.3802 22.0155ZM89.8047 22.0155C89.7266 22.2375 89.4847 22.3514 89.2671 22.2717C89.0494 22.192 88.9378 21.9453 89.016 21.7233C89.1797 21.2678 89.5127 20.8788 89.9536 20.6093C90.3684 20.355 90.8781 20.2051 91.4269 20.2051C91.9758 20.2051 92.4855 20.355 92.9003 20.6093C93.3412 20.8788 93.6761 21.2678 93.8379 21.7233C93.9161 21.9453 93.8044 22.1901 93.5868 22.2717C93.3691 22.3514 93.1292 22.2375 93.051 22.0155C92.9543 21.7479 92.7478 21.5126 92.4706 21.3418C92.1823 21.1654 91.8213 21.061 91.427 21.061C91.0326 21.061 90.6699 21.1654 90.3834 21.3418C90.108 21.5126 89.9014 21.7479 89.8047 22.0155ZM83.6027 25.1846C83.5246 24.9626 83.6362 24.7178 83.8539 24.6362C84.0715 24.5565 84.3115 24.6703 84.3915 24.8924C84.6017 25.4787 85.0463 25.9892 85.6416 26.3535C86.2387 26.7198 86.9829 26.9361 87.7939 26.9361C88.605 26.9361 89.351 26.7198 89.9463 26.3535C90.5416 25.9892 90.9862 25.4787 91.1964 24.8924C91.2745 24.6703 91.5164 24.5565 91.7322 24.6362C91.9498 24.7159 92.0614 24.9626 91.9833 25.1846C91.7061 25.9589 91.1331 26.623 90.376 27.088C89.6524 27.532 88.7576 27.7939 87.7921 27.7939C86.8265 27.7939 85.9318 27.532 85.2081 27.088C84.4528 26.623 83.8799 25.9589 83.6027 25.1846ZM91.7416 32.2875C91.762 32.2742 91.7844 32.2628 91.8067 32.2553C94.0279 31.1109 95.5905 29.1583 96.3197 26.9226C97.049 24.6871 96.9485 22.1689 95.8417 19.8935C95.8286 19.8726 95.8175 19.8499 95.81 19.8271C94.6883 17.5594 92.774 15.9672 90.5824 15.2233C88.3798 14.4756 85.8982 14.5838 83.6585 15.7262C81.4187 16.8687 79.8467 18.8289 79.1138 21.074C78.3808 23.3208 78.4868 25.8523 79.6068 28.137V28.1389C80.7267 30.4218 82.6483 32.0273 84.8491 32.775C87.0424 33.5188 89.5109 33.4147 91.7416 32.2875ZM97.114 27.1905C97.9139 24.7387 97.7985 21.9739 96.5745 19.4783V19.4764C95.3504 16.9829 93.252 15.2295 90.8468 14.4134C88.4545 13.6012 85.7606 13.7151 83.3238 14.9448C83.2977 14.9543 83.2717 14.9676 83.2493 14.9827C80.8235 16.2333 79.1176 18.3663 78.3213 20.8065C77.5251 23.2469 77.6367 25.9949 78.8422 28.4808C78.8515 28.5073 78.8645 28.5339 78.8794 28.5567C80.1053 31.0313 82.1963 32.7714 84.5904 33.5838C86.9939 34.4017 89.7042 34.2821 92.1506 33.0335L92.1543 33.0316C94.595 31.7848 96.3141 29.6439 97.114 27.1905Z" fill="#3A3A47"/>
</svg>
