<svg width="32" height="32" viewBox="0 0 32 32" fill="none" xmlns="http://www.w3.org/2000/svg">
<rect x="0.5" y="0.5" width="31" height="31" rx="15.5" fill="#FFDEBF"/>
<rect x="0.5" y="0.5" width="31" height="31" rx="15.5" stroke="#FFE7D0"/>
<path d="M21.0557 13.4113C22.3792 12.0774 22.4516 9.91724 21.2171 8.59553C20.5864 7.92027 19.7331 7.54132 18.8144 7.52725C17.8922 7.51582 17.032 7.86663 16.3828 8.5208L16.293 8.61136C16.1394 8.76611 15.8899 8.76611 15.7363 8.61136C14.4128 7.27755 12.2694 7.20457 10.9579 8.4487C10.2878 9.08439 9.91182 9.94429 9.89786 10.8702C9.8839 11.796 10.2346 12.6665 10.8837 13.3207L14.5323 16.9977C14.9284 17.3969 15.4545 17.6167 16.0146 17.6167C16.5747 17.6167 17.1008 17.3969 17.4968 16.9977L21.0557 13.4113ZM15.0263 16.501L11.3786 12.824C10.8639 12.3052 10.5865 11.615 10.5969 10.8809C10.6074 10.1467 10.9066 9.46529 11.438 8.96062C11.93 8.49375 12.5721 8.26249 13.2247 8.26249C13.9488 8.26249 14.6861 8.54736 15.2436 9.10832C15.6693 9.53738 16.3611 9.53738 16.7869 9.10832L16.8768 9.01776C17.3915 8.499 18.0703 8.22116 18.8049 8.22996C19.5333 8.24051 20.2095 8.54209 20.7094 9.07754C21.6883 10.1247 21.622 11.8454 20.5628 12.9128L17.0032 16.5009C16.4753 17.0328 15.555 17.033 15.0263 16.501Z" fill="#3A3A47"/>
<path d="M23.9838 17.6474L23.6985 14.7222C23.668 14.4066 23.5075 14.1147 23.258 13.9221C23.0084 13.7287 22.6874 13.6478 22.3768 13.6988C21.7862 13.7964 21.3683 14.3433 21.4241 14.9429L21.5837 16.6469C21.6064 16.8878 21.5715 17.1252 21.486 17.3441C21.4538 17.2975 21.4162 17.2527 21.3752 17.2114C20.9879 16.821 20.3571 16.821 19.9697 17.2114L18.1079 19.0876C17.5348 19.6644 17.1832 20.4311 17.1177 21.2453L16.9886 22.8499C16.9336 23.5375 17.4205 24.1556 18.0984 24.2558L19.4672 24.4589C19.5318 24.4686 19.5963 24.473 19.6609 24.473C19.9506 24.473 20.2297 24.3763 20.4618 24.1925C20.7462 23.9683 20.9207 23.6448 20.9547 23.2825L21.0106 22.689C21.0315 22.4683 21.1283 22.26 21.2836 22.1034L23.0242 20.3493C23.7317 19.6354 24.0815 18.6516 23.9838 17.6474ZM22.5303 19.8517L20.7898 21.6058C20.5194 21.8784 20.351 22.2389 20.3152 22.6222L20.2594 23.2157C20.2437 23.3836 20.1625 23.534 20.0308 23.6386C19.8991 23.7432 19.7333 23.7872 19.5693 23.7626L18.2004 23.5595C17.8855 23.5129 17.6595 23.2262 17.6848 22.9062L17.8139 21.3016C17.8663 20.6536 18.1455 20.0443 18.6017 19.5844L20.4635 17.7081C20.5787 17.5921 20.7663 17.5921 20.8814 17.7081C20.9948 17.8224 20.9966 18.0071 20.8875 18.124L19.8589 19.1607C19.7228 19.2978 19.7228 19.5203 19.8589 19.6583C19.995 19.7955 20.2157 19.7955 20.3527 19.6583L21.6439 18.357C22.1089 17.8884 22.3401 17.2413 22.2782 16.5818L22.1185 14.8779C22.0967 14.644 22.2598 14.4312 22.4893 14.3934C22.6114 14.3723 22.7336 14.404 22.8322 14.4805C22.9308 14.557 22.9918 14.6677 23.004 14.7917L23.2893 17.7169C23.3661 18.5091 23.0896 19.2881 22.5303 19.8517Z" fill="#3A3A47"/>
<path d="M13.8925 19.0879L12.0307 17.2116C11.6433 16.8212 11.0134 16.8212 10.6252 17.2116C10.5842 17.2529 10.5467 17.2978 10.5144 17.3444C10.4289 17.1263 10.3949 16.888 10.4167 16.6471L10.5763 14.9431C10.6322 14.3435 10.2143 13.7966 9.62364 13.699C9.31393 13.648 8.992 13.7289 8.74248 13.9223C8.49296 14.1158 8.33244 14.4077 8.30189 14.7225L8.01661 17.6477C7.91889 18.6518 8.26874 19.6356 8.9763 20.3487L10.7168 22.1028C10.8721 22.2602 10.9698 22.4677 10.9899 22.6884L11.0457 23.2819C11.0798 23.6441 11.2551 23.9668 11.5387 24.1919C11.7707 24.3757 12.0499 24.4724 12.3396 24.4724C12.4032 24.4724 12.4678 24.468 12.5332 24.4583L13.9021 24.2552C14.58 24.155 15.0668 23.5378 15.0119 22.8493L14.8827 21.2447C14.8173 20.4314 14.4657 19.6647 13.8925 19.0879ZM13.8009 23.5597L12.432 23.7628C12.2671 23.7874 12.1022 23.7434 11.9705 23.6388C11.8388 23.5342 11.7576 23.3847 11.7419 23.2159L11.6861 22.6224C11.6503 22.2391 11.4811 21.8777 11.2115 21.606L9.47096 19.8519C8.91173 19.2883 8.63516 18.5102 8.71282 17.7162L8.99809 14.791C9.01031 14.6661 9.07138 14.5562 9.16997 14.4798C9.24848 14.4191 9.34271 14.3866 9.43954 14.3866C9.46397 14.3866 9.4884 14.3883 9.51283 14.3927C9.74227 14.4305 9.90542 14.6433 9.88362 14.8772L9.72397 16.5811C9.66202 17.2406 9.89322 17.8877 10.3582 18.3563L11.6494 19.6576C11.7855 19.7948 12.0063 19.7948 12.1432 19.6576C12.2793 19.5204 12.2793 19.298 12.1432 19.1599L11.1146 18.1233C11.0047 18.0064 11.0073 17.8217 11.1198 17.7074C11.235 17.5914 11.4226 17.5914 11.5386 17.7074L13.4004 19.5837C13.8567 20.0436 14.1359 20.6529 14.1882 21.3009L14.3173 22.9055C14.3417 23.2264 14.115 23.5131 13.8009 23.5597Z" fill="#3A3A47"/>
</svg>
