<svg width="84" height="48" viewBox="0 0 84 48" fill="none" xmlns="http://www.w3.org/2000/svg">
<path fill-rule="evenodd" clip-rule="evenodd" d="M13.9631 32.2725C16.2029 31.13 17.7748 29.1698 18.5078 26.9247C19.2408 24.6779 19.1347 22.1464 18.0148 19.8616C16.8949 17.5769 14.9732 15.9733 12.7724 15.2256C10.5698 14.4779 8.08822 14.5861 5.84845 15.7285C3.60868 16.8709 2.03672 18.8312 1.30375 21.0762C0.570781 23.3231 0.676838 25.8546 1.79675 28.1393C2.91666 30.4241 4.83831 32.0277 7.03913 32.7754C9.24171 33.5231 11.7233 33.4149 13.9631 32.2725ZM33.5711 19.2847C33.5711 19.0475 33.7589 18.8558 33.9915 18.8558C34.224 18.8558 34.4119 19.0475 34.4119 19.2847V21.9889C34.4119 22.2261 34.224 22.4178 33.9915 22.4178C33.7589 22.4178 33.5711 22.2261 33.5711 21.9889V19.2847ZM27.7743 19.2847C27.7743 19.0475 27.9622 18.8558 28.1948 18.8558C28.4273 18.8558 28.6152 19.0475 28.6152 19.2847V21.9889C28.6152 22.2261 28.4273 22.4178 28.1948 22.4178C27.9622 22.4178 27.7743 22.2261 27.7743 21.9889V19.2847ZM28.8721 27.3135C28.6415 27.3211 28.4461 27.137 28.4387 26.9017C28.4313 26.6664 28.6117 26.4671 28.8424 26.4595L33.3145 26.2906C33.5452 26.283 33.7405 26.4671 33.748 26.7024C33.7554 26.9377 33.5749 27.137 33.3443 27.1446L28.8721 27.3135ZM35.1822 32.2551C37.4034 31.1089 38.9661 29.1581 39.6953 26.9224C40.4283 24.6756 40.3222 22.1441 39.2023 19.8593C38.0824 17.5745 36.1608 15.971 33.9599 15.2233C31.7574 14.4756 29.2758 14.5838 27.036 15.7262C24.7962 16.8686 23.2243 18.8289 22.4913 21.0739C21.7621 23.3094 21.8644 25.8276 22.9694 28.103C22.9824 28.1239 22.9936 28.1466 23.001 28.1694C24.1246 30.4371 26.037 32.0293 28.2286 32.7732C30.4201 33.517 32.8887 33.4127 35.1192 32.2855C35.1378 32.276 35.1599 32.2646 35.1822 32.2551ZM40.4899 27.192C41.2898 24.7383 41.1745 21.9755 39.9504 19.4799C38.7263 16.9845 36.626 15.231 34.2208 14.4149C31.8155 13.5989 29.107 13.7166 26.6606 14.9652C24.2143 16.2139 22.4954 18.3564 21.6954 20.8099C20.8955 23.2617 21.0108 26.0265 22.2349 28.5221V28.524C23.4589 31.0175 25.5574 32.7709 27.9625 33.587C30.366 34.403 33.0763 34.2853 35.5228 33.0367H35.5246C37.9709 31.7861 39.688 29.6437 40.4899 27.192ZM4.56947 22.0153C4.49134 22.2373 4.2495 22.3512 4.03185 22.2715C3.8142 22.1918 3.70258 21.9451 3.78071 21.7231C3.94442 21.2676 4.27743 20.8786 4.71832 20.6091C5.13317 20.3548 5.64288 20.2049 6.19169 20.2049C6.74046 20.2049 7.25022 20.3548 7.66507 20.6091C8.10595 20.8786 8.4408 21.2676 8.60267 21.7231C8.68081 21.9451 8.56919 22.1899 8.35154 22.2715C8.13388 22.3512 7.89391 22.2373 7.81392 22.0153C7.71904 21.7477 7.51069 21.5124 7.23348 21.3416C6.94514 21.1652 6.58423 21.0608 6.18987 21.0608C5.7955 21.0608 5.43275 21.1652 5.14625 21.3416C4.87093 21.5124 4.66434 21.7477 4.56947 22.0153ZM11.994 22.0153C11.9158 22.2373 11.674 22.3512 11.4582 22.2715C11.2405 22.1918 11.1289 21.9451 11.2071 21.7231C11.3708 21.2676 11.7038 20.8786 12.1447 20.6091C12.5595 20.3548 13.0692 20.2049 13.618 20.2049C14.1668 20.2049 14.6766 20.3548 15.0914 20.6091C15.5323 20.8786 15.8671 21.2676 16.029 21.7231C16.1071 21.9451 15.9955 22.1899 15.7779 22.2715C15.5602 22.3512 15.3202 22.2373 15.2403 22.0153C15.1435 21.7477 14.937 21.5124 14.6598 21.3416C14.3715 21.1652 14.0106 21.0608 13.6162 21.0608C13.2218 21.0608 12.8609 21.1652 12.5726 21.3416C12.2973 21.5124 12.0907 21.7477 11.994 22.0153ZM5.79196 25.1844C5.71383 24.9624 5.82545 24.7176 6.0431 24.6379C6.26075 24.5582 6.50073 24.672 6.58072 24.894C6.79093 25.4804 7.23554 25.9909 7.83083 26.3552C8.42798 26.7215 9.1721 26.9378 9.98317 26.9378C10.7942 26.9378 11.5402 26.7215 12.1355 26.3552C12.7308 25.9909 13.1754 25.4804 13.3856 24.894C13.4638 24.672 13.7056 24.5582 13.9232 24.6379C14.1409 24.7176 14.2525 24.9624 14.1744 25.1844C13.8972 25.9587 13.3242 26.6228 12.5671 27.0878C11.8435 27.5318 10.9487 27.7937 9.98314 27.7937C9.01767 27.7937 8.12474 27.5318 7.39919 27.0878C6.64208 26.6228 6.06913 25.9587 5.79196 25.1844ZM19.3032 27.1921C18.5051 29.6325 16.8011 31.7655 14.3751 33.0159C14.3509 33.0311 14.3268 33.0444 14.3007 33.0539C11.8656 34.2835 9.17024 34.3974 6.77765 33.5853C4.38505 32.7731 2.29434 31.0329 1.06856 28.5582C1.05368 28.5335 1.04065 28.5088 1.03135 28.4823C-0.174089 25.9982 -0.285719 23.2487 0.510449 20.808C1.31224 18.3543 3.03115 16.2119 5.47566 14.9633C7.92193 13.7147 10.6323 13.597 13.0359 14.413C15.4412 15.2309 17.5415 16.9825 18.7654 19.478C19.9876 21.9734 20.1031 24.7383 19.3032 27.1921Z" fill="#3A3A47"/>
<path fill-rule="evenodd" clip-rule="evenodd" d="M68.7555 22.0149C68.6774 22.2369 68.4355 22.3508 68.2179 22.2711C68.0002 22.1914 67.8886 21.9447 67.9668 21.7227C68.1305 21.2672 68.4635 20.8782 68.9044 20.6087C69.3192 20.3544 69.8289 20.2045 70.3777 20.2045C70.9265 20.2045 71.4363 20.3544 71.8511 20.6087C72.292 20.8782 72.6268 21.2672 72.7887 21.7227C72.8668 21.9447 72.7552 22.1895 72.5376 22.2711C72.3199 22.3508 72.0799 22.2369 72 22.0149C71.9051 21.7473 71.6967 21.512 71.4195 21.3412C71.133 21.1647 70.7703 21.0604 70.3759 21.0604C69.9815 21.0604 69.6206 21.1647 69.3323 21.3412C69.057 21.512 68.8504 21.7473 68.7555 22.0149ZM76.18 22.0149C76.1019 22.2369 75.86 22.3508 75.6424 22.2711C75.4247 22.1914 75.3131 21.9447 75.3912 21.7227C75.5549 21.2672 75.888 20.8782 76.3288 20.6087C76.7437 20.3544 77.2534 20.2045 77.8022 20.2045C78.351 20.2045 78.8607 20.3544 79.2756 20.6087C79.7165 20.8782 80.0513 21.2672 80.2132 21.7227C80.2913 21.9447 80.1797 22.1895 79.9621 22.2711C79.7444 22.3508 79.5044 22.2369 79.4263 22.0149C79.3296 21.7473 79.1231 21.512 78.8459 21.3412C78.5575 21.1647 78.1966 21.0604 77.8022 21.0604C77.4079 21.0604 77.0451 21.1647 76.7586 21.3412C76.4833 21.512 76.2767 21.7473 76.18 22.0149ZM69.978 25.184C69.8999 24.962 70.0115 24.7172 70.2291 24.6356C70.4468 24.5559 70.6868 24.6697 70.7668 24.8917C70.977 25.4781 71.4216 25.9886 72.0169 26.3529C72.614 26.7192 73.3581 26.9355 74.1692 26.9355C74.9803 26.9355 75.7263 26.7192 76.3216 26.3529C76.9168 25.9886 77.3615 25.4781 77.5717 24.8917C77.6498 24.6697 77.8916 24.5559 78.1074 24.6356C78.3251 24.7153 78.4367 24.962 78.3586 25.184C78.0814 25.9583 77.5084 26.6224 76.7513 27.0874C76.0276 27.5314 75.1328 27.7933 74.1673 27.7933C73.2018 27.7933 72.3071 27.5314 71.5834 27.0874C70.8281 26.6224 70.2552 25.9583 69.978 25.184ZM78.1168 32.2869C78.1373 32.2736 78.1596 32.2622 78.1819 32.2546C80.4032 31.1103 81.9658 29.1577 82.695 26.922C83.4242 24.6865 83.3238 22.1683 82.2169 19.8929C82.2039 19.872 82.1928 19.8493 82.1853 19.8265C81.0635 17.5588 79.1493 15.9666 76.9577 15.2227C74.7551 14.475 72.2735 14.5832 70.0337 15.7256C67.794 16.868 66.222 18.8283 65.489 21.0733C64.7561 23.3202 64.8621 25.8517 65.982 28.1364V28.1383C67.1019 30.4212 69.0236 32.0267 71.2244 32.7744C73.4177 33.5182 75.8862 33.4141 78.1168 32.2869ZM83.4892 27.1899C84.2892 24.7381 84.1738 21.9733 82.9498 19.4777V19.4758C81.7257 16.9823 79.6273 15.2289 77.2221 14.4128C74.8298 13.6006 72.1359 13.7145 69.699 14.9442C69.673 14.9537 69.6469 14.9669 69.6246 14.9821C67.1988 16.2327 65.4929 18.3656 64.6966 20.8059C63.9003 23.2463 64.012 25.9943 65.2175 28.4802C65.2268 28.5067 65.2398 28.5333 65.2547 28.5561C66.4806 31.0307 68.5715 32.7708 70.9657 33.5832C73.3692 34.4011 76.0795 34.2815 78.5259 33.0328L78.5296 33.0309C80.9703 31.7842 82.6893 29.6433 83.4892 27.1899ZM55.3843 19.3072C55.3843 19.07 55.5722 18.8784 55.8047 18.8784C56.0373 18.8784 56.2251 19.07 56.2251 19.3072V22.0114C56.2251 22.2486 56.0373 22.4403 55.8047 22.4403C55.5722 22.4403 55.3843 22.2486 55.3843 22.0114V19.3072ZM49.5876 19.3072C49.5876 19.07 49.7755 18.8784 50.008 18.8784C50.2405 18.8784 50.4284 19.07 50.4284 19.3072V22.0114C50.4284 22.2486 50.2405 22.4403 50.008 22.4403C49.7755 22.4403 49.5876 22.2486 49.5876 22.0114V19.3072ZM49.5783 28.1236C49.5002 28.3456 49.2583 28.4595 49.0407 28.3798C48.823 28.3001 48.7114 28.0534 48.7895 27.8332C49.0667 27.059 49.6397 26.3948 50.3968 25.9299C51.1205 25.4858 52.0152 25.2239 52.9808 25.2239C53.9462 25.2239 54.841 25.4858 55.5647 25.9299C56.3218 26.3948 56.8948 27.059 57.172 27.8332C57.2501 28.0553 57.1385 28.3001 56.9209 28.3798C56.7032 28.4595 56.4632 28.3456 56.3832 28.1236C56.173 27.5372 55.7284 27.0267 55.1331 26.6624C54.536 26.2961 53.7919 26.0798 52.9808 26.0798C52.1697 26.0798 51.4237 26.2961 50.8285 26.6624C50.235 27.0267 49.7885 27.5372 49.5783 28.1236ZM57.3747 33.0156C59.8005 31.7651 61.5064 29.6321 62.3028 27.1918C63.099 24.7514 62.9874 22.0034 61.7819 19.5176C61.7726 19.491 61.7595 19.4644 61.7447 19.4417C60.5187 16.9671 58.4278 15.2269 56.0337 14.4146C53.6302 13.5967 50.9199 13.7162 48.4735 14.9649C46.027 16.2136 44.3083 18.356 43.5082 20.8096C42.7083 23.2633 42.8237 26.0261 44.0477 28.5217C45.2718 31.0173 47.3721 32.7706 49.7773 33.5867C52.1696 34.3989 54.8635 34.285 57.3004 33.0553C57.3264 33.042 57.3505 33.0308 57.3747 33.0156ZM56.9636 32.2698C59.2034 31.1274 60.7753 29.1671 61.5083 26.9221C62.2413 24.6752 62.1352 22.1438 61.0153 19.859C59.8954 17.5742 57.9737 15.9707 55.7729 15.223C53.5703 14.4753 51.0887 14.5835 48.8489 15.7259C46.6092 16.8683 45.0372 18.8286 44.3042 21.0736C43.5694 23.3204 43.6755 25.8538 44.7953 28.1367C45.9152 30.4215 47.8369 32.025 50.0377 32.7727C52.2403 33.5204 54.7219 33.4122 56.9617 32.2698H56.9636Z" fill="#3A3A47"/>
</svg>
