<svg width="48" height="48" viewBox="0 0 48 48" fill="none" xmlns="http://www.w3.org/2000/svg">
<path fill-rule="evenodd" clip-rule="evenodd" d="M17.964 21.3789C20.2038 20.2365 21.7757 18.2762 22.5087 16.0312C23.2417 13.7843 23.1356 11.2529 22.0157 8.96809C20.8958 6.68331 18.9741 5.07977 16.7733 4.33207C14.5707 3.58437 12.0891 3.69256 9.84935 4.83497C7.60958 5.97739 6.03763 7.93765 5.30466 10.1827C4.57168 12.4295 4.67774 14.961 5.79765 17.2458C6.91756 19.5306 8.83921 21.1341 11.04 21.8818C13.2426 22.6295 15.7242 22.5213 17.964 21.3789ZM29.7565 32.9089C29.6784 33.131 29.4365 33.2448 29.2189 33.1651C29.0012 33.0854 28.8896 32.8387 28.9677 32.6167C29.1314 32.1613 29.4644 31.7722 29.9053 31.5028C30.3202 31.2485 30.8299 31.0986 31.3787 31.0986C31.9275 31.0986 32.4372 31.2485 32.8521 31.5028C33.293 31.7722 33.6278 32.1613 33.7897 32.6167C33.8678 32.8387 33.7562 33.0835 33.5386 33.1651C33.3209 33.2448 33.0809 33.131 33.0009 32.9089C32.9061 32.6414 32.6977 32.406 32.4205 32.2353C32.134 32.0588 31.7713 31.9544 31.3769 31.9544C30.9825 31.9544 30.6216 32.0588 30.3333 32.2353C30.0579 32.4061 29.8514 32.6414 29.7565 32.9089ZM37.181 32.9089C37.1028 33.131 36.861 33.2448 36.6434 33.1651C36.4257 33.0854 36.3141 32.8387 36.3922 32.6167C36.5559 32.1613 36.8889 31.7722 37.3298 31.5028C37.7447 31.2485 38.2544 31.0986 38.8032 31.0986C39.352 31.0986 39.8617 31.2485 40.2766 31.5028C40.7175 31.7722 41.0523 32.1613 41.2142 32.6167C41.2923 32.8387 41.1807 33.0835 40.963 33.1651C40.7454 33.2448 40.5054 33.131 40.4273 32.9089C40.3305 32.6414 40.1241 32.406 39.8469 32.2353C39.5585 32.0588 39.1976 31.9544 38.8032 31.9544C38.4089 31.9544 38.0461 32.0588 37.7596 32.2353C37.4843 32.4061 37.2777 32.6414 37.181 32.9089ZM30.979 36.078C30.9009 35.856 31.0125 35.6112 31.2301 35.5296C31.4478 35.4499 31.6878 35.5638 31.7677 35.7858C31.978 36.3722 32.4226 36.8826 33.0179 37.247C33.615 37.6132 34.3591 37.8296 35.1702 37.8296C35.9813 37.8296 36.7272 37.6132 37.3225 37.247C37.9178 36.8826 38.3624 36.3722 38.5726 35.7858C38.6508 35.5638 38.8926 35.4499 39.1084 35.5296C39.3261 35.6093 39.4377 35.856 39.3596 36.078C39.0824 36.8523 38.5094 37.5165 37.7523 37.9814C37.0286 38.4255 36.1338 38.6873 35.1683 38.6873C34.2028 38.6873 33.308 38.4255 32.5844 37.9814C31.8291 37.5165 31.2562 36.8523 30.979 36.078ZM39.1178 43.181C39.1383 43.1677 39.1606 43.1563 39.1829 43.1487C41.4041 42.0044 42.9668 40.0517 43.696 37.816C44.4252 35.5806 44.3248 33.0624 43.2179 30.787C43.2049 30.7661 43.1937 30.7433 43.1863 30.7205C42.0645 28.4528 40.1503 26.8607 37.9587 26.1168C35.7561 25.3691 33.2745 25.4773 31.0347 26.6197C28.7949 27.7621 27.223 29.7224 26.49 31.9674C25.757 34.2142 25.8631 36.7457 26.983 39.0305V39.0324C28.1029 41.3153 30.0246 42.9207 32.2254 43.6684C34.4187 44.4123 36.8872 44.3082 39.1178 43.181ZM44.4902 38.0839C45.2901 35.6321 45.1748 32.8674 43.9507 30.3718V30.3699C42.7267 27.8764 40.6282 26.1229 38.2231 25.3069C35.8308 24.4946 33.1369 24.6085 30.7 25.8382C30.674 25.8477 30.6479 25.861 30.6256 25.8762C28.1998 27.1267 26.4939 29.2597 25.6975 31.7C24.9013 34.1404 25.0129 36.8884 26.2184 39.3742C26.2277 39.4008 26.2408 39.4273 26.2556 39.4501C27.4816 41.9247 29.5725 43.6649 31.9666 44.4772C34.3701 45.2951 37.0804 45.1756 39.5268 43.9269L39.5306 43.925C41.9713 42.6782 43.6903 40.5374 44.4902 38.0839ZM37.572 8.39115C37.572 8.15394 37.7599 7.96228 37.9924 7.96228C38.2249 7.96228 38.4128 8.15394 38.4128 8.39115V11.0953C38.4128 11.3325 38.2249 11.5242 37.9924 11.5242C37.7599 11.5242 37.572 11.3325 37.572 11.0953V8.39115ZM31.7752 8.39115C31.7752 8.15394 31.9631 7.96228 32.1957 7.96228C32.4282 7.96228 32.6161 8.15394 32.6161 8.39115V11.0953C32.6161 11.3325 32.4282 11.5242 32.1957 11.5242C31.9631 11.5242 31.7752 11.3325 31.7752 11.0953V8.39115ZM16.3853 30.2013C16.3853 29.9641 16.5732 29.7724 16.8057 29.7724C17.0382 29.7724 17.2261 29.9641 17.2261 30.2013V32.9055C17.2261 33.1427 17.0382 33.3343 16.8057 33.3343C16.5732 33.3343 16.3853 33.1427 16.3853 32.9055V30.2013ZM10.5886 30.2013C10.5886 29.9641 10.7765 29.7724 11.009 29.7724C11.2415 29.7724 11.4294 29.9641 11.4294 30.2013V32.9055C11.4294 33.1427 11.2415 33.3343 11.009 33.3343C10.7765 33.3343 10.5886 33.1427 10.5886 32.9055V30.2013ZM10.5793 39.0176C10.5011 39.2397 10.2593 39.3535 10.0416 39.2738C9.82399 39.1941 9.71237 38.9474 9.79051 38.7273C10.0677 37.953 10.6407 37.2889 11.3978 36.8239C12.1214 36.3799 13.0162 36.118 13.9817 36.118C14.9472 36.118 15.842 36.3799 16.5657 36.8239C17.3228 37.2888 17.8958 37.953 18.173 38.7273C18.2511 38.9493 18.1395 39.1941 17.9218 39.2738C17.7042 39.3535 17.4642 39.2397 17.3842 39.0176C17.174 38.4313 16.7294 37.9208 16.1341 37.5564C15.537 37.1902 14.7928 36.9739 13.9818 36.9739C13.1707 36.9739 12.4247 37.1902 11.8294 37.5564C11.236 37.9208 10.7895 38.4313 10.5793 39.0176ZM18.3757 43.9097C20.8015 42.6591 22.5074 40.5261 23.3037 38.0859C24.1 35.6455 23.9883 32.8975 22.7828 30.4116C22.7735 30.3851 22.7605 30.3585 22.7456 30.3357C21.5197 27.8611 19.4288 26.121 17.0346 25.3086C14.6311 24.4907 11.9208 24.6103 9.47444 25.8589C7.02802 27.1076 5.30925 29.2501 4.50922 31.7036C3.70929 34.1573 3.82464 36.9202 5.0487 39.4158C6.27276 41.9113 8.37305 43.6647 10.7783 44.4808C13.1706 45.293 15.8644 45.1791 18.3013 43.9494C18.3274 43.9361 18.3515 43.9248 18.3757 43.9097ZM17.9646 43.1639C20.2043 42.0214 21.7763 40.0612 22.5093 37.8161C23.2422 35.5693 23.1362 33.0378 22.0163 30.7531C20.8964 28.4683 18.9747 26.8647 16.7739 26.117C14.5713 25.3693 12.0897 25.4775 9.84992 26.6199C7.61015 27.7624 6.03819 29.7226 5.30522 31.9677C4.57039 34.2145 4.67645 36.7479 5.79631 39.0307C6.91623 41.3155 8.83788 42.9191 11.0387 43.6668C13.2413 44.4145 15.7229 44.3063 17.9627 43.1639H17.9646ZM32.8731 16.4199C32.6424 16.4275 32.4471 16.2434 32.4396 16.0081C32.4322 15.7728 32.6126 15.5736 32.8433 15.566L37.3154 15.3971C37.5461 15.3895 37.7414 15.5736 37.7489 15.8089C37.7563 16.0442 37.5759 16.2434 37.3452 16.251L32.8731 16.4199ZM39.1832 21.3615C41.4044 20.2153 42.967 18.2645 43.6962 16.0288C44.4292 13.782 44.3231 11.2505 43.2032 8.96576C42.0833 6.68098 40.1617 5.07744 37.9609 4.32974C35.7583 3.58204 33.2767 3.69023 31.0369 4.83264C28.7971 5.97506 27.2252 7.93532 26.4922 10.1804C25.763 12.4158 25.8653 14.934 26.9703 17.2094C26.9833 17.2303 26.9945 17.2531 27.0019 17.2759C28.1255 19.5436 30.0379 21.1357 32.2295 21.8796C34.421 22.6235 36.8896 22.5191 39.1202 21.3919C39.1388 21.3824 39.1608 21.371 39.1832 21.3615ZM44.4908 16.2985C45.2907 13.8448 45.1754 11.0819 43.9513 8.58634C42.7272 6.09092 40.627 4.33746 38.2217 3.52136C35.8164 2.70536 33.1079 2.82302 30.6615 4.07168C28.2153 5.32034 26.4963 7.46283 25.6963 9.91638C24.8964 12.3682 25.0117 15.1329 26.2358 17.6285V17.6304C27.4599 20.1239 29.5583 21.8774 31.9634 22.6934C34.367 23.5094 37.0772 23.3918 39.5237 22.1431H39.5255C41.9718 20.8926 43.6889 18.7501 44.4908 16.2985ZM8.57038 11.1218C8.49224 11.3438 8.2504 11.4576 8.03276 11.3779C7.8151 11.2982 7.70348 11.0515 7.78162 10.8295C7.94532 10.3741 8.27833 9.98504 8.71923 9.71556C9.13407 9.46128 9.64379 9.31136 10.1926 9.31136C10.7414 9.31136 11.2511 9.46128 11.666 9.71556C12.1069 9.98503 12.4417 10.3741 12.6036 10.8295C12.6817 11.0515 12.5701 11.2963 12.3524 11.3779C12.1348 11.4576 11.8948 11.3438 11.8148 11.1218C11.7199 10.8542 11.5116 10.6188 11.2344 10.4481C10.946 10.2716 10.5851 10.1672 10.1908 10.1672C9.7964 10.1672 9.43365 10.2716 9.14715 10.4481C8.87183 10.6189 8.66524 10.8542 8.57038 11.1218ZM15.9949 11.1218C15.9167 11.3438 15.6749 11.4576 15.4591 11.3779C15.2414 11.2982 15.1298 11.0515 15.208 10.8295C15.3717 10.3741 15.7047 9.98504 16.1456 9.71556C16.5604 9.46128 17.0701 9.31136 17.6189 9.31136C18.1677 9.31136 18.6775 9.46128 19.0923 9.71556C19.5332 9.98503 19.868 10.3741 20.0299 10.8295C20.108 11.0515 19.9964 11.2963 19.7788 11.3779C19.5611 11.4576 19.3212 11.3438 19.2412 11.1218C19.1444 10.8542 18.9379 10.6188 18.6607 10.4481C18.3724 10.2716 18.0115 10.1672 17.6171 10.1672C17.2227 10.1672 16.8619 10.2716 16.5735 10.4481C16.2982 10.6189 16.0916 10.8542 15.9949 11.1218ZM9.79287 14.2908C9.71474 14.0688 9.82635 13.824 10.044 13.7443C10.2617 13.6646 10.5016 13.7785 10.5816 14.0005C10.7918 14.5869 11.2364 15.0973 11.8317 15.4617C12.4289 15.8279 13.173 16.0443 13.9841 16.0443C14.7952 16.0443 15.5411 15.8279 16.1364 15.4617C16.7317 15.0973 17.1763 14.5869 17.3865 14.0005C17.4647 13.7785 17.7065 13.6646 17.9241 13.7443C18.1418 13.824 18.2534 14.0688 18.1753 14.2908C17.8981 15.0651 17.3251 15.7293 16.568 16.1942C15.8444 16.6383 14.9496 16.9001 13.984 16.9001C13.0186 16.9001 12.1256 16.6383 11.4001 16.1942C10.643 15.7293 10.07 15.0651 9.79287 14.2908ZM23.3041 16.2986C22.506 18.7389 20.802 20.872 18.376 22.1224C18.3518 22.1376 18.3277 22.1508 18.3016 22.1603C15.8665 23.39 13.1711 23.5039 10.7786 22.6917C8.38595 21.8795 6.29524 20.1393 5.06946 17.6646C5.05458 17.6399 5.04156 17.6153 5.03226 17.5887C3.82681 15.1046 3.71518 12.3551 4.51135 9.91447C5.31314 7.46078 7.03206 5.31834 9.47656 4.06977C11.9228 2.82111 14.6332 2.70345 17.0368 3.51946C19.4421 4.33735 21.5424 6.08892 22.7663 8.58444C23.9885 11.0799 24.104 13.8448 23.3041 16.2986Z" fill="#3A3A47"/>
</svg>
