<svg width="32" height="32" viewBox="0 0 32 32" fill="none" xmlns="http://www.w3.org/2000/svg">
<rect width="32" height="32" rx="6" fill="#FFF0DE"/>
<path d="M21.6878 13.0877C23.1767 11.5872 23.2582 9.15693 21.8694 7.67002C21.1597 6.91035 20.1998 6.48403 19.1663 6.4682C18.1288 6.45534 17.1611 6.85001 16.4308 7.58595L16.3297 7.68783C16.1569 7.86192 15.8762 7.86192 15.7035 7.68783C14.2146 6.18729 11.8031 6.10519 10.3277 7.50483C9.57395 8.21998 9.15092 9.18737 9.13522 10.229C9.11951 11.2706 9.51407 12.2498 10.2443 12.9858L14.3489 17.1224C14.7945 17.5715 15.3864 17.8188 16.0165 17.8188C16.6466 17.8188 17.2385 17.5715 17.684 17.1224L21.6878 13.0877ZM14.9047 16.5637L10.8011 12.427C10.222 11.8434 9.90988 11.067 9.92166 10.241C9.93344 9.41509 10.2701 8.64849 10.8678 8.08074C11.4214 7.55551 12.1438 7.29535 12.8779 7.29535C13.6926 7.29535 14.5219 7.61583 15.1491 8.2469C15.6281 8.7296 16.4064 8.7296 16.8854 8.2469L16.9865 8.14502C17.5656 7.56142 18.3292 7.24885 19.1556 7.25875C19.9751 7.27062 20.7358 7.60989 21.2982 8.21228C22.3994 9.39034 22.3248 11.3261 21.1333 12.5269L17.1286 16.5635C16.5348 17.162 15.4995 17.1621 14.9047 16.5637Z" fill="#3A3A47"/>
<path d="M24.9818 17.8533L24.6609 14.5625C24.6265 14.2074 24.4459 13.879 24.1652 13.6623C23.8845 13.4447 23.5233 13.3537 23.1739 13.4111C22.5094 13.5209 22.0393 14.1361 22.1021 14.8107L22.2817 16.7277C22.3072 16.9987 22.268 17.2658 22.1718 17.5121C22.1355 17.4597 22.0933 17.4092 22.0471 17.3627C21.6113 16.9235 20.9017 16.9235 20.4659 17.3627L18.3714 19.4736C17.7266 20.1224 17.3311 20.985 17.2574 21.9009L17.1122 23.7061C17.0503 24.4796 17.598 25.175 18.3607 25.2878L19.9006 25.5163C19.9732 25.5271 20.0459 25.5321 20.1185 25.5321C20.4444 25.5321 20.7584 25.4233 21.0195 25.2165C21.3395 24.9643 21.5358 24.6003 21.574 24.1928L21.6369 23.5251C21.6604 23.2768 21.7694 23.0424 21.9441 22.8663L23.9022 20.893C24.6982 20.0898 25.0917 18.983 24.9818 17.8533ZM23.3466 20.3331L21.3885 22.3065C21.0843 22.6131 20.8949 23.0187 20.8546 23.4499L20.7918 24.1176C20.7741 24.3065 20.6828 24.4757 20.5346 24.5934C20.3864 24.7111 20.2 24.7606 20.0154 24.7329L18.4755 24.5044C18.1211 24.4519 17.8669 24.1295 17.8954 23.7694L18.0407 21.9642C18.0996 21.2352 18.4136 20.5498 18.9269 20.0324L21.0214 17.9216C21.151 17.791 21.362 17.791 21.4916 17.9216C21.6192 18.0502 21.6211 18.2579 21.4985 18.3895L20.3413 19.5557C20.1881 19.71 20.1881 19.9603 20.3413 20.1155C20.4944 20.2699 20.7427 20.2699 20.8968 20.1155L22.3494 18.6516C22.8725 18.1244 23.1326 17.3964 23.0629 16.6545L22.8833 14.7376C22.8588 14.4745 23.0423 14.2351 23.3004 14.1926C23.4379 14.1688 23.5753 14.2044 23.6862 14.2905C23.7971 14.3765 23.8658 14.5012 23.8795 14.6406L24.2005 17.9315C24.2868 18.8227 23.9758 19.6991 23.3466 20.3331Z" fill="#3A3A47"/>
<path d="M13.629 19.4738L11.5345 17.363C11.0987 16.9238 10.39 16.9238 9.95328 17.363C9.90715 17.4095 9.86495 17.4599 9.82863 17.5123C9.73245 17.267 9.69417 16.999 9.7187 16.7279L9.89832 14.811C9.96113 14.1364 9.49099 13.5211 8.82653 13.4113C8.47811 13.354 8.11594 13.445 7.83523 13.6626C7.55451 13.8802 7.37393 14.2086 7.33956 14.5627L7.01862 17.8536C6.90869 18.9832 7.30227 20.09 8.09827 20.8922L10.0564 22.8656C10.2311 23.0426 10.341 23.2761 10.3636 23.5244L10.4264 24.192C10.4647 24.5996 10.662 24.9626 10.9809 25.2158C11.242 25.4225 11.5561 25.5314 11.8819 25.5314C11.9536 25.5314 12.0262 25.5264 12.0998 25.5155L13.6398 25.287C14.4024 25.1743 14.9501 24.4799 14.8883 23.7054L14.743 21.9002C14.6694 20.9852 14.2738 20.1227 13.629 19.4738ZM13.5259 24.5046L11.986 24.733C11.8005 24.7607 11.6149 24.7113 11.4667 24.5936C11.3185 24.4759 11.2273 24.3077 11.2096 24.1178L11.1468 23.4501C11.1065 23.0189 10.9161 22.6123 10.6129 22.3067L8.65477 20.3333C8.02563 19.6993 7.71449 18.8239 7.80185 17.9307L8.12279 14.6398C8.13653 14.4994 8.20524 14.3757 8.31615 14.2897C8.40448 14.2214 8.51048 14.1848 8.61942 14.1848C8.6469 14.1848 8.67438 14.1868 8.70186 14.1917C8.95999 14.2343 9.14353 14.4736 9.11901 14.7367L8.9394 16.6537C8.86971 17.3956 9.12981 18.1236 9.65293 18.6508L11.1055 20.1147C11.2586 20.269 11.507 20.269 11.661 20.1147C11.8142 19.9604 11.8142 19.7101 11.661 19.5549L10.5039 18.3887C10.3802 18.2571 10.3831 18.0494 10.5097 17.9208C10.6393 17.7902 10.8503 17.7902 10.9809 17.9208L13.0754 20.0316C13.5887 20.5489 13.9028 21.2344 13.9616 21.9634L14.1069 23.7686C14.1344 24.1296 13.8793 24.4521 13.5259 24.5046Z" fill="#3A3A47"/>
</svg>
