<svg width="16" height="16" viewBox="0 0 16 16" fill="none" xmlns="http://www.w3.org/2000/svg">
<path d="M11.4804 5.51518L8.13205 0.88764C8.10205 0.846133 8.05733 0.827265 8.01168 0.825379V0.824813C8.0079 0.824435 8.00394 0.82519 8.00017 0.82519C7.99621 0.82519 7.99243 0.824624 7.98847 0.824813V0.825379C7.94281 0.827265 7.8981 0.846321 7.8681 0.88764L4.51975 5.51518C4.51975 5.51518 1.44685 9.41068 3.69714 12.6866C5.29066 15.0325 7.99753 14.9999 7.99753 14.9999C7.99753 14.9999 7.9996 14.9999 7.99998 14.9999C8.00036 14.9999 8.00243 14.9999 8.00243 14.9999C8.00243 14.9999 10.7091 15.0325 12.3028 12.6866C14.5533 9.41068 11.4802 5.51518 11.4802 5.51518H11.4804Z" fill="#FFF1B6"/>
<path d="M6.41706 5.14995C6.41706 5.14995 7.23854 3.77661 8.59886 3.77661C9.95918 3.77661 10.5112 5.22693 10.4984 5.75313C10.4856 6.27934 10.2546 7.49853 11.2042 8.08888C12.154 8.67924 12.5004 9.75127 12.1925 11.1276C11.8844 12.504 10.7678 13.736 9.2277 14.0439C7.68758 14.352 5.59559 13.9926 4.53035 12.7477C3.94641 12.0653 3.68265 11.1246 3.69869 10.1811C3.71831 9.02413 4.24149 7.93116 5.09901 7.15421C5.41465 6.86818 5.54389 6.72913 6.41706 5.14976V5.14995Z" fill="#8383ED"/>
<path d="M9.93013 5.34985C9.93013 5.34985 10.0969 5.36948 10.092 5.56079C10.0871 5.7521 10.0492 6.23189 9.88598 6.42434C9.81277 6.4949 9.7424 6.56244 9.69429 6.60886C9.65372 6.64772 9.63089 6.70149 9.63089 6.75772V7.28789C9.63089 7.37996 9.55618 7.45467 9.46411 7.45467H9.33166C9.33166 7.45467 9.25317 7.46448 9.21393 7.58221C9.17469 7.69994 8.97847 7.73919 8.97847 7.73919C8.97847 7.73919 8.87055 7.749 8.88527 7.93541C8.89998 8.12181 8.7381 8.24935 8.4683 8.18558C8.1985 8.12181 7.77154 7.81767 7.77154 7.81767C7.77154 7.81767 7.53117 7.7539 7.65381 7.95993C7.77644 8.16596 8.37019 8.42595 8.65471 8.5733C8.93923 8.72047 9.35147 9.00989 9.41034 9.22592C9.41034 9.22592 8.68414 9.96683 9.08658 10.6732C9.08658 10.6732 8.55679 11.0951 7.93851 10.6732C7.32024 10.2513 7.19269 9.99362 6.62857 9.13517C6.07293 8.28973 5.8986 8.28049 5.65521 8.04087C5.65163 8.03559 5.65389 8.02823 5.66012 8.02729C5.77181 8.01238 6.54121 7.84315 6.94233 6.93469C7.33476 5.92398 7.35929 6.01228 7.66362 6.02209C7.96776 6.0319 8.45849 6.30906 9.37091 5.73267L9.93013 5.35004V5.34985Z" fill="#FFCDBB"/>
<path d="M9.53611 9.4862C9.53611 9.4862 9.61328 9.08943 10.2527 8.87434C10.8921 8.65945 11.4102 9.0949 11.5094 9.43658C11.6087 9.77827 11.6128 10.0726 11.3815 10.3479C11.1502 10.6231 10.963 10.8986 10.2085 10.9041C9.45404 10.9095 9.20066 10.4414 9.20066 10.4414C9.20066 10.4414 9.01897 10.1058 9.26669 9.86053C9.51461 9.61526 9.5363 9.48602 9.5363 9.48602L9.53611 9.4862Z" fill="#FFCDBB"/>
<path d="M8.91386 11.0924C8.91386 11.0924 10.0738 10.7779 10.4659 11.2354C10.4659 11.2354 10.5312 11.3824 10.38 11.5418C10.2289 11.701 10.0982 11.7788 10.0165 11.8031C9.93476 11.8276 9.1997 11.8154 8.86066 12.0563C8.52161 12.2972 8.11333 12.6893 7.20657 12.4974C6.29982 12.3055 5.59325 11.3701 5.63004 10.6841C5.63004 10.6841 6.39378 12.6608 7.97447 12.2851C7.97447 12.2851 7.46392 12.228 7.69674 11.9054C7.92956 11.5827 8.55444 11.1946 8.91386 11.0926V11.0924Z" fill="#FFCDBB"/>
<path d="M10.4409 12.0119C10.4409 12.0119 10.4462 12.0187 10.4451 12.033C10.439 12.11 10.3951 12.3775 10.1481 12.6507C9.91357 12.9103 9.50925 12.9484 9.50925 12.9484C9.50925 12.9484 9.14907 12.9677 9.08172 12.862C9.01455 12.7564 9.50151 12.7992 9.82338 12.5351C10.1453 12.2709 10.3594 11.9351 10.4411 12.0119H10.4409Z" fill="#FFCDBB"/>
<path d="M4.11818 12.653C1.7162 9.15635 4.99607 4.9986 4.99607 4.9986L8.015 0.826322C8.01368 0.826322 8.01254 0.825567 8.01141 0.825379V0.824813C8.00764 0.824435 8.00368 0.82519 7.9999 0.82519C7.99594 0.82519 7.99217 0.824624 7.98839 0.824813V0.825379C7.94255 0.827265 7.89802 0.846321 7.86802 0.88764L4.51967 5.51518C4.51967 5.51518 1.44678 9.41068 3.69725 12.6866C4.90022 14.4575 6.73675 14.8727 7.5652 14.9701C6.57034 14.7369 5.13323 14.1469 4.11837 12.6532L4.11818 12.653Z" fill="#FFEB99"/>
</svg>
