<svg width="36" height="36" viewBox="0 0 36 36" fill="none" xmlns="http://www.w3.org/2000/svg">
<path d="M22.1951 17.9247C22.1082 17.2544 21.3479 16.7289 19.7301 16.2221C15.4921 14.8918 9.33536 5.97219 9.27445 5.88216C9.21342 5.78803 9.11722 5.72183 9.00758 5.7001C8.89793 5.67735 8.78415 5.70114 8.69209 5.76424C8.59899 5.82734 8.53693 5.9256 8.51727 6.03524C8.49865 6.14592 8.52555 6.25971 8.59175 6.3497C8.85035 6.72623 14.972 15.5952 19.483 17.0103C21.2663 17.5699 21.3687 17.9847 21.3749 18.0302C21.4049 18.2578 20.7584 18.6643 20.4832 18.837C20.1429 19.0512 19.9174 19.1929 19.8295 19.4122C19.8171 19.4432 19.7943 19.5156 19.7633 19.6242C18.6109 23.5622 16.5297 25.3817 14.9885 26.2155C12.8339 27.3803 10.1662 27.4909 7.05892 26.5465H7.05788C6.83859 26.4803 6.60792 26.6034 6.54172 26.8227C6.47448 27.041 6.59861 27.2727 6.81688 27.3389C8.1585 27.7651 9.55604 27.9916 10.9627 28.0092C12.5019 28.0309 14.0215 27.6647 15.3818 26.9438C17.0627 26.0335 19.325 24.0693 20.558 19.857C20.5693 19.8198 20.5786 19.7877 20.5849 19.7639C20.6531 19.7091 20.8072 19.6118 20.9241 19.5384C21.5013 19.1743 22.2926 18.6768 22.1954 17.9247L22.1951 17.9247Z" fill="#3A3A47"/>
<path d="M17.2105 16.7954C17.1091 16.755 16.9953 16.7561 16.894 16.7995C16.7936 16.843 16.714 16.9247 16.6726 17.0271C16.3416 17.8608 16.1161 19.7413 17.6553 20.8956C17.8384 21.0322 18.097 20.9949 18.2346 20.8129C18.3721 20.6298 18.3349 20.3702 18.1518 20.2336C16.7409 19.1754 17.4112 17.4097 17.4422 17.3321C17.526 17.1201 17.4226 16.8802 17.2105 16.7954Z" fill="#3A3A47"/>
<path d="M26.2959 14.2426C25.9866 14.6874 23.2712 18.6368 23.2712 20.3477C23.2919 22.191 24.7918 23.6742 26.6351 23.6742C28.4794 23.6742 29.9793 22.1909 30 20.3477C30 18.6378 27.2846 14.6875 26.9754 14.2426C26.8936 14.1381 26.7685 14.076 26.635 14.076C26.5026 14.076 26.3765 14.1381 26.2959 14.2426ZM26.6351 22.884C25.2356 22.882 24.1009 21.7482 24.0988 20.3477C24.0988 19.2667 25.7042 16.6219 26.6351 15.2171C27.5661 16.6218 29.1715 19.2667 29.1715 20.3477H29.1725C29.1704 21.7483 28.0357 22.883 26.6351 22.884Z" fill="#3A3A47"/>
<path d="M26.2214 21.6602C26.2214 21.7699 26.2649 21.8754 26.3425 21.953C26.42 22.0306 26.5256 22.074 26.6352 22.074C27.5879 22.073 28.3595 21.3013 28.3616 20.3497C28.3616 20.1211 28.1765 19.9359 27.9479 19.9359C27.7192 19.9359 27.5341 20.1211 27.5341 20.3497C27.5341 20.8462 27.1317 21.2475 26.6352 21.2486C26.4076 21.2486 26.2225 21.4327 26.2214 21.6602Z" fill="#3A3A47"/>
<path d="M23.1358 24.84C22.842 25.262 21.3763 27.4198 21.3763 28.4295H21.3752C21.3918 29.5766 22.3269 30.4993 23.4751 30.4993C24.6233 30.4993 25.5584 29.5766 25.5739 28.4295C25.5739 27.4199 24.1081 25.2632 23.8144 24.84C23.7327 24.7355 23.6075 24.6735 23.4751 24.6735C23.3417 24.6735 23.2165 24.7355 23.1358 24.84ZM23.4751 29.7005C22.7727 29.6995 22.2038 29.1306 22.2027 28.4292C22.2027 27.9658 22.8648 26.7638 23.4751 25.8225C24.0833 26.7659 24.7463 27.9679 24.7463 28.4292C24.7463 29.1306 24.1774 29.6995 23.4751 29.7005Z" fill="#3A3A47"/>
</svg>
