<svg width="49" height="48" viewBox="0 0 49 48" fill="none" xmlns="http://www.w3.org/2000/svg">
<path d="M17.4101 27.6538C17.4101 26.91 16.7826 26.2826 16.0389 26.2826C15.2952 26.2826 14.6677 26.91 14.6677 27.6538C14.6677 28.3975 15.2952 29.0249 16.0389 29.0249C16.8224 29.0249 17.4101 28.399 17.4101 27.6538Z" fill="#3A3A47"/>
<path d="M34.3353 27.6538C34.3353 26.91 33.7079 26.2826 32.9642 26.2826C32.2205 26.2826 31.593 26.91 31.593 27.6538C31.593 28.3975 32.2205 29.0249 32.9642 29.0249C33.7079 29.0249 34.3353 28.399 34.3353 27.6538Z" fill="#3A3A47"/>
<path d="M13.6103 14.9616C13.6884 14.6876 13.5323 14.4137 13.2583 14.3341C12.9844 14.2561 12.7105 14.4122 12.6309 14.6861C12.0433 16.6847 11.1817 19.2693 9.84876 21.5819C9.02543 23.0311 8.67348 24.716 8.82955 26.4009C9.18153 30.1227 12.1595 33.1788 15.8813 33.6086C16.195 33.6484 16.5469 33.6866 16.8607 33.6866C18.8593 33.6866 20.7783 32.9811 22.2674 31.6498C23.2866 30.7484 24.0303 29.6129 24.5001 28.3978C24.9699 29.6512 25.7152 30.7484 26.7328 31.6498C28.2218 32.9811 30.1408 33.6866 32.1395 33.6866C32.4532 33.6866 32.8052 33.6468 33.1189 33.6086C36.8407 33.1388 39.7789 30.1225 40.1706 26.4009C40.3267 24.716 39.9748 23.0312 39.1514 21.5819C37.8201 19.2711 36.9967 16.6849 36.3693 14.6861C36.2913 14.4122 36.0173 14.2545 35.7419 14.3341C35.4679 14.4122 35.3103 14.6861 35.3899 14.9616C35.9775 16.9984 36.8789 19.6627 38.2501 22.0912C38.9938 23.3446 39.2693 24.8336 39.1514 26.3226C38.801 29.5348 36.2147 32.1991 32.9643 32.5908C30.8877 32.8648 28.9288 32.2389 27.3617 30.8677C25.8345 29.5363 24.9714 27.6158 24.9714 25.5789C24.9714 25.305 24.7357 25.0693 24.4618 25.0693C24.1878 25.0693 23.9522 25.305 23.9522 25.5789C23.9522 27.5775 23.0906 29.5365 21.5618 30.8677C20.0345 32.2389 18.0359 32.8663 15.9592 32.5908C12.7073 32.1991 10.1227 29.5348 9.80894 26.2827C9.65285 24.7937 9.96504 23.3445 10.7103 22.0513C12.161 19.6624 13.0226 16.9983 13.6102 14.9612L13.6103 14.9616Z" fill="#3A3A47"/>
</svg>
