<svg width="49" height="48" viewBox="0 0 49 48" fill="none" xmlns="http://www.w3.org/2000/svg">
<path d="M34.3089 23.8507L36.0956 22.064C36.675 21.4847 36.671 20.5378 36.0868 19.9536L35.7336 19.6004L35.7931 19.5409C36.5255 18.8085 36.927 17.832 36.9226 16.7916C36.9194 16.0171 37.2181 15.2903 37.7638 14.7446L38.8742 13.6342C39.8398 12.6686 39.8332 11.0907 38.8595 10.1169C37.8857 9.14311 36.3078 9.13651 35.3421 10.1022L34.2318 11.2125C33.6861 11.7582 32.9596 12.0566 32.1848 12.0537C31.1443 12.0494 30.1682 12.4505 29.4355 13.1832L29.3759 13.2428L29.0227 12.8896C28.4385 12.3054 27.4916 12.3014 26.9123 12.8807L25.1256 14.6674C24.1578 14.0253 22.8428 14.1246 21.9969 14.9705L6.58541 30.382C5.61974 31.3477 5.62635 32.9255 6.60013 33.8993L15.077 42.3762C16.0508 43.35 17.6287 43.3566 18.5944 42.3909L34.0058 26.9795C34.8514 26.1339 34.951 24.8185 34.3089 23.8507ZM30.1419 13.8896C30.6872 13.3443 31.4141 13.0455 32.1889 13.0484C33.229 13.0531 34.2055 12.6517 34.9382 11.9189L36.0485 10.8086C36.6279 10.2293 37.5747 10.2332 38.1589 10.8174C38.7431 11.4016 38.7471 12.3485 38.1678 12.9278L37.0574 14.0381C36.3247 14.7709 35.9236 15.747 35.9279 16.7874C35.9312 17.562 35.6324 18.2888 35.0867 18.8345L35.0272 18.894L30.0823 13.9492L30.1419 13.8896ZM27.6187 13.5871C27.8117 13.3941 28.1276 13.3955 28.3222 13.5901L35.3863 20.6542C35.5809 20.8488 35.5822 21.1646 35.3892 21.3576L33.6379 23.1089L25.8674 15.3384L27.6187 13.5871ZM17.8879 41.6845C17.3086 42.2639 16.3618 42.2599 15.7776 41.6757L7.30065 33.1988C6.71645 32.6146 6.71249 31.6677 7.29182 31.0884L22.7033 15.6769C23.2826 15.0976 24.2295 15.1016 24.8137 15.6858L33.2906 24.1627C33.8748 24.7469 33.8788 25.6937 33.2994 26.2731L30.1471 29.4254L28.3811 27.6594C28.1861 27.4644 27.8709 27.4631 27.6776 27.6564C27.4842 27.8498 27.4856 28.1649 27.6805 28.3599L29.4466 30.1259L25.9439 33.6285L24.1779 31.8625C23.983 31.6675 23.6678 31.6662 23.4745 31.8596C23.2811 32.0529 23.2824 32.3681 23.4774 32.563L25.2434 34.3291L21.7408 37.8317L19.9748 36.0656C19.7798 35.8707 19.4647 35.8694 19.2713 36.0627C19.078 36.256 19.0793 36.5712 19.2743 36.7662L21.0403 38.5322L17.8879 41.6845Z" fill="#3A3A47"/>
</svg>
