<svg width="36" height="36" viewBox="0 0 36 36" fill="none" xmlns="http://www.w3.org/2000/svg">
<path d="M29.0639 16.6191H16.8407C16.8359 16.6191 16.8323 16.6179 16.8275 16.6179H16.6592C16.521 13.8259 14.2759 11.5956 11.5283 11.5956C8.78203 11.5956 6.53805 13.826 6.39991 16.6179H6.22924C5.97084 16.6179 5.76172 16.8331 5.76172 17.0991V18.659C5.76172 21.9323 8.34937 24.5956 11.5295 24.5956C13.9296 24.5956 16.0425 23.0913 16.897 20.8201L29.0346 21.0662H29.0635C29.5118 21.0662 29.9336 20.8881 30.2533 20.564C30.5815 20.2325 30.7617 19.7896 30.7617 19.3158V18.3695C30.7617 17.4046 30.0009 16.6191 29.0647 16.6191L29.0639 16.6191ZM11.5286 12.5592C13.7689 12.5592 15.6004 14.3703 15.7244 16.6429H11.835C11.1403 16.6429 10.5754 17.223 10.5754 17.9368V19.5685C10.5754 19.7243 10.5154 19.8691 10.406 19.9755C10.2978 20.0806 10.1596 20.1338 10.0046 20.1252C9.72331 20.1103 9.49497 19.8357 9.49497 19.5103V17.9368C9.49497 17.223 8.9301 16.6429 8.23539 16.6429H7.33278C7.45778 14.3704 9.28824 12.5592 11.5262 12.5592L11.5286 12.5592ZM11.5286 23.6334C8.86401 23.6334 6.69708 21.403 6.69708 18.6605V17.5818H6.70669C6.7115 17.583 6.71751 17.583 6.72232 17.5843C6.76438 17.5979 6.80885 17.6065 6.85572 17.6065H8.23788C8.41576 17.6065 8.56119 17.755 8.56119 17.9368V19.5104C8.56119 20.354 9.17535 21.0468 9.95778 21.0864C10.364 21.1111 10.7546 20.9627 11.0503 20.6744C11.3436 20.3887 11.5118 19.9854 11.5118 19.5685V17.9369C11.5118 17.755 11.6572 17.6066 11.8351 17.6066H16.2039C16.2532 17.6066 16.3 17.5967 16.3445 17.5818H16.3589V18.6605C16.3589 19.1776 16.2796 19.691 16.1245 20.187C15.4852 22.2479 13.6379 23.6335 11.5275 23.6335L11.5286 23.6334ZM29.8248 19.3173C29.8248 19.53 29.743 19.7292 29.5964 19.8789C29.4522 20.0249 29.2623 20.1053 29.0628 20.1053H29.0496L17.1703 19.8653C17.2509 19.4694 17.2953 19.0674 17.2953 18.6629V17.5854H29.0641C29.4835 17.5854 29.8249 17.938 29.8249 18.3722V19.3185L29.8248 19.3173Z" fill="#3A3A47"/>
</svg>
