<svg width="25" height="24" viewBox="0 0 25 24" fill="none" xmlns="http://www.w3.org/2000/svg">
<path d="M21.5103 5H15.796C15.0383 5 14.3116 5.29847 13.7757 5.82975C13.2399 6.36103 12.9389 7.0816 12.9389 7.83294V15.5996C12.9414 15.7824 12.874 15.9593 12.7502 16.0948C12.6265 16.2303 12.4556 16.3144 12.2719 16.33C12.1742 16.3364 12.0762 16.3229 11.984 16.2902C11.8918 16.2575 11.8074 16.2063 11.736 16.1399C11.6646 16.0735 11.6077 15.9932 11.5688 15.9041C11.53 15.815 11.5101 15.7189 11.5103 15.6218V7.83294C11.5103 7.0816 11.2093 6.36103 10.6735 5.82975C10.1377 5.29847 9.41094 5 8.65318 5H2.9389C2.74945 5 2.56777 5.07462 2.43382 5.20744C2.29986 5.34026 2.22461 5.5204 2.22461 5.70824V18.4565C2.22461 18.6443 2.29986 18.8245 2.43382 18.9573C2.56777 19.0901 2.74945 19.1647 2.9389 19.1647H9.36747C9.93486 19.1647 10.4791 19.3878 10.8808 19.7852C11.2825 20.1825 11.5089 20.7215 11.5103 21.2841C11.5075 21.4287 11.5499 21.5706 11.6318 21.6903C11.7136 21.8101 11.8309 21.9016 11.9675 21.9525C12.0759 21.994 12.1928 22.0086 12.3082 21.9951C12.4236 21.9816 12.5339 21.9405 12.6296 21.8751C12.7253 21.8098 12.8035 21.7223 12.8574 21.6203C12.9113 21.5182 12.9393 21.4046 12.9389 21.2894C12.9389 20.7259 13.1647 20.1855 13.5665 19.787C13.9684 19.3886 14.5134 19.1647 15.0818 19.1647H21.5103C21.6998 19.1647 21.8814 19.0901 22.0154 18.9573C22.1494 18.8245 22.2246 18.6443 22.2246 18.4565V5.70824C22.2246 5.5204 22.1494 5.34026 22.0154 5.20744C21.8814 5.07462 21.6998 5 21.5103 5ZM19.3675 15.6235H15.8201C15.6358 15.626 15.4574 15.5592 15.3207 15.4365C15.1841 15.3138 15.0993 15.1443 15.0835 14.9622C15.0771 14.8653 15.0907 14.7682 15.1237 14.6768C15.1567 14.5853 15.2083 14.5016 15.2753 14.4308C15.3422 14.36 15.4232 14.3036 15.5131 14.2651C15.603 14.2266 15.6999 14.2069 15.7978 14.2071H19.3451C19.5295 14.2046 19.7079 14.2714 19.8446 14.3941C19.9812 14.5168 20.066 14.6863 20.0818 14.8684C20.0882 14.9653 20.0746 15.0624 20.0416 15.1538C20.0086 15.2453 19.957 15.329 19.89 15.3998C19.8231 15.4706 19.7421 15.527 19.6522 15.5655C19.5623 15.604 19.4654 15.6238 19.3675 15.6235ZM19.3675 12.7906H15.8201C15.6358 12.7931 15.4574 12.7262 15.3207 12.6035C15.1841 12.4808 15.0993 12.3114 15.0835 12.1293C15.0771 12.0324 15.0907 11.9352 15.1237 11.8438C15.1567 11.7524 15.2083 11.6687 15.2753 11.5979C15.3422 11.527 15.4232 11.4706 15.5131 11.4322C15.603 11.3937 15.6999 11.3739 15.7978 11.3741H19.3451C19.5295 11.3717 19.7079 11.4385 19.8446 11.5612C19.9812 11.6839 20.066 11.8533 20.0818 12.0354C20.0882 12.1323 20.0746 12.2295 20.0416 12.3209C20.0086 12.4123 19.957 12.496 19.89 12.5669C19.8231 12.6377 19.7421 12.6941 19.6522 12.7326C19.5623 12.7711 19.4654 12.7908 19.3675 12.7906ZM19.3675 9.95765H15.8201C15.6355 9.96056 15.4566 9.89393 15.3196 9.7712C15.1825 9.64847 15.0976 9.47877 15.0818 9.29634C15.0753 9.19946 15.0889 9.10229 15.1219 9.01088C15.1549 8.91946 15.2065 8.83574 15.2735 8.76492C15.3405 8.6941 15.4214 8.6377 15.5113 8.59921C15.6012 8.56072 15.6981 8.54097 15.796 8.54118H19.3434C19.528 8.53827 19.7069 8.6049 19.8439 8.72763C19.981 8.85037 20.066 9.02007 20.0818 9.2025C20.0882 9.29937 20.0746 9.39654 20.0416 9.48796C20.0086 9.57937 19.957 9.66309 19.89 9.73391C19.8231 9.80473 19.7421 9.86113 19.6522 9.89962C19.5623 9.93811 19.4654 9.95787 19.3675 9.95765Z" fill="#94A3B8"/>
</svg>
