<svg width="18" height="18" viewBox="0 0 18 18" fill="none" xmlns="http://www.w3.org/2000/svg">
<path d="M9 16.6029C13.4183 16.6029 17 13.0212 17 8.60291C17 4.18463 13.4183 0.602905 9 0.602905C4.58172 0.602905 1 4.18463 1 8.60291C1 13.0212 4.58172 16.6029 9 16.6029Z" stroke="#FF6887" stroke-linecap="round" stroke-linejoin="round"/>
<path fill-rule="evenodd" clip-rule="evenodd" d="M8.99726 6.25723C8.19752 5.32227 6.8639 5.07076 5.86188 5.92691C4.85986 6.78306 4.71879 8.2145 5.50568 9.22707C6.00969 9.87562 7.30047 11.0783 8.16339 11.8592C8.45015 12.1187 8.59353 12.2484 8.76527 12.3005C8.9129 12.3452 9.08162 12.3452 9.22925 12.3005C9.40099 12.2484 9.54437 12.1187 9.83113 11.8592C10.6941 11.0783 11.9848 9.87562 12.4888 9.22707C13.2757 8.2145 13.1519 6.77405 12.1326 5.92691C11.1134 5.07977 9.797 5.32227 8.99726 6.25723Z" stroke="#FF6887" stroke-linecap="round" stroke-linejoin="round"/>
</svg>
