<svg width="129" height="212" viewBox="0 0 129 212" fill="none" xmlns="http://www.w3.org/2000/svg">
<path d="M103.535 53.1146L65.9807 1.21329C65.6442 0.74775 65.1427 0.53614 64.6306 0.51498V0.508632C64.5883 0.504399 64.5439 0.512861 64.5015 0.512861C64.4571 0.512861 64.4148 0.506515 64.3703 0.508632V0.51498C63.8582 0.53614 63.3567 0.749866 63.0203 1.21329L25.466 53.1146C25.466 53.1146 -8.99872 96.8055 16.2399 133.547C34.1124 159.859 64.4719 159.493 64.4719 159.493C64.4719 159.493 64.4952 159.493 64.4994 159.493C64.5037 159.493 64.5269 159.493 64.5269 159.493C64.5269 159.493 94.8844 159.859 112.759 133.547C138 96.8055 103.533 53.1146 103.533 53.1146H103.535Z" fill="#FFF1B6"/>
<path d="M46.7457 49.0202C46.7457 49.0202 55.9591 33.6172 71.2161 33.6172C86.4731 33.6172 92.6648 49.8836 92.5209 55.7853C92.377 61.6871 89.7869 75.3613 100.437 81.9825C111.09 88.6038 114.975 100.627 111.521 116.064C108.066 131.501 95.5427 145.319 78.2691 148.773C60.9954 152.228 37.5322 148.197 25.5848 134.235C19.0355 126.581 16.0772 116.03 16.257 105.448C16.4771 92.472 22.345 80.2135 31.9627 71.4994C35.5029 68.2914 36.9524 66.7319 46.7457 49.0181V49.0202Z" fill="#8383ED"/>
<path d="M86.147 51.259C86.147 51.259 88.0176 51.4791 87.9626 53.6248C87.9075 55.7705 87.4822 61.1517 85.6518 63.3102C84.8307 64.1016 84.0415 64.8591 83.5019 65.3797C83.0469 65.8156 82.7908 66.4187 82.7908 67.0493V72.9955C82.7908 74.0282 81.9529 74.8661 80.9202 74.8661H79.4347C79.4347 74.8661 78.5544 74.9762 78.1143 76.2966C77.6741 77.617 75.4734 78.0572 75.4734 78.0572C75.4734 78.0572 74.263 78.1672 74.4281 80.2579C74.5931 82.3486 72.7775 83.7791 69.7515 83.0639C66.7255 82.3486 61.9368 78.9375 61.9368 78.9375C61.9368 78.9375 59.2409 78.2222 60.6163 80.533C61.9918 82.8438 68.6511 85.7597 71.8422 87.4124C75.0333 89.063 79.6569 92.3091 80.3171 94.732C80.3171 94.732 72.1723 103.042 76.6859 110.964C76.6859 110.964 70.7439 115.696 63.8095 110.964C56.8751 106.233 55.4446 103.342 49.1175 93.7141C42.8856 84.2319 40.9304 84.1283 38.2006 81.4408C38.1604 81.3816 38.1858 81.299 38.2556 81.2885C39.5083 81.1213 48.1378 79.2232 52.6366 69.0342C57.038 57.6983 57.3131 58.6886 60.7264 58.7987C64.1375 58.9087 69.6415 62.0172 79.8749 55.5526L86.147 51.2611V51.259Z" fill="#FFCDBB"/>
<path d="M81.7284 97.6541C81.7284 97.6541 82.5939 93.204 89.7653 90.7916C96.9367 88.3814 102.748 93.2653 103.861 97.0976C104.974 100.93 105.02 104.231 102.426 107.318C99.8316 110.406 97.7324 113.495 89.2702 113.557C80.8079 113.618 77.966 108.368 77.966 108.368C77.966 108.368 75.9282 104.603 78.7066 101.852C81.4872 99.1015 81.7305 97.652 81.7305 97.652L81.7284 97.6541Z" fill="#FFCDBB"/>
<path d="M74.7484 115.669C74.7484 115.669 87.7581 112.141 92.1554 117.273C92.1554 117.273 92.8875 118.921 91.1925 120.709C89.4976 122.495 88.0311 123.367 87.1148 123.64C86.1986 123.915 77.9543 123.778 74.1517 126.48C70.3491 129.182 65.7698 133.579 55.5999 131.427C45.43 129.275 37.5052 118.784 37.9179 111.089C37.9179 111.089 46.4838 133.26 64.2124 129.047C64.2124 129.047 58.4863 128.405 61.0975 124.787C63.7088 121.168 70.7173 116.816 74.7484 115.671V115.669Z" fill="#FFCDBB"/>
<path d="M91.8755 125.98C91.8755 125.98 91.9347 126.057 91.9221 126.217C91.8543 127.081 91.3613 130.081 88.5913 133.145C85.961 136.057 81.4262 136.485 81.4262 136.485C81.4262 136.485 77.3866 136.7 76.6312 135.515C75.8779 134.33 81.3395 134.811 84.9495 131.848C88.5596 128.886 90.9613 125.119 91.8776 125.98H91.8755Z" fill="#FFCDBB"/>
<path d="M20.9622 133.171C-5.97777 93.953 30.8083 47.3208 30.8083 47.3208L64.6679 0.525561C64.653 0.525561 64.6404 0.517096 64.6277 0.51498V0.508632C64.5853 0.504399 64.5409 0.512861 64.4986 0.512861C64.4541 0.512861 64.4118 0.506515 64.3695 0.508632V0.51498C63.8553 0.53614 63.3559 0.749866 63.0194 1.21329L25.4652 53.1146C25.4652 53.1146 -8.99955 96.8055 16.2412 133.547C29.7333 153.409 50.3314 158.066 59.6231 159.158C48.465 156.543 32.3467 149.926 20.9643 133.173L20.9622 133.171Z" fill="#FFEB99"/>
<path d="M7.78573 201L4.46532 207.329V211.361H3.4281V207.329L0.0786133 201H1.24928L3.94605 206.381L6.62828 201H7.78441H7.78573Z" fill="#8383ED"/>
<path d="M10.7862 210.967C10.1784 210.626 9.69878 210.142 9.34864 209.515C8.99717 208.887 8.82275 208.154 8.82275 207.314C8.82275 206.473 9.00113 205.74 9.35656 205.112C9.71199 204.485 10.1969 204.001 10.8087 203.66C11.4217 203.319 12.1075 203.149 12.8686 203.149C13.6296 203.149 14.318 203.319 14.9364 203.66C15.5534 204.001 16.0384 204.485 16.3885 205.112C16.7386 205.74 16.9144 206.473 16.9144 207.314C16.9144 208.154 16.736 208.875 16.3806 209.507C16.0251 210.14 15.5363 210.626 14.9139 210.967C14.2916 211.308 13.5992 211.478 12.8395 211.478C12.0798 211.478 11.394 211.308 10.7862 210.967ZM14.3207 210.211C14.7752 209.969 15.1438 209.603 15.4253 209.114C15.7067 208.626 15.8481 208.024 15.8481 207.314C15.8481 206.603 15.7094 206.001 15.4332 205.513C15.157 205.024 14.7911 204.658 14.3365 204.416C13.882 204.174 13.3878 204.053 12.854 204.053C12.3202 204.053 11.8261 204.174 11.3715 204.416C10.917 204.658 10.5536 205.024 10.2828 205.513C10.0106 206.001 9.87583 206.603 9.87583 207.314C9.87583 208.024 10.0119 208.626 10.2828 209.114C10.555 209.603 10.9144 209.969 11.3649 210.211C11.8142 210.453 12.3057 210.574 12.8395 210.574C13.3733 210.574 13.8675 210.454 14.322 210.211H14.3207Z" fill="#8383ED"/>
<path d="M25.8222 203.268V211.359H24.785V209.936C24.5485 210.44 24.1825 210.825 23.6883 211.092C23.1942 211.359 22.6406 211.493 22.0288 211.493C21.0603 211.493 20.2701 211.194 19.6571 210.596C19.044 209.998 18.7388 209.13 18.7388 207.994V203.266H19.7615V207.875C19.7615 208.755 19.9808 209.426 20.4208 209.89C20.8608 210.355 21.4606 210.586 22.2217 210.586C22.9828 210.586 23.6249 210.339 24.0887 209.845C24.5525 209.351 24.785 208.626 24.785 207.666V203.265H25.8222V203.268Z" fill="#8383ED"/>
<path d="M30.2762 203.535C30.7453 203.258 31.3213 203.12 32.0031 203.12V204.202H31.7217C30.9712 204.202 30.3674 204.404 29.9129 204.81C29.4583 205.215 29.2311 205.892 29.2311 206.84V211.361H28.1938V203.269H29.2311V204.707C29.4583 204.203 29.8072 203.812 30.2762 203.536V203.535Z" fill="#8383ED"/>
<path d="M39.879 203.683C40.4366 203.327 41.0973 203.149 41.857 203.149C42.6168 203.149 43.2602 203.319 43.8429 203.66C44.4256 204.001 44.8828 204.485 45.2144 205.112C45.5448 205.74 45.7112 206.468 45.7112 207.298C45.7112 208.127 45.5461 208.859 45.2144 209.491C44.8828 210.124 44.4243 210.613 43.8363 210.958C43.2484 211.304 42.589 211.477 41.8583 211.477C41.088 211.477 40.4234 211.301 39.8645 210.951C39.3056 210.601 38.8986 210.144 38.6423 209.58V211.358H37.6196V200.391H38.6423V205.059C38.9092 204.496 39.3215 204.037 39.8804 203.681L39.879 203.683ZM44.2671 205.557C44.0055 205.069 43.6474 204.696 43.1929 204.438C42.7383 204.182 42.2243 204.053 41.6509 204.053C41.0775 204.053 40.5912 204.186 40.1314 204.453C39.6716 204.72 39.3082 205.1 39.0413 205.594C38.7744 206.089 38.641 206.662 38.641 207.313C38.641 207.965 38.7744 208.538 39.0413 209.033C39.3082 209.527 39.6716 209.907 40.1314 210.174C40.5912 210.441 41.0973 210.574 41.6509 210.574C42.2045 210.574 42.7383 210.444 43.1929 210.182C43.6474 209.92 44.0055 209.54 44.2671 209.04C44.5287 208.542 44.6595 207.961 44.6595 207.299C44.6595 206.637 44.5287 206.046 44.2671 205.557Z" fill="#8383ED"/>
<path d="M49.7066 203.535C50.1756 203.258 50.7517 203.12 51.4335 203.12V204.202H51.1521C50.4016 204.202 49.7978 204.404 49.3446 204.81C48.89 205.215 48.6628 205.892 48.6628 206.84V211.361H47.6255V203.269H48.6628V204.707C48.89 204.203 49.2389 203.812 49.7079 203.536L49.7066 203.535Z" fill="#8383ED"/>
<path d="M60.2814 207.714H53.5679C53.5969 208.327 53.7462 208.85 54.0132 209.285C54.2801 209.72 54.6302 210.049 55.0649 210.271C55.4996 210.492 55.974 210.603 56.4879 210.603C57.1592 210.603 57.726 210.441 58.1845 210.115C58.6443 209.788 58.9482 209.35 59.0962 208.796H60.1928C59.9946 209.586 59.5732 210.231 58.9257 210.73C58.2783 211.23 57.4657 211.479 56.4879 211.479C55.7269 211.479 55.0451 211.309 54.4426 210.968C53.8401 210.627 53.3683 210.144 53.0275 209.516C52.6866 208.888 52.5161 208.155 52.5161 207.315C52.5161 206.474 52.6839 205.738 53.0195 205.107C53.3551 204.474 53.8242 203.99 54.428 203.655C55.0306 203.319 55.7176 203.151 56.4879 203.151C57.2583 203.151 57.9334 203.319 58.5108 203.655C59.0896 203.99 59.5335 204.442 59.8454 205.01C60.1572 205.579 60.3118 206.209 60.3118 206.9C60.3118 207.255 60.3012 207.528 60.2827 207.715L60.2814 207.714ZM58.8967 205.328C58.6443 204.903 58.3007 204.581 57.866 204.364C57.4313 204.148 56.957 204.038 56.443 204.038C55.6727 204.038 55.0147 204.285 54.4716 204.779C53.9286 205.273 53.6273 205.97 53.5679 206.869H59.2587C59.2679 206.267 59.1477 205.753 58.8953 205.328H58.8967Z" fill="#8383ED"/>
<path d="M62.2284 205.112C62.5587 204.485 63.0185 204.001 63.6065 203.66C64.1945 203.319 64.8591 203.149 65.6003 203.149C66.3416 203.149 67.0353 203.327 67.5942 203.683C68.1518 204.038 68.5548 204.493 68.8018 205.046V203.268H69.8391V211.359H68.8018V209.566C68.5442 210.12 68.1372 210.577 67.5796 210.938C67.0207 211.299 66.3574 211.478 65.5858 211.478C64.8142 211.478 64.1945 211.305 63.6078 210.959C63.0199 210.613 62.56 210.124 62.2297 209.492C61.8981 208.859 61.7329 208.129 61.7329 207.299C61.7329 206.469 61.8981 205.741 62.2297 205.114L62.2284 205.112ZM68.4015 205.595C68.1346 205.1 67.7712 204.72 67.3114 204.453C66.8516 204.186 66.3455 204.053 65.7919 204.053C65.2383 204.053 64.7045 204.181 64.25 204.438C63.7955 204.696 63.4374 205.069 63.1758 205.558C62.9142 206.046 62.7833 206.628 62.7833 207.299C62.7833 207.97 62.9142 208.542 63.1758 209.04C63.4374 209.54 63.7955 209.92 64.25 210.182C64.7045 210.444 65.2185 210.574 65.7919 210.574C66.3654 210.574 66.8516 210.441 67.3114 210.174C67.7712 209.907 68.1346 209.527 68.4015 209.033C68.6684 208.538 68.8018 207.965 68.8018 207.314C68.8018 206.662 68.6684 206.089 68.4015 205.595Z" fill="#8383ED"/>
<path d="M72.7225 210.833C72.1345 210.404 71.8055 209.819 71.7368 209.077H72.8044C72.8533 209.532 73.0686 209.901 73.4492 210.182C73.8297 210.463 74.341 210.605 74.9832 210.605C75.5461 210.605 75.9887 210.471 76.3098 210.205C76.6308 209.938 76.792 209.607 76.792 209.211C76.792 208.935 76.7035 208.707 76.5251 208.529C76.3468 208.351 76.1221 208.211 75.8513 208.106C75.5791 208.002 75.2118 207.891 74.7467 207.773C74.1442 207.615 73.6553 207.458 73.28 207.299C72.9048 207.14 72.5864 206.907 72.3234 206.595C72.0618 206.283 71.931 205.867 71.931 205.342C71.931 204.947 72.0499 204.581 72.2864 204.245C72.5229 203.91 72.8599 203.643 73.2946 203.445C73.7293 203.247 74.2234 203.149 74.7771 203.149C75.6465 203.149 76.3481 203.369 76.8819 203.808C77.4157 204.248 77.7024 204.853 77.7421 205.624H76.7048C76.6758 205.149 76.4895 204.766 76.1486 204.475C75.8077 204.183 75.3413 204.038 74.748 204.038C74.2248 204.038 73.7993 204.162 73.4729 204.408C73.1466 204.655 72.9841 204.962 72.9841 205.328C72.9841 205.643 73.0805 205.904 73.2734 206.106C73.4663 206.308 73.7055 206.467 73.9922 206.58C74.2789 206.694 74.6634 206.819 75.1484 206.958C75.731 207.117 76.1961 207.27 76.541 207.418C76.8872 207.566 77.1831 207.784 77.4302 208.071C77.6773 208.357 77.8055 208.738 77.816 209.212C77.816 209.647 77.6971 210.035 77.4606 210.376C77.2241 210.717 76.8925 210.987 76.467 211.184C76.0415 211.382 75.5527 211.48 75.0004 211.48C74.0715 211.48 73.3131 211.264 72.7251 210.835L72.7225 210.833Z" fill="#8383ED"/>
<path d="M81.1168 204.142V209.167C81.1168 209.661 81.2106 210.002 81.3982 210.19C81.5859 210.378 81.9175 210.471 82.3905 210.471H83.3392V211.361H82.228C81.496 211.361 80.953 211.19 80.5975 210.849C80.2421 210.508 80.0637 209.948 80.0637 209.167V204.142H78.938V203.268H80.0637V201.237H81.1155V203.268H83.3392V204.142H81.1155H81.1168Z" fill="#8383ED"/>
<path d="M92.2943 204.142H90.4115V211.361H89.3743V204.142H88.2485V203.268H89.3743V202.705C89.3743 201.826 89.5989 201.179 90.0481 200.764C90.4974 200.349 91.2267 200.141 92.2336 200.141V201.031C91.561 201.031 91.0893 201.159 90.8184 201.417C90.5463 201.674 90.4115 202.104 90.4115 202.706V203.269H92.2943V204.144V204.142Z" fill="#8383ED"/>
<path d="M96.0055 203.535C96.4745 203.258 97.0506 203.12 97.7324 203.12V204.202H97.451C96.7005 204.202 96.0966 204.404 95.6434 204.81C95.1889 205.215 94.9617 205.892 94.9617 206.84V211.361H93.9244V203.269H94.9617V204.707C95.1889 204.203 95.5377 203.812 96.0068 203.536L96.0055 203.535Z" fill="#8383ED"/>
<path d="M99.2732 201.518C99.1253 201.37 99.0513 201.188 99.0513 200.97C99.0513 200.752 99.1253 200.572 99.2732 200.429C99.4212 200.287 99.5996 200.214 99.807 200.214C100.014 200.214 100.193 200.285 100.341 200.429C100.489 200.572 100.563 200.753 100.563 200.97C100.563 201.187 100.489 201.37 100.341 201.518C100.193 201.666 100.014 201.74 99.807 201.74C99.5996 201.74 99.4212 201.666 99.2732 201.518ZM100.326 203.268V211.359H99.2891V203.268H100.326Z" fill="#8383ED"/>
<path d="M109.973 207.714H103.259C103.289 208.327 103.438 208.85 103.705 209.285C103.972 209.72 104.322 210.049 104.756 210.271C105.191 210.492 105.666 210.603 106.18 210.603C106.851 210.603 107.418 210.441 107.876 210.115C108.336 209.788 108.64 209.35 108.788 208.796H109.884C109.686 209.586 109.265 210.231 108.617 210.73C107.97 211.23 107.157 211.479 106.18 211.479C105.418 211.479 104.737 211.309 104.134 210.968C103.532 210.627 103.06 210.144 102.719 209.516C102.378 208.888 102.208 208.155 102.208 207.315C102.208 206.474 102.376 205.738 102.711 205.107C103.047 204.474 103.516 203.99 104.12 203.655C104.722 203.319 105.409 203.151 106.18 203.151C106.95 203.151 107.625 203.319 108.202 203.655C108.781 203.99 109.225 204.442 109.537 205.01C109.849 205.579 110.003 206.209 110.003 206.9C110.003 207.255 109.993 207.528 109.974 207.715L109.973 207.714ZM108.587 205.328C108.335 204.903 107.991 204.581 107.556 204.364C107.122 204.148 106.647 204.038 106.133 204.038C105.363 204.038 104.705 204.285 104.162 204.779C103.619 205.273 103.318 205.97 103.258 206.869H108.949C108.958 206.267 108.838 205.753 108.586 205.328H108.587Z" fill="#8383ED"/>
<path d="M118.066 204.015C118.679 204.614 118.984 205.481 118.984 206.617V211.359H117.962V206.735C117.962 205.856 117.741 205.184 117.302 204.72C116.862 204.256 116.263 204.023 115.501 204.023C114.74 204.023 114.098 204.27 113.634 204.765C113.169 205.259 112.938 205.986 112.938 206.943V211.361H111.901V203.269H112.938V204.647C113.194 204.153 113.566 203.775 114.049 203.513C114.533 203.252 115.081 203.121 115.694 203.121C116.663 203.121 117.453 203.42 118.066 204.018V204.015Z" fill="#8383ED"/>
<path d="M121.314 205.112C121.649 204.485 122.112 204.001 122.7 203.66C123.288 203.319 123.952 203.149 124.694 203.149C125.435 203.149 126.047 203.322 126.62 203.668C127.194 204.014 127.612 204.463 127.879 205.017V200.392H128.917V211.359H127.879V209.552C127.632 210.115 127.227 210.577 126.664 210.938C126.101 211.298 125.439 211.478 124.678 211.478C123.917 211.478 123.272 211.305 122.684 210.959C122.096 210.613 121.636 210.124 121.306 209.492C120.974 208.859 120.809 208.129 120.809 207.299C120.809 206.469 120.977 205.741 121.313 205.113L121.314 205.112ZM127.479 205.594C127.212 205.1 126.849 204.72 126.389 204.453C125.929 204.186 125.423 204.052 124.869 204.052C124.316 204.052 123.782 204.181 123.327 204.438C122.873 204.696 122.515 205.069 122.253 205.557C121.992 206.046 121.861 206.628 121.861 207.299C121.861 207.97 121.992 208.542 122.253 209.04C122.515 209.54 122.873 209.92 123.327 210.182C123.782 210.444 124.296 210.574 124.869 210.574C125.443 210.574 125.929 210.441 126.389 210.174C126.849 209.907 127.212 209.527 127.479 209.032C127.746 208.538 127.879 207.965 127.879 207.313C127.879 206.662 127.746 206.089 127.479 205.594Z" fill="#8383ED"/>
<path d="M0.0198975 193.919V192.396L2.46562 192.072V172.982C2.19872 172.931 1.92785 172.887 1.65038 172.851C1.37291 172.816 1.10204 172.777 0.835143 172.736C0.568241 172.695 0.29737 172.654 0.0198975 172.614V171.06H5.83492L15.9561 186.072L17.7094 189.317V172.981L15.0179 172.612V171.058H22.2784V172.612L19.8169 172.981V193.917H17.3712L6.9567 178.596L4.57309 174.504V192.101L7.51165 192.393V193.917H0.0198975V193.919Z" fill="#8383ED"/>
<path d="M28.1847 194.258C27.2611 194.258 26.4102 194.078 25.6306 193.719C24.851 193.359 24.2234 192.814 23.7464 192.08C23.2694 191.347 23.0316 190.422 23.0316 189.304C23.0316 188.268 23.3104 187.39 23.8706 186.666C24.4295 185.943 25.1906 185.36 26.1552 184.92C27.1184 184.479 28.2111 184.151 29.432 183.936C30.6529 183.72 31.9239 183.603 33.2466 183.582V182.489C33.2466 181.565 33.1461 180.837 32.9466 180.305C32.7471 179.772 32.3956 179.392 31.8935 179.167C31.3915 178.941 30.6727 178.829 29.7398 178.829C28.5401 178.829 27.491 179.019 26.5938 179.398C25.6967 179.778 25.0017 180.101 24.5101 180.367L23.7253 178.752C23.9301 178.567 24.3741 178.294 25.0558 177.929C25.7376 177.566 26.5608 177.231 27.5253 176.929C28.4886 176.626 29.4994 176.476 30.5551 176.476C32.0006 176.476 33.1475 176.683 33.9931 177.098C34.8387 177.513 35.4439 178.164 35.8085 179.052C36.1719 179.939 36.3542 181.096 36.3542 182.521V192.35H38.1697V193.719C37.9438 193.77 37.6438 193.832 37.2699 193.904C36.896 193.975 36.5009 194.04 36.086 194.097C35.6711 194.153 35.288 194.181 34.9405 194.181C34.4067 194.181 34.0274 194.099 33.8015 193.935C33.5756 193.771 33.4632 193.387 33.4632 192.782V191.797C33.2069 192.054 32.8277 192.378 32.3243 192.766C31.8222 193.156 31.2197 193.502 30.5168 193.805C29.8138 194.107 29.0369 194.258 28.186 194.258H28.1847ZM29.5218 192.15C30.0649 192.15 30.6885 191.989 31.3901 191.665C32.0917 191.343 32.7101 190.951 33.2439 190.488V185.196C31.7059 185.207 30.4388 185.376 29.4439 185.704C28.4489 186.033 27.7077 186.475 27.2214 187.034C26.7339 187.593 26.4908 188.226 26.4908 188.934C26.4908 189.703 26.6242 190.324 26.8911 190.796C27.158 191.268 27.5187 191.611 27.9759 191.827C28.4317 192.042 28.9471 192.15 29.5218 192.15Z" fill="#8383ED"/>
<path d="M39.9828 193.919V192.412L42.2753 192.212V179.215L40.0608 178.677V177L44.3061 176.463H44.3828L45.0447 177V177.554L44.9681 180.277H45.0447C45.1372 180.113 45.3262 179.833 45.6142 179.439C45.9009 179.044 46.2881 178.627 46.7756 178.185C47.2632 177.744 47.8446 177.368 48.5211 177.054C49.1976 176.741 49.9666 176.585 50.828 176.585C51.1253 176.585 51.3605 176.604 51.5363 176.64C51.7107 176.675 51.8534 176.708 51.967 176.74V180.047C51.8441 179.965 51.6261 179.886 51.313 179.809C50.9998 179.733 50.5981 179.694 50.1053 179.694C49.2742 179.694 48.5673 179.8 47.982 180.01C47.398 180.22 46.9078 180.462 46.5127 180.733C46.1176 181.005 45.7767 181.248 45.49 181.464V192.185L49.3812 192.446V193.923H39.9828V193.919Z" fill="#8383ED"/>
<path d="M53.813 193.919V192.396L56.305 192.134V179.213L53.998 178.676V177.015L58.7666 176.461H58.8287L59.5356 176.999V192.166L61.9813 192.397V193.921H53.813V193.919ZM57.6739 173.784C57.0172 173.784 56.523 173.585 56.1901 173.184C55.8571 172.784 55.6906 172.318 55.6906 171.785C55.6906 171.191 55.8729 170.659 56.2363 170.193C56.5997 169.727 57.1572 169.493 57.9051 169.493H57.9355C58.5816 169.493 59.0718 169.688 59.4048 170.077C59.7377 170.466 59.9042 170.933 59.9042 171.476C59.9042 172.071 59.7219 172.604 59.3585 173.076C58.9938 173.548 58.4429 173.783 57.7043 173.783H57.6739V173.784Z" fill="#8383ED"/>
<path d="M75.4475 194.258C73.7351 194.258 72.2195 193.986 70.9022 193.442C69.5849 192.899 68.4737 192.122 67.5712 191.112C66.6688 190.102 65.9896 188.881 65.5324 187.45C65.0766 186.019 64.848 184.418 64.848 182.644C64.848 180.869 65.1268 179.285 65.6857 177.829C66.2446 176.373 67.0268 175.116 68.031 174.06C69.0365 173.005 70.2098 172.189 71.5536 171.615C72.8974 171.04 74.3587 170.753 75.9376 170.753C76.6459 170.753 77.3197 170.791 77.9606 170.868C78.6014 170.945 79.2039 171.035 79.7681 171.138C80.3323 171.241 80.8529 171.337 81.3299 171.43C81.8069 171.522 82.2244 171.594 82.5838 171.645L82.2918 177.229H80.2464L79.4774 173.322C79.3136 173.178 79.0493 173.04 78.6846 172.907C78.3199 172.773 77.8641 172.664 77.3158 172.577C76.7674 172.489 76.1292 172.446 75.4012 172.446C74.109 172.446 72.9528 172.817 71.9328 173.561C70.9128 174.305 70.1041 175.396 69.5095 176.838C68.915 178.279 68.6177 180.05 68.6177 182.152C68.6177 183.578 68.7591 184.919 69.0405 186.174C69.3219 187.431 69.7487 188.538 70.3169 189.497C70.8863 190.456 71.6091 191.207 72.4864 191.751C73.3638 192.294 74.3957 192.566 75.5862 192.566C76.3657 192.566 77.0092 192.52 77.5166 192.428C78.024 192.335 78.4402 192.204 78.7626 192.035C79.0863 191.866 79.3651 191.684 79.6016 191.49L80.9097 188.352L82.8176 188.597L82.0949 193.09C81.6641 193.111 81.2466 193.182 80.841 193.305C80.4353 193.428 79.998 193.564 79.5263 193.713C79.0546 193.863 78.4904 193.989 77.8337 194.098C77.177 194.205 76.3829 194.259 75.4501 194.259L75.4475 194.258Z" fill="#FF9E88"/>
<path d="M90.0909 194.258C89.1687 194.258 88.3164 194.078 87.5369 193.719C86.7573 193.359 86.1297 192.814 85.6527 192.08C85.1757 191.347 84.9379 190.422 84.9379 189.304C84.9379 188.268 85.2167 187.39 85.7756 186.666C86.3345 185.943 87.0955 185.36 88.0601 184.92C89.0233 184.479 90.116 184.151 91.3369 183.936C92.5578 183.72 93.8289 183.603 95.1515 183.582V182.489C95.1515 181.565 95.0511 180.837 94.8516 180.305C94.652 179.772 94.3006 179.392 93.7985 179.167C93.2964 178.941 92.5776 178.829 91.6448 178.829C90.445 178.829 89.3959 179.019 88.4988 179.398C87.6016 179.778 86.9066 180.101 86.4151 180.367L85.6302 178.752C85.835 178.567 86.279 178.294 86.9608 177.929C87.6426 177.566 88.4657 177.231 89.4289 176.929C90.3922 176.626 91.403 176.476 92.4587 176.476C93.9042 176.476 95.0511 176.683 95.8967 177.098C96.7423 177.513 97.3475 178.164 97.7122 179.052C98.0755 179.939 98.2579 181.096 98.2579 182.521V192.35H100.073V193.719C99.8474 193.77 99.5474 193.832 99.1735 193.904C98.7996 193.975 98.4045 194.04 97.9896 194.097C97.5747 194.153 97.1916 194.181 96.8441 194.181C96.3103 194.181 95.931 194.099 95.7051 193.935C95.4792 193.771 95.3669 193.387 95.3669 192.782V191.797C95.1105 192.054 94.7313 192.378 94.2279 192.766C93.7258 193.156 93.1233 193.502 92.4204 193.805C91.7174 194.107 90.9405 194.258 90.0896 194.258H90.0909ZM91.4294 192.15C91.9724 192.15 92.5961 191.989 93.2977 191.665C94.0006 191.343 94.6177 190.951 95.1515 190.488V185.196C93.6135 185.207 92.3464 185.376 91.3514 185.704C90.3565 186.033 89.6152 186.475 89.129 187.034C88.6415 187.593 88.3983 188.226 88.3983 188.934C88.3983 189.703 88.5318 190.324 88.7987 190.796C89.0656 191.268 89.4263 191.611 89.8835 191.827C90.3393 192.042 90.8546 192.15 91.4294 192.15Z" fill="#FF9E88"/>
<path d="M101.887 193.919V192.412L104.18 192.212V179.215L101.965 178.677V177L106.21 176.463H106.287L106.949 177V177.554L106.872 180.277H106.949C107.041 180.113 107.23 179.833 107.518 179.439C107.805 179.044 108.192 178.627 108.68 178.185C109.167 177.744 109.749 177.368 110.425 177.054C111.102 176.741 111.871 176.585 112.732 176.585C113.03 176.585 113.265 176.604 113.44 176.64C113.615 176.675 113.758 176.708 113.871 176.74V180.047C113.748 179.965 113.53 179.886 113.217 179.809C112.904 179.733 112.502 179.694 112.01 179.694C111.178 179.694 110.472 179.8 109.886 180.01C109.302 180.22 108.812 180.462 108.417 180.733C108.022 181.005 107.681 181.248 107.394 181.464V192.185L111.285 192.446V193.923H101.887V193.919Z" fill="#FF9E88"/>
<path d="M122.472 194.258C120.749 194.258 119.321 193.878 118.189 193.119C117.055 192.36 116.209 191.309 115.651 189.965C115.092 188.621 114.813 187.072 114.813 185.319C114.813 183.965 115.01 182.74 115.405 181.643C115.8 180.547 116.356 179.604 117.074 178.821C117.791 178.036 118.639 177.434 119.62 177.013C120.599 176.593 121.673 176.383 122.842 176.383C124.76 176.383 126.247 176.912 127.303 177.967C128.359 179.023 128.918 180.541 128.98 182.521C128.98 183.136 128.967 183.674 128.941 184.135C128.915 184.596 128.862 185.007 128.78 185.365H118.197C118.218 186.35 118.341 187.255 118.565 188.081C118.791 188.906 119.124 189.621 119.566 190.226C120.007 190.832 120.55 191.298 121.196 191.626C121.842 191.955 122.59 192.118 123.442 192.118C124.294 192.118 125.176 191.965 126.057 191.657C126.938 191.349 127.611 191.006 128.072 190.627L128.672 191.981C128.313 192.36 127.808 192.725 127.156 193.074C126.505 193.423 125.772 193.707 124.956 193.927C124.141 194.148 123.313 194.258 122.472 194.258ZM118.213 183.736H125.596C125.616 183.562 125.634 183.346 125.65 183.09C125.666 182.834 125.673 182.608 125.673 182.414C125.673 181.162 125.414 180.134 124.896 179.33C124.378 178.525 123.503 178.122 122.273 178.122C121.729 178.122 121.221 178.214 120.749 178.399C120.278 178.584 119.86 178.892 119.496 179.323C119.131 179.754 118.842 180.331 118.626 181.054C118.411 181.777 118.272 182.671 118.211 183.738L118.213 183.736Z" fill="#FF9E88"/>
</svg>
