<svg width="25" height="24" viewBox="0 0 25 24" fill="none" xmlns="http://www.w3.org/2000/svg">
<rect x="2.875" y="2.25" width="19.5" height="19.5" rx="9.75" fill="#94A3B8"/>
<path d="M12.6251 5.82178C8.62525 5.82178 8.62525 9.47634 8.62525 11.6854C8.62479 12.2846 8.75928 12.8763 9.01872 13.4165C9.27817 13.9567 9.65593 14.4315 10.124 14.8058C10.4931 14.627 10.881 14.4898 11.2805 14.3967C11.2986 14.207 11.3294 14.0187 11.3726 13.8331C10.9026 13.6 10.5068 13.2404 10.23 12.7947C9.95306 12.3491 9.80596 11.835 9.80519 11.3103C9.80519 10.5445 9.80519 9.49557 10.2522 8.65789L10.4567 8.27462L10.8379 8.48304C11.9883 9.11209 13.4061 9.56814 15.0521 9.83846L15.382 9.89263L15.4108 10.2256C15.445 10.6194 15.445 11.0025 15.445 11.3103C15.4442 11.835 15.2972 12.349 15.0203 12.7947C14.7434 13.2404 14.3477 13.6 13.8776 13.8331C13.9208 14.0187 13.9516 14.207 13.9697 14.3967C14.3692 14.4898 14.7571 14.627 15.1262 14.8058C15.5943 14.4315 15.972 13.9567 16.2315 13.4165C16.4909 12.8763 16.6254 12.2846 16.625 11.6854C16.625 9.47634 16.625 5.82178 12.6251 5.82178Z" fill="white"/>
<path d="M13.9589 14.8347C13.9449 14.9249 13.9126 15.0113 13.864 15.0886C13.604 15.5118 12.8501 15.5447 12.6252 15.5447C12.4003 15.5447 11.6464 15.5118 11.3864 15.0886C11.3378 15.0113 11.3056 14.9249 11.2915 14.8347C10.4216 15.0414 9.62909 15.493 9.00782 16.1361C8.92713 16.2228 8.86661 16.3263 8.83058 16.4392C8.79455 16.552 8.7839 16.6714 8.79938 16.7889C8.81487 16.9064 8.85611 17.0189 8.92016 17.1186C8.98422 17.2183 9.0695 17.3025 9.16991 17.3654C9.98392 17.8682 11.0985 18.1781 12.6252 18.1781C14.1519 18.1781 15.2665 17.8682 16.0805 17.3654C16.1809 17.3025 16.2662 17.2183 16.3302 17.1186C16.3943 17.0189 16.4355 16.9064 16.451 16.7889C16.4665 16.6714 16.4559 16.552 16.4198 16.4392C16.3838 16.3263 16.3233 16.2228 16.2426 16.1361C15.6213 15.493 14.8288 15.0414 13.9589 14.8347Z" fill="white"/>
</svg>
