<svg width="32" height="32" viewBox="0 0 32 32" fill="none" xmlns="http://www.w3.org/2000/svg">
<rect x="0.5" y="0.5" width="31" height="31" rx="15.5" fill="#FFDEBF"/>
<rect x="0.5" y="0.5" width="31" height="31" rx="15.5" stroke="#FFE7D0"/>
<path d="M18.1731 16.7037V23.4218C18.1731 23.5853 18.0481 23.717 17.8931 23.717C17.738 23.717 17.6131 23.5843 17.6131 23.4218V16.7037C17.6131 16.5402 17.738 16.4085 17.8931 16.4085C18.0481 16.4085 18.1731 16.5412 18.1731 16.7037ZM19.3341 17.7286H18.8535C18.6984 17.7286 18.5735 17.8613 18.5735 18.0238C18.5735 18.1873 18.6984 18.319 18.8535 18.319H19.3341C19.4892 18.319 19.6141 18.1863 19.6141 18.0238C19.6141 17.8604 19.4892 17.7286 19.3341 17.7286ZM19.3341 19.768H18.8535C18.6984 19.768 18.5735 19.9007 18.5735 20.0632C18.5735 20.2267 18.6984 20.3584 18.8535 20.3584H19.3341C19.4892 20.3584 19.6141 20.2257 19.6141 20.0632C19.6141 19.8998 19.4892 19.768 19.3341 19.768ZM19.3341 21.8074H18.8535C18.6984 21.8074 18.5735 21.9401 18.5735 22.1026C18.5735 22.2661 18.6984 22.3978 18.8535 22.3978H19.3341C19.4892 22.3978 19.6141 22.2651 19.6141 22.1026C19.6141 21.9392 19.4892 21.8074 19.3341 21.8074ZM19.3341 16.7094H18.8535C18.6984 16.7094 18.5735 16.8421 18.5735 17.0046C18.5735 17.1681 18.6984 17.2998 18.8535 17.2998H19.3341C19.4892 17.2998 19.6141 17.1671 19.6141 17.0046C19.6141 16.8412 19.4892 16.7094 19.3341 16.7094ZM19.3341 18.7488H18.8535C18.6984 18.7488 18.5735 18.8815 18.5735 19.044C18.5735 19.2075 18.6984 19.3392 18.8535 19.3392H19.3341C19.4892 19.3392 19.6141 19.2065 19.6141 19.044C19.6141 18.8806 19.4892 18.7488 19.3341 18.7488ZM19.3341 20.7882H18.8535C18.6984 20.7882 18.5735 20.9209 18.5735 21.0834C18.5735 21.2469 18.6984 21.3786 18.8535 21.3786H19.3341C19.4892 21.3786 19.6141 21.2459 19.6141 21.0834C19.6141 20.92 19.4892 20.7882 19.3341 20.7882ZM19.3341 22.8276H18.8535C18.6984 22.8276 18.5735 22.9603 18.5735 23.1228C18.5735 23.2863 18.6984 23.418 18.8535 23.418H19.3341C19.4892 23.418 19.6141 23.2853 19.6141 23.1228C19.6141 22.9594 19.4892 22.8276 19.3341 22.8276ZM12.2449 8.86356L11.3566 8.51356C11.2115 8.45683 11.0501 8.53471 10.9963 8.68663C10.9425 8.83951 11.0154 9.0097 11.1605 9.06644L12.0488 9.41644C12.0807 9.42894 12.1145 9.43471 12.1464 9.43471C12.2595 9.43471 12.3671 9.36163 12.409 9.2424C12.4629 9.08952 12.3899 8.91933 12.2449 8.86259L12.2449 8.86356ZM23.8744 14.3596C23.7413 14.574 23.5269 14.7067 23.2843 14.7231C23.2679 14.724 23.2515 14.725 23.2351 14.725C23.0144 14.725 22.8092 14.6259 22.666 14.4481C22.116 13.7673 21.4602 12.4683 21.4602 10.1444C21.4602 9.85207 21.4374 9.5992 21.3928 9.39342C21.3399 9.15112 21.183 8.95786 20.9632 8.86267C20.7379 8.76556 20.4899 8.78864 20.2846 8.92613C20.0767 9.06555 19.8368 9.13959 19.5897 9.13959H19.1346V12.1175H19.5112C20.1953 12.1175 20.7516 12.704 20.7516 13.4252V14.9155C21.1429 15.3838 21.3426 16.003 21.2979 16.6261L21.1438 18.7559C21.0808 19.6241 21.0808 20.5049 21.1438 21.3732L21.2979 23.5029C21.3444 24.1452 21.1328 24.7846 20.7178 25.2567C20.3029 25.7289 19.7146 26 19.1035 26H16.6865C16.0754 26 15.4872 25.7288 15.0722 25.2567C14.6572 24.7846 14.4456 24.1452 14.4921 23.5029L14.6463 21.3732C14.7092 20.5049 14.7092 19.6242 14.6463 18.7559L14.4921 16.6261C14.4474 16.0021 14.6472 15.3828 15.0394 14.9146V13.4261C15.0394 12.705 15.5957 12.1185 16.2797 12.1185H16.6546V11.6531L14.6882 11.4839C14.4292 11.7425 14.0963 11.9089 13.737 11.956L9.52238 12.5012L9.51508 12.5627C9.46948 12.9694 9.14023 13.2704 8.76082 13.2704C8.73072 13.2704 8.70154 13.2685 8.67144 13.2646C8.46988 13.2396 8.2893 13.1329 8.16343 12.9646C8.03757 12.7963 7.98102 12.5867 8.00565 12.3742L8.64044 6.70787C8.66415 6.49537 8.76539 6.30499 8.92501 6.17229C9.08461 6.03961 9.28345 5.97999 9.48499 6.00595C9.9018 6.05787 10.2 6.4569 10.1508 6.89632L10.1444 6.95594L14.1218 8.52227C14.5267 8.68092 14.8541 8.99534 15.042 9.39821L16.6554 9.53667V9.14052H15.8008C15.6458 9.14052 15.5209 9.00783 15.5209 8.84534V7.32612C15.5209 7.16267 15.6458 7.03094 15.8008 7.03094H20.9538C22.0163 7.03094 22.9831 8.51552 22.9831 10.1452C22.9831 12.0856 23.5075 13.0212 23.8194 13.4067C24.0365 13.674 24.0602 14.0663 23.8778 14.3625L23.8744 14.3596ZM8.95605 12.4914L9.59084 6.82499C9.59722 6.76922 9.58263 6.71346 9.54888 6.66923C9.51605 6.625 9.46862 6.59711 9.41481 6.59038C9.4066 6.58942 9.39931 6.58846 9.3911 6.58846C9.34641 6.58846 9.30354 6.60384 9.26798 6.63365C9.22602 6.66826 9.19957 6.71826 9.19319 6.77403L8.5584 12.4404C8.54563 12.5558 8.62406 12.6616 8.73351 12.675C8.84387 12.6885 8.94328 12.6058 8.95605 12.4904V12.4914ZM14.3682 10.9799C14.525 10.7952 14.6217 10.5702 14.6482 10.328C14.6536 10.2799 14.6564 10.2318 14.6564 10.1856C14.6564 10.0462 14.6327 9.90969 14.5861 9.78085C14.4731 9.45106 14.2314 9.19529 13.9231 9.07413L10.0734 7.5578L9.58733 11.8952L13.666 11.3673C13.9378 11.3318 14.1867 11.1943 14.3682 10.9799ZM16.6519 11.0587V10.127L15.2063 10.0029C15.2127 10.0635 15.2164 10.1241 15.2164 10.1856C15.2164 10.2539 15.2127 10.3241 15.2045 10.3943C15.1844 10.5789 15.1379 10.7558 15.0668 10.9212L16.6519 11.0577L16.6519 11.0587ZM20.5838 18.7095L20.7379 16.5798C20.7735 16.0942 20.6193 15.6298 20.3056 15.2721C19.9918 14.9144 19.5641 14.7183 19.1017 14.7183H16.6847C16.2223 14.7183 15.7954 14.9154 15.4808 15.2721C15.167 15.6298 15.0129 16.0932 15.0485 16.5798L15.2026 18.7095C15.2674 19.6076 15.2674 20.5182 15.2026 21.4162L15.0485 23.546C15.0129 24.0315 15.167 24.4959 15.4808 24.8536C15.7955 25.2113 16.2223 25.4075 16.6847 25.4075H19.1017C19.5641 25.4075 19.9909 25.2104 20.3056 24.8536C20.6193 24.4959 20.7735 24.0325 20.7379 23.546L20.5838 21.4162C20.519 20.5181 20.519 19.6076 20.5838 18.7095ZM19.5103 12.7077H16.2779C15.9031 12.7077 15.5976 13.0298 15.5976 13.425V14.4327C15.9259 14.2355 16.3016 14.1288 16.6856 14.1288H19.1026C19.4866 14.1288 19.8624 14.2365 20.1916 14.4336V13.4259C20.1916 13.0307 19.8861 12.7086 19.5112 12.7086L19.5103 12.7077ZM18.5736 9.13848H17.2129V12.1164H18.5736V9.13848ZM23.3911 13.7885C23.0281 13.3414 22.4197 12.2741 22.4197 10.1433C22.4197 8.74521 21.6162 7.61925 20.9504 7.61925H16.0774V8.54711H19.5878C19.7274 8.54711 19.8642 8.50576 19.9818 8.42596C20.1934 8.28461 20.436 8.2125 20.6795 8.2125C20.8464 8.2125 21.0143 8.24615 21.173 8.31538C21.5633 8.48461 21.8415 8.82786 21.9354 9.25959C21.9901 9.50958 22.0175 9.8067 22.0175 10.1432C22.0175 12.4009 22.6897 13.5691 23.0901 14.0644C23.143 14.1298 23.2095 14.1355 23.2469 14.1336C23.3117 14.1288 23.3682 14.0942 23.4038 14.0375C23.4522 13.9586 23.4467 13.8596 23.3892 13.7884L23.3911 13.7885Z" fill="#3A3A47"/>
</svg>
