<svg width="49" height="48" viewBox="0 0 49 48" fill="none" xmlns="http://www.w3.org/2000/svg">
<path d="M28.3029 24.7314V36.4882C28.3029 36.7742 28.0842 37.0048 27.8129 37.0048C27.5416 37.0048 27.3229 36.7726 27.3229 36.4882V24.7314C27.3229 24.4453 27.5416 24.2148 27.8129 24.2148C28.0842 24.2148 28.3029 24.447 28.3029 24.7314ZM30.3347 26.5251H29.4936C29.2222 26.5251 29.0036 26.7573 29.0036 27.0417C29.0036 27.3278 29.2222 27.5583 29.4936 27.5583H30.3347C30.606 27.5583 30.8247 27.3261 30.8247 27.0417C30.8247 26.7556 30.606 26.5251 30.3347 26.5251ZM30.3347 30.0941H29.4936C29.2222 30.0941 29.0036 30.3263 29.0036 30.6107C29.0036 30.8967 29.2222 31.1272 29.4936 31.1272H30.3347C30.606 31.1272 30.8247 30.895 30.8247 30.6107C30.8247 30.3246 30.606 30.0941 30.3347 30.0941ZM30.3347 33.663H29.4936C29.2222 33.663 29.0036 33.8952 29.0036 34.1796C29.0036 34.4657 29.2222 34.6962 29.4936 34.6962H30.3347C30.606 34.6962 30.8247 34.464 30.8247 34.1796C30.8247 33.8936 30.606 33.663 30.3347 33.663ZM30.3347 24.7415H29.4936C29.2222 24.7415 29.0036 24.9737 29.0036 25.2581C29.0036 25.5441 29.2222 25.7747 29.4936 25.7747H30.3347C30.606 25.7747 30.8247 25.5424 30.8247 25.2581C30.8247 24.972 30.606 24.7415 30.3347 24.7415ZM30.3347 28.3105H29.4936C29.2222 28.3105 29.0036 28.5427 29.0036 28.827C29.0036 29.1131 29.2222 29.3436 29.4936 29.3436H30.3347C30.606 29.3436 30.8247 29.1114 30.8247 28.827C30.8247 28.541 30.606 28.3105 30.3347 28.3105ZM30.3347 31.8794H29.4936C29.2222 31.8794 29.0036 32.1116 29.0036 32.396C29.0036 32.682 29.2222 32.9126 29.4936 32.9126H30.3347C30.606 32.9126 30.8247 32.6804 30.8247 32.396C30.8247 32.1099 30.606 31.8794 30.3347 31.8794ZM30.3347 35.4484H29.4936C29.2222 35.4484 29.0036 35.6806 29.0036 35.9649C29.0036 36.251 29.2222 36.4815 29.4936 36.4815H30.3347C30.606 36.4815 30.8247 36.2493 30.8247 35.9649C30.8247 35.6789 30.606 35.4484 30.3347 35.4484ZM17.9285 11.0112L16.374 10.3987C16.1202 10.2994 15.8377 10.4357 15.7435 10.7016C15.6493 10.9691 15.777 11.267 16.0308 11.3663L17.5854 11.9788C17.6412 12.0006 17.7003 12.0107 17.7562 12.0107C17.9541 12.0107 18.1424 11.8829 18.2158 11.6742C18.31 11.4067 18.1823 11.1088 17.9285 11.0095L17.9285 11.0112ZM38.2802 20.6293C38.0472 21.0045 37.6721 21.2367 37.2476 21.2653C37.2189 21.267 37.1901 21.2687 37.1614 21.2687C36.7752 21.2687 36.416 21.0954 36.1655 20.7841C35.203 19.5928 34.0554 17.3195 34.0554 13.2527C34.0554 12.7411 34.0155 12.2986 33.9373 11.9385C33.8447 11.5145 33.5702 11.1763 33.1856 11.0097C32.7914 10.8397 32.3572 10.8801 31.9981 11.1207C31.6342 11.3647 31.2144 11.4943 30.7819 11.4943H29.9855V16.7056H30.6447C31.8417 16.7056 32.8153 17.7321 32.8153 18.9941V21.6022C33.5 22.4216 33.8496 23.5053 33.7713 24.5957L33.5016 28.3227C33.3915 29.8422 33.3915 31.3835 33.5016 32.903L33.7713 36.6301C33.8527 37.7542 33.4825 38.8731 32.7562 39.6993C32.03 40.5255 31.0005 41 29.9312 41H25.7014C24.632 41 23.6026 40.5255 22.8763 39.6993C22.1501 38.8731 21.7798 37.7542 21.8612 36.6301L22.131 32.903C22.2411 31.3836 22.2411 29.8423 22.131 28.3227L21.8612 24.5957C21.783 23.5036 22.1326 22.42 22.8189 21.6005V18.9958C22.8189 17.7337 23.7925 16.7073 24.9895 16.7073H25.6455V15.8929L22.2044 15.5968C21.7511 16.0494 21.1685 16.3405 20.5397 16.423L13.1642 17.377L13.1514 17.4847C13.0716 18.1965 12.4954 18.7232 11.8314 18.7232C11.7788 18.7232 11.7277 18.7198 11.675 18.7131C11.3223 18.6693 11.0063 18.4825 10.786 18.1881C10.5657 17.8936 10.4668 17.5268 10.5099 17.1549L11.6208 7.23877C11.6623 6.8669 11.8394 6.53374 12.1188 6.30152C12.3981 6.06931 12.746 5.96498 13.0987 6.01041C13.8282 6.10128 14.3501 6.79957 14.2639 7.56857L14.2527 7.67289L21.2131 10.414C21.9218 10.6916 22.4948 11.2418 22.8236 11.9469L25.647 12.1892V11.4959H24.1515C23.8802 11.4959 23.6615 11.2637 23.6615 10.9793V8.32072C23.6615 8.03467 23.8802 7.80415 24.1515 7.80415H33.1692C35.0286 7.80415 36.7204 10.4022 36.7204 13.2542C36.7204 16.6498 37.6382 18.2872 38.184 18.9618C38.5639 19.4295 38.6054 20.1161 38.2862 20.6343L38.2802 20.6293ZM12.1731 17.3599L13.284 7.44374C13.2951 7.34614 13.2696 7.24855 13.2105 7.17114C13.1531 7.09374 13.0701 7.04494 12.9759 7.03317C12.9616 7.03149 12.9488 7.0298 12.9344 7.0298C12.8562 7.0298 12.7812 7.05672 12.719 7.10889C12.6455 7.16946 12.5993 7.25696 12.5881 7.35455L11.4772 17.2707C11.4548 17.4726 11.5921 17.6577 11.7836 17.6813C11.9768 17.7048 12.1507 17.5601 12.1731 17.3582V17.3599ZM21.6443 14.7147C21.9188 14.3917 22.088 13.9979 22.1343 13.5739C22.1439 13.4898 22.1487 13.4057 22.1487 13.3249C22.1487 13.0809 22.1072 12.842 22.0258 12.6165C21.8278 12.0394 21.4049 11.5918 20.8654 11.3797L14.1285 8.72615L13.2778 16.3166L20.4156 15.3928C20.8912 15.3306 21.3267 15.09 21.6443 14.7147ZM25.6408 14.8527V13.2222L23.1111 13.0051C23.1222 13.1111 23.1286 13.2172 23.1286 13.3248C23.1286 13.4443 23.1222 13.5671 23.1079 13.69C23.0728 14.0131 22.9914 14.3227 22.8669 14.6121L25.6409 14.851L25.6408 14.8527ZM32.5216 28.2417L32.7913 24.5146C32.8536 23.6648 32.5838 22.8521 32.0348 22.2262C31.4857 21.6002 30.7372 21.257 29.928 21.257H25.6982C24.889 21.257 24.142 21.6019 23.5914 22.2262C23.0423 22.8521 22.7726 23.6631 22.8348 24.5146L23.1046 28.2417C23.2179 29.8133 23.2179 31.4068 23.1046 32.9783L22.8348 36.7054C22.7726 37.5552 23.0423 38.3679 23.5914 38.9939C24.1421 39.6198 24.889 39.9631 25.6982 39.9631H29.928C30.7372 39.9631 31.4841 39.6181 32.0348 38.9939C32.5838 38.3679 32.8535 37.5569 32.7913 36.7054L32.5216 32.9783C32.4083 31.4067 32.4083 29.8132 32.5216 28.2417ZM30.643 17.7384H24.9864C24.3304 17.7384 23.7957 18.3021 23.7957 18.9937V20.7571C24.3703 20.4122 25.0279 20.2254 25.6998 20.2254H29.9296C30.6016 20.2254 31.2591 20.4139 31.8353 20.7588V18.9954C31.8353 18.3038 31.3007 17.7401 30.6447 17.7401L30.643 17.7384ZM29.0038 11.4923H26.6225V16.7037H29.0038V11.4923ZM37.4344 19.6299C36.7991 18.8474 35.7345 16.9797 35.7345 13.2507C35.7345 10.8041 34.3284 8.83368 33.1632 8.83368H24.6355V10.4574H30.7787C31.0229 10.4574 31.2623 10.3851 31.4682 10.2454C31.8385 9.99807 32.263 9.87187 32.6892 9.87187C32.9813 9.87187 33.2749 9.93076 33.5527 10.0519C34.2358 10.3481 34.7226 10.9488 34.887 11.7043C34.9827 12.1418 35.0306 12.6617 35.0306 13.2506C35.0306 17.2015 36.2069 19.246 36.9076 20.1127C37.0002 20.2271 37.1167 20.2372 37.1821 20.2338C37.2955 20.2254 37.3944 20.1648 37.4567 20.0656C37.5413 19.9276 37.5317 19.7543 37.4311 19.6298L37.4344 19.6299Z" fill="#3A3A47"/>
</svg>
