<svg width="32" height="32" viewBox="0 0 32 32" fill="none" xmlns="http://www.w3.org/2000/svg">
<rect width="32" height="32" rx="6" fill="#FFF0DE"/>
<path d="M10.2776 5.09912H9.13645C9.13645 5.09912 8.88598 6.78624 8.7207 8.74042C9.0995 8.74552 9.52381 8.75028 9.9026 8.74042C10.0515 7.18871 10.2776 5.09912 10.2776 5.09912Z" fill="#3A3A47"/>
<path d="M22.0625 18.7654C22.3184 18.8005 22.5655 18.8702 22.7886 18.9845C22.9737 19.0794 22.9761 19.6895 22.9603 20.0514C23.1619 20.0048 23.3586 19.9558 23.5496 19.9041C26.5827 17.6339 25.3016 14.3399 23.281 10.9548C23.2779 10.8589 23.2269 10.7184 23.2231 10.6228C22.8656 10.6112 22.3738 10.6224 22.0782 10.6299C22.0782 13.7861 17.5063 14.886 16.1779 14.886C14.8691 14.886 10.1713 14.0542 9.7822 10.6177C9.77639 10.567 8.61502 10.5609 8.61365 10.6058C8.61194 10.6507 8.60783 10.765 8.60407 10.8541C6.2543 16.0563 6.72857 18.6957 8.46822 19.6826C8.76626 19.7687 9.07183 19.8494 9.38356 19.9242C9.36748 19.5588 9.37501 19.0247 9.5461 18.9342C9.81745 18.7909 10.1264 18.7144 10.444 18.6858L10.4957 18.2133C9.60666 17.9782 8.99621 17.1294 9.09305 16.1907C9.20049 15.1507 10.136 14.394 11.1821 14.5009C12.2281 14.6077 12.9891 15.5378 12.8817 16.5779C12.8047 17.3223 12.3037 17.9214 11.6413 18.1626L11.5876 18.761C12.2911 18.9056 12.8454 19.1938 12.8625 19.3758C12.8899 19.669 12.8591 20.1545 12.8287 20.507C15.3406 20.7775 19.5457 20.5478 19.5457 20.5478C19.5457 20.5478 19.4365 19.9681 19.4773 19.4663C19.491 19.2965 19.9717 19.0281 20.6068 18.8685C20.5189 18.1173 20.6215 18.8658 20.5213 18.1054C19.9365 17.8384 19.5022 17.2828 19.4232 16.6007C19.3028 15.562 20.0525 14.6227 21.0972 14.5033C22.1418 14.3835 23.0866 15.1289 23.2067 16.1676C23.309 17.0497 22.7838 17.8601 21.9831 18.1575C22.059 18.7637 21.9906 18.1514 22.0625 18.7654Z" fill="#3A3A47"/>
<path d="M9.89419 10.3357L10.0095 9.04492H8.62982L8.51074 10.3357C8.51074 10.3357 8.64556 10.3357 8.714 10.3357C8.714 9.84986 8.85087 9.78182 9.22727 9.78182C9.60367 9.78182 9.69709 9.88389 9.69709 10.3357C9.77476 10.3357 9.89419 10.3357 9.89419 10.3357Z" fill="#3A3A47"/>
<path d="M22.8802 8.31918L22.3587 8.31306C22.3587 8.31306 21.7168 8.25897 21.7168 8.3532C21.7168 8.44744 21.7753 9.14148 21.7753 9.22857C21.7753 9.31566 22.098 9.41092 22.098 9.41092H23.1379C23.1379 9.41092 23.3593 9.32451 23.3593 9.23776C23.3593 9.15066 23.3251 8.48146 23.3251 8.38723C23.3251 8.29299 22.8802 8.31918 22.8802 8.31918ZM23.1635 9.13501C23.1635 9.19761 22.9517 9.26633 22.9517 9.26633H22.2417C22.2417 9.26633 22.0097 9.19761 22.0097 9.13501C22.0097 9.07241 21.958 8.57026 21.958 8.50222C21.958 8.43451 22.5668 8.47602 22.5668 8.47602C22.5668 8.47602 23.1204 8.45527 23.1204 8.52297C23.1197 8.59101 23.1635 9.07241 23.1635 9.13501Z" fill="#3A3A47"/>
<path d="M21.5957 5.09912H22.7369C22.7369 5.09912 22.9874 6.78624 23.1526 8.74042C22.7738 8.74552 22.3495 8.75028 21.9707 8.74042C21.8215 7.18871 21.5957 5.09912 21.5957 5.09912Z" fill="#3A3A47"/>
<path d="M23.056 10.3999C23.056 10.3999 23.0505 10.0352 22.9684 9.93962C22.8862 9.84402 22.4257 9.83279 22.3562 9.93962C22.2867 10.0464 22.3049 10.3999 22.3049 10.3999H23.056Z" fill="#3A3A47"/>
<path d="M21.2915 16.4647C21.3058 16.218 21.1162 16.0066 20.8681 15.9924C20.62 15.9781 20.4074 16.1666 20.3931 16.4132C20.3788 16.6599 20.5683 16.8714 20.8164 16.8856C21.0645 16.8998 21.2772 16.7114 21.2915 16.4647Z" fill="#3A3A47"/>
<path d="M21.032 17.0464C20.9236 17.0586 20.8459 17.1563 20.8582 17.2641C20.8705 17.372 20.9687 17.4492 21.0772 17.4369C21.1857 17.4247 21.2634 17.3271 21.251 17.2192C21.2387 17.1114 21.1405 17.0338 21.032 17.0464Z" fill="#3A3A47"/>
<path d="M8.81689 10.3999C8.81689 10.3999 8.82237 10.0352 8.90449 9.93962C8.98662 9.84402 9.44719 9.83279 9.51666 9.93962C9.58612 10.0464 9.56799 10.3999 9.56799 10.3999H8.81689Z" fill="#3A3A47"/>
<path d="M13.2116 20.7241C12.9481 19.6119 9.656 19.0043 8.92921 20.2475C8.573 20.8568 8.71398 25.0455 8.74819 25.9984C8.78241 26.9513 12.0246 27.2099 12.2515 26.3515C12.4776 25.4932 13.3266 21.2086 13.2116 20.7241ZM11.9774 26.1842C11.7806 26.9296 8.9648 26.705 8.93503 25.8773C8.9056 25.0496 8.81526 20.9255 9.12494 20.3965C9.75626 19.317 12.7627 19.8389 12.9916 20.8047C13.0915 21.2259 12.1741 25.4388 11.9774 26.1842Z" fill="#3A3A47"/>
<path d="M8.5435 8.39846C8.5435 8.49269 8.50928 9.16189 8.50928 9.24899C8.50928 9.33608 8.73067 9.42215 8.73067 9.42215H9.77056C9.77056 9.42215 10.0932 9.32656 10.0932 9.2398C10.0932 9.15271 10.1518 8.45867 10.1518 8.36443C10.1518 8.2702 9.50982 8.32429 9.50982 8.32429L8.98833 8.33041C8.98833 8.33041 8.5435 8.30422 8.5435 8.39846ZM8.74881 8.53454C8.74881 8.46684 9.30246 8.48759 9.30246 8.48759C9.30246 8.48759 9.9112 8.44575 9.9112 8.51379C9.9112 8.58149 9.85953 9.08398 9.85953 9.14658C9.85953 9.20918 9.62753 9.2779 9.62753 9.2779H8.91716C8.91716 9.2779 8.70535 9.20918 8.70535 9.14658C8.70535 9.08398 8.74881 8.60224 8.74881 8.53454Z" fill="#3A3A47"/>
<path d="M21.9556 10.2805L21.8403 8.98975H23.22L23.3391 10.2805C23.3391 10.2805 23.2043 10.2805 23.1358 10.2805C23.1358 9.79469 22.999 9.72665 22.6226 9.72665C22.2462 9.72665 22.1527 9.82871 22.1527 10.2805C22.0751 10.2805 21.9556 10.2805 21.9556 10.2805Z" fill="#3A3A47"/>
<path d="M11.4534 16.8838C11.7019 16.8838 11.9034 16.6835 11.9034 16.4364C11.9034 16.1893 11.7019 15.989 11.4534 15.989C11.2049 15.989 11.0034 16.1893 11.0034 16.4364C11.0034 16.6835 11.2049 16.8838 11.4534 16.8838Z" fill="#3A3A47"/>
<path d="M11.2502 17.4386C11.3592 17.4386 11.4476 17.3507 11.4476 17.2423C11.4476 17.1339 11.3592 17.046 11.2502 17.046C11.1411 17.046 11.0527 17.1339 11.0527 17.2423C11.0527 17.3507 11.1411 17.4386 11.2502 17.4386Z" fill="#3A3A47"/>
<path d="M11.1671 14.8292C11.075 14.7833 10.0827 14.7152 9.57799 15.6729C9.12597 16.531 9.67688 17.3539 9.76003 17.4124C9.84318 17.471 9.94584 17.2328 9.8774 17.1648C9.80896 17.0967 9.39834 16.4503 9.77475 15.7699C10.1364 15.116 10.9724 14.9874 11.075 15.0214C11.1777 15.0555 11.2591 14.8751 11.1671 14.8292Z" fill="#3A3A47"/>
<path d="M10.5232 21.5052C10.7391 21.4912 10.9386 21.4783 11.1087 21.4953C11.2788 21.5123 11.5138 21.5698 11.6466 21.6174C11.7794 21.6647 12.0042 21.482 11.7421 21.3534C11.6155 21.2912 11.3776 21.2146 11.1734 21.1942C10.9691 21.1738 10.6656 21.1976 10.5164 21.2313C10.3056 21.2782 10.3155 21.5184 10.5232 21.5052Z" fill="#3A3A47"/>
<path d="M10.4197 22.5319C10.6356 22.5179 10.8351 22.505 11.0052 22.522C11.1752 22.539 11.4103 22.5965 11.5431 22.6442C11.6758 22.6915 11.9007 22.5088 11.6385 22.3802C11.5119 22.3179 11.2741 22.2413 11.0698 22.2209C10.8656 22.2005 10.562 22.2243 10.4129 22.258C10.2021 22.305 10.212 22.5452 10.4197 22.5319Z" fill="#3A3A47"/>
<path d="M10.4706 23.5441C10.6868 23.5468 11.08 23.5186 11.3082 23.6438C11.4318 23.7115 11.6248 23.5182 11.3695 23.3764C11.0482 23.1981 10.6369 23.2484 10.4853 23.2702C10.2711 23.3008 10.2622 23.5414 10.4706 23.5441Z" fill="#3A3A47"/>
<path d="M10.3671 24.5708C10.5833 24.5735 10.9765 24.5453 11.2047 24.6705C11.3283 24.7382 11.5212 24.545 11.266 24.4031C10.9447 24.2248 10.5334 24.2752 10.3818 24.2969C10.1676 24.3279 10.1587 24.5681 10.3671 24.5708Z" fill="#3A3A47"/>
<path d="M10.2628 25.5975C10.4791 25.6003 10.8722 25.572 11.1005 25.6972C11.224 25.7649 11.417 25.5717 11.1617 25.4298C10.8404 25.2516 10.4291 25.3019 10.2775 25.3237C10.0636 25.3546 10.0548 25.5948 10.2628 25.5975Z" fill="#3A3A47"/>
<path d="M21.1104 14.822C21.2025 14.7761 22.1948 14.708 22.6995 15.6657C23.1516 16.5238 22.6006 17.3467 22.5175 17.4052C22.4343 17.4638 22.3317 17.2256 22.4001 17.1576C22.4686 17.0895 22.8792 16.4431 22.5028 15.7627C22.1411 15.1088 21.3051 14.9802 21.2025 15.0142C21.0998 15.0483 21.0184 14.8679 21.1104 14.822Z" fill="#3A3A47"/>
<path d="M20.2179 26.3791C20.4445 27.2375 23.687 26.9789 23.7212 26.026C23.7554 25.0731 23.8964 20.8844 23.5402 20.275C22.8134 19.0319 19.5213 19.6395 19.2578 20.7517C19.1425 21.2361 19.9911 25.5204 20.2179 26.3791ZM19.4775 20.8323C19.7064 19.8664 22.7128 19.3446 23.3441 20.4241C23.6535 20.9534 23.5635 25.0775 23.534 25.9049C23.5046 26.7326 20.6888 26.9572 20.4917 26.2118C20.2946 25.466 19.3775 21.2532 19.4775 20.8323Z" fill="#3A3A47"/>
<path d="M21.9451 21.5324C21.7292 21.5184 21.5297 21.5055 21.3596 21.5225C21.1896 21.5395 20.9545 21.597 20.8217 21.6446C20.6889 21.6919 20.4641 21.5092 20.7262 21.3806C20.8528 21.3184 21.0907 21.2418 21.2949 21.2214C21.4992 21.201 21.8027 21.2248 21.9519 21.2585C22.1631 21.3055 22.1528 21.546 21.9451 21.5324Z" fill="#3A3A47"/>
<path d="M22.0491 22.5591C21.8332 22.5452 21.6337 22.5322 21.4636 22.5492C21.2936 22.5663 21.0585 22.6238 20.9257 22.6714C20.7929 22.719 20.5681 22.536 20.8302 22.4074C20.9568 22.3451 21.1947 22.2686 21.3989 22.2482C21.6032 22.2277 21.9067 22.2516 22.0559 22.2852C22.2671 22.3322 22.2568 22.5727 22.0491 22.5591Z" fill="#3A3A47"/>
<path d="M21.9986 23.5713C21.7823 23.574 21.3892 23.5458 21.1609 23.671C21.0374 23.7387 20.8444 23.5454 21.0997 23.4036C21.421 23.2253 21.8323 23.2757 21.9839 23.2974C22.1981 23.3284 22.2066 23.5689 21.9986 23.5713Z" fill="#3A3A47"/>
<path d="M22.1021 24.5984C21.8859 24.6011 21.4927 24.5729 21.2644 24.6981C21.1409 24.7658 20.9479 24.5725 21.2032 24.4307C21.5245 24.2524 21.9358 24.3028 22.0874 24.3245C22.3016 24.3551 22.3102 24.5957 22.1021 24.5984Z" fill="#3A3A47"/>
<path d="M22.2056 25.6251C21.9894 25.6279 21.5962 25.5996 21.368 25.7248C21.2444 25.7925 21.0514 25.5993 21.3067 25.4574C21.628 25.2791 22.0393 25.3295 22.1909 25.3513C22.4051 25.3819 22.414 25.6224 22.2056 25.6251Z" fill="#3A3A47"/>
</svg>
