<svg width="32" height="32" viewBox="0 0 32 32" fill="none" xmlns="http://www.w3.org/2000/svg">
<rect x="0.5" y="0.5" width="31" height="31" rx="15.5" fill="#FFDEBF"/>
<rect x="0.5" y="0.5" width="31" height="31" rx="15.5" stroke="#FFE7D0"/>
<path d="M16.8306 12.088C17.0863 12.2158 17.291 12.2418 17.4957 12.2418C17.9301 12.2418 18.2118 12.063 18.2367 12.0371C18.3905 11.9352 18.4155 11.7554 18.3136 11.6027C18.2118 11.4489 18.032 11.4239 17.8792 11.5008C17.8533 11.5008 17.5217 11.7055 17.1123 11.5008C16.9585 11.4239 16.7548 11.4748 16.6779 11.6546C16.6259 11.8323 16.6769 12.0111 16.8306 12.088Z" fill="#3A3A47"/>
<path d="M14.8361 11.5259C14.4017 11.7306 14.0951 11.5259 14.0691 11.5259C13.9153 11.424 13.7366 11.475 13.6347 11.6278C13.5329 11.7815 13.5838 11.9853 13.7116 12.0622C13.7376 12.0622 14.0182 12.2669 14.4526 12.2669C14.6573 12.2669 14.887 12.2159 15.1177 12.1131C15.2715 12.0362 15.3474 11.8315 15.2715 11.6787C15.1936 11.4999 15.0148 11.449 14.8361 11.5259Z" fill="#3A3A47"/>
<path d="M24.5773 21.8289L23.9641 18.915L23.325 15.9241C23.0434 14.5949 22.0977 13.5214 20.8454 13.035L20.6906 12.1652C20.5119 11.1166 20.409 10.0691 20.435 9.07133C20.4859 7.15395 19.7699 5.79875 18.4667 5.26265C18.3129 5.18575 17.5719 4.82825 15.987 4.82825C14.4022 4.82825 13.6602 5.18575 13.5074 5.26265C12.1783 5.79992 11.4882 7.15405 11.5391 9.07133C11.5651 10.068 11.4882 11.1165 11.2835 12.1652L11.1297 13.034C9.87742 13.5193 8.9307 14.5939 8.65009 15.9231L8.08787 18.6335L7.42277 21.8292C7.26898 22.5192 7.42277 23.2612 7.83222 23.8484C8.24167 24.4366 8.88079 24.8201 9.5958 24.9219L10.2349 24.9988L9.87742 26.7884C9.85146 26.8902 9.87742 26.9671 9.95432 27.044C10.0052 27.1209 10.1081 27.1718 10.21 27.1718H21.816C21.9178 27.1718 21.9947 27.1209 22.0716 27.044C22.1226 26.9671 22.1485 26.8653 22.1485 26.7884L21.791 24.9988L22.4302 24.9219C23.1462 24.8201 23.7853 24.4366 24.1937 23.8484C24.5772 23.2602 24.73 22.5192 24.5772 21.8292L24.5773 21.8289ZM20.6147 23.3628C20.5887 23.4397 20.5378 23.4906 20.4869 23.5415C20.4609 23.5925 20.41 23.6184 20.359 23.6434C20.3081 23.6694 20.2822 23.6943 20.2312 23.7203C19.9756 23.8481 19.6181 23.8481 19.2855 23.8481H19.2086H19.1317H18.5945H18.3648L18.3388 23.7972L18.3128 23.7712C18.3128 23.7453 18.2869 23.7453 18.2869 23.7203C18.2609 23.6434 18.21 23.5925 18.1591 23.5415C18.1591 23.5415 18.1591 23.5156 18.1331 23.5156C18.0822 23.4387 18.0053 23.3618 17.9284 23.3109C17.9284 23.3109 17.9024 23.3109 17.9024 23.2849C17.8764 23.2589 17.8515 23.234 17.8255 23.234C17.6468 23.1321 17.4161 23.0802 17.1864 23.0802H17.1355L16.4194 23.1571L15.7314 23.209L15.8083 22.493V22.3392V22.2882C15.8083 22.2373 15.7823 22.2114 15.7823 22.1604V22.1345C15.7563 22.0835 15.7563 22.0326 15.7314 21.9807C15.7314 21.9807 15.7314 21.9547 15.7054 21.9547C15.6794 21.9038 15.6545 21.8778 15.6285 21.8528C15.6285 21.8528 15.6285 21.8269 15.6025 21.8269C15.6025 21.8009 15.6285 21.776 15.6285 21.776C15.6545 21.725 15.6545 21.6991 15.6794 21.6481C15.7054 21.5712 15.7304 21.5203 15.7563 21.4434C15.7823 21.3925 15.7823 21.3415 15.8073 21.3156C15.8332 21.2387 15.8332 21.1618 15.8582 21.1109C15.8582 21.0599 15.8842 21.009 15.8842 20.9571C15.8842 20.8802 15.9101 20.8033 15.9101 20.7274V20.5996V20.3439V20.2161C15.9101 20.0883 15.8842 19.9864 15.8592 19.8586V19.8326C15.8332 19.7308 15.8083 19.6029 15.7573 19.5001C15.7314 19.4491 15.7314 19.4232 15.7064 19.3722C15.6804 19.3213 15.6555 19.2444 15.6295 19.1935C16.0639 19.1675 16.6781 19.2194 17.4191 19.4232C18.0073 19.577 18.5955 19.8326 19.1577 20.1641C19.2346 20.2151 19.3115 20.266 19.4133 20.3179C19.4902 20.3689 19.5671 20.4198 19.643 20.4717C19.8727 20.6255 20.0525 20.7783 20.2312 20.9321L20.2572 20.9581C20.3081 21.009 20.3591 21.0859 20.411 21.1368C20.4369 21.1628 20.4369 21.1628 20.4369 21.1878C20.5388 21.3156 20.6417 21.4434 20.6926 21.5712C20.6926 21.5712 20.6926 21.5972 20.7186 21.5972C20.7445 21.6481 20.7695 21.725 20.7955 21.776V21.8019C20.7955 21.8528 20.8214 21.8788 20.8214 21.9297V21.9807C20.8214 22.0066 20.8214 22.0576 20.8474 22.0825V22.1335V22.491C20.8444 22.6977 20.7935 23.0562 20.6147 23.3628ZM11.692 22.3402C11.6151 22.2893 11.5382 22.2124 11.4623 22.1614C11.4363 22.1355 11.4114 22.1105 11.3854 22.0845C11.2316 21.9307 11.1038 21.778 11.0019 21.5992C10.951 21.5223 10.9001 21.4204 10.8481 21.3436C10.7972 21.2417 10.7463 21.1139 10.7203 21.011C10.6694 20.8322 10.6185 20.6535 10.5925 20.4488C10.5665 20.1931 10.5665 19.9375 10.6185 19.6818V19.6559C10.6185 19.6299 10.6185 19.6049 10.6444 19.6049C10.6704 19.4771 10.7213 19.3493 10.7722 19.2474C10.9001 18.9409 11.1048 18.6592 11.3345 18.4545C11.4883 18.3267 11.641 18.1989 11.8198 18.122C12.1264 17.9682 12.4329 17.9172 12.7405 17.9172C13.5335 17.9172 14.3254 18.3516 14.7857 19.0936C14.8367 19.1955 14.8876 19.2724 14.9395 19.3753C14.9905 19.4771 15.0164 19.554 15.0674 19.6569C15.0674 19.6828 15.0933 19.7338 15.0933 19.7587C15.1193 19.8097 15.1443 19.8866 15.1443 19.9635C15.1443 19.9894 15.1702 20.0404 15.1702 20.0653C15.1702 20.1163 15.1962 20.1932 15.1962 20.2441V20.3719V20.5507V20.6785C15.1962 20.7294 15.1962 20.7803 15.1702 20.8572C15.1702 20.9082 15.1702 20.9341 15.1443 20.9851C15.1443 21.036 15.1183 21.0869 15.1183 21.1389C15.1183 21.1898 15.0923 21.2158 15.0923 21.2667C15.0664 21.3176 15.0664 21.3685 15.0414 21.4454C15.0154 21.4714 15.0154 21.5223 14.9905 21.5473C14.9905 21.5473 14.9905 21.5733 14.9645 21.5733H14.8626C14.633 21.5733 14.4282 21.7011 14.3254 21.9058C14.2994 21.9318 14.2994 21.9827 14.2744 22.0077L14.1975 22.4681C14.1206 22.519 14.0697 22.5449 13.9928 22.5699C13.9928 22.5699 13.9669 22.5699 13.9419 22.5959C13.7631 22.6728 13.5844 22.7237 13.3797 22.7497C12.7915 22.8266 12.2292 22.6987 11.7439 22.3662C11.7429 22.3652 11.7179 22.3402 11.692 22.3402ZM16.4215 18.5563C15.9362 18.5054 15.5267 18.5303 15.2451 18.5563C14.7847 17.9172 14.1207 17.5077 13.4046 17.329H13.4556C13.6343 17.329 13.839 17.329 14.0178 17.3799C14.9136 17.5077 15.7574 18.019 16.4215 18.5563ZM11.9226 12.2668C12.1273 11.1673 12.2042 10.0938 12.1782 9.04507C12.1523 7.89564 12.4079 6.38682 13.788 5.82439C13.814 5.82439 13.814 5.79843 13.839 5.79843C13.839 5.79843 14.4781 5.44092 16.012 5.44092C17.5459 5.44092 18.1591 5.79843 18.185 5.79843C18.211 5.79843 18.211 5.82439 18.236 5.82439C19.6161 6.38662 19.8717 7.89557 19.8468 9.0461C19.8208 10.0947 19.9237 11.1682 20.1024 12.2678L20.2043 12.83H20.1533L19.2336 12.6762C19.2845 12.5744 19.3105 12.4715 19.3614 12.3697C19.3614 12.3437 19.3874 12.3187 19.3874 12.2928C19.4133 12.1909 19.4383 12.0881 19.4643 11.9862V11.9602C19.4902 11.8584 19.5152 11.7305 19.5152 11.6277V11.5508C19.5152 11.4489 19.5412 11.3211 19.5412 11.2182V11.0644C19.5412 10.9107 19.4133 10.7579 19.2595 10.7579C17.5469 10.6041 16.5243 9.96495 16.2935 8.94234C16.2675 8.78855 16.1397 8.68669 15.9869 8.68669C15.8331 8.68669 15.7053 8.78855 15.6803 8.94234C15.4506 9.96495 14.4281 10.5781 12.7143 10.7579C12.5355 10.7589 12.4077 10.8867 12.4077 11.0654V11.2192C12.4077 11.3211 12.4077 11.4489 12.4337 11.5518V11.6287C12.4596 11.7305 12.4596 11.8584 12.4846 11.9612V11.9872C12.5106 12.0891 12.5355 12.1919 12.5615 12.2938C12.5615 12.3197 12.5875 12.3447 12.5875 12.3707C12.6134 12.4725 12.6643 12.5754 12.7153 12.6772L11.8465 12.831H11.7955L11.9226 12.2668ZM13.7121 13.0597C13.6352 12.9578 13.5583 12.881 13.5074 12.7781C13.4815 12.7272 13.4305 12.6503 13.4056 12.5993C13.3796 12.5484 13.3546 12.4975 13.3287 12.4455C13.3027 12.3686 13.2777 12.3177 13.2518 12.2408C13.2258 12.1899 13.2008 12.139 13.2008 12.087C13.1749 12.0101 13.1499 11.9332 13.1499 11.8573C13.1499 11.8064 13.1239 11.7804 13.1239 11.7295C13.098 11.6017 13.098 11.4739 13.073 11.346C14.7347 11.1413 15.5786 10.5022 16.013 9.83811C16.4224 10.5032 17.2653 11.1423 18.953 11.346C18.927 11.8573 18.7742 12.3427 18.5186 12.7521C18.4417 12.854 18.3907 12.9568 18.3139 13.0587C17.7516 13.7487 16.9337 14.1582 16.039 14.1582C15.7064 14.1582 15.3739 14.1073 15.0673 14.0044C14.5041 13.8007 14.0437 13.4941 13.7121 13.0597ZM11.5131 13.571C11.6669 13.5201 11.8197 13.4941 11.9735 13.4691L13.073 13.2904C13.1239 13.3413 13.1499 13.4182 13.2008 13.4691C13.8909 14.313 14.8885 14.7983 15.9869 14.7983C16.2685 14.7983 16.5242 14.7724 16.7798 14.7214C17.5468 14.5427 18.2628 14.1083 18.7741 13.4692C18.825 13.4182 18.851 13.3673 18.9019 13.3154V13.2894L20.0014 13.4682C20.1552 13.4941 20.308 13.5451 20.4618 13.57C21.5863 13.9275 22.4561 14.8742 22.6858 16.0496L23.248 18.734L21.1009 19.1943C21.2028 18.5552 21.2288 17.4048 20.5637 16.3561C20.4618 16.2023 20.282 16.1514 20.1293 16.2542C19.9755 16.3561 19.9246 16.5359 20.0274 16.6886C20.8453 17.9929 20.4109 19.5008 20.3849 19.5269L20.2561 20.0901C20.1792 20.0392 20.1283 19.9882 20.0514 19.9363L20.0254 19.9103C19.9485 19.8594 19.8466 19.7825 19.7438 19.7316C19.6419 19.6807 19.5391 19.6038 19.4372 19.5528C19.3603 19.5019 19.2834 19.4759 19.2325 19.425C19.1816 19.399 19.1306 19.3741 19.0537 19.3481C18.9259 19.2972 18.824 19.2203 18.6962 19.1694C18.6193 19.1434 18.5424 19.1184 18.4665 19.0925C18.3647 19.0415 18.2618 19.0156 18.16 18.9646C18.0831 18.9387 18.0062 18.9137 17.9303 18.8877C17.8534 18.8618 17.7515 18.8368 17.6746 18.8108C16.8308 17.967 15.22 16.6887 13.5073 16.7147H13.4563C12.8172 16.7407 12.229 16.9444 11.6668 17.3279C11.7437 17.1231 11.8455 16.9184 11.9484 16.7147C12.0503 16.5609 11.9993 16.3572 11.8465 16.2803C11.6928 16.1785 11.489 16.2294 11.4121 16.3822C11.1056 16.8675 10.9008 17.4557 10.8499 18.0699C10.799 18.1208 10.773 18.1468 10.7221 18.1977C10.6961 18.2237 10.6961 18.2237 10.6712 18.2486C10.6202 18.2996 10.5693 18.3505 10.5433 18.4274C10.5174 18.4534 10.5174 18.4783 10.4924 18.5043C10.4415 18.5552 10.4155 18.6321 10.3905 18.683C10.3646 18.709 10.3646 18.734 10.3396 18.7599C10.3396 18.7599 10.3396 18.7859 10.3136 18.7859L8.77974 18.4793L9.29105 16.0766C9.51873 14.9002 10.3627 13.9545 11.5131 13.571ZM8.34358 23.4905C8.037 23.0561 7.90918 22.4939 8.037 21.9826L8.65015 19.0676L10.0822 19.3493C10.0822 19.4002 10.0562 19.4262 10.0562 19.4771C10.0562 19.5031 10.0562 19.528 10.0303 19.554C10.0043 19.6309 10.0043 19.7327 9.97935 19.8096V19.8356C9.97935 19.9125 9.95338 19.9894 9.95338 20.0653V20.1422V20.3209V20.3978C9.95338 20.4747 9.95338 20.5257 9.97935 20.6026V20.6535C9.97935 20.7304 10.0053 20.8322 10.0303 20.9091C10.0303 20.9351 10.0303 20.9601 10.0562 20.986C10.0562 21.037 10.0822 21.0879 10.0822 21.1139V21.1398L9.80058 21.038C9.62182 20.987 9.44308 21.0639 9.39113 21.2427C9.3402 21.4214 9.41709 21.6002 9.59585 21.6521L10.1841 21.8569L10.5166 22.0106C10.5675 22.0875 10.6185 22.1644 10.6954 22.2403L10.7463 22.2913C10.8232 22.3931 10.9001 22.47 10.976 22.5469C11.0019 22.5729 11.0019 22.5729 11.0269 22.5978C11.1038 22.6747 11.2057 22.7516 11.2826 22.8275L11.3085 22.8535C11.4104 22.9304 11.4873 22.9813 11.5901 23.0582H11.6161C11.718 23.1091 11.8208 23.1601 11.9227 23.212C11.9486 23.212 11.9486 23.212 11.9736 23.238C12.0755 23.2889 12.1783 23.3149 12.2802 23.3398C12.3062 23.3398 12.3062 23.3398 12.3311 23.3658C12.433 23.3918 12.5358 23.4167 12.6637 23.4427H12.7146C12.8165 23.4686 12.9193 23.4686 13.0472 23.4686H13.0731H13.15H13.2519H13.3797H13.4306L14.1467 23.8261C14.2235 23.8771 14.3254 23.8771 14.4283 23.8261C14.5052 23.7752 14.5821 23.7243 14.607 23.6214L14.9645 22.1355C14.9905 22.1355 15.0155 22.1355 15.0414 22.1614H15.0674C15.1443 22.2124 15.1952 22.2633 15.1952 22.3402V22.4171L15.0674 23.5166C15.0674 23.5935 15.0674 23.6704 15.1183 23.7213C15.1183 23.7473 15.1443 23.7722 15.1693 23.7722C15.2462 23.8491 15.323 23.8741 15.4249 23.8741L17.1126 23.7203H17.2664H17.2924H17.3942C17.4961 23.7463 17.5989 23.7972 17.6758 23.8741C17.7018 23.9001 17.7018 23.9001 17.7268 23.925C17.7268 23.925 17.7527 23.951 17.7527 23.976C17.7787 24.0019 17.7787 24.0269 17.8037 24.0528L17.8296 24.1038L18.1113 24.7689C18.1113 24.7948 18.1113 24.8458 18.0853 24.8707L18.0593 24.8967H18.0334H18.0074L15.9872 25.1524L9.67287 24.3085C9.13559 24.2066 8.65015 23.9249 8.34358 23.4905ZM21.4068 26.5583H10.5677L10.8494 25.1013L15.9363 25.7914H15.9872H16.0382L18.0834 25.5097L18.4159 25.4588L21.1002 25.1013L21.4068 26.5583ZM23.6308 23.4905C23.3242 23.9249 22.8378 24.2315 22.3016 24.2834L18.6964 24.7688V24.7428C18.6964 24.6919 18.6964 24.615 18.6704 24.564C18.6704 24.5381 18.6445 24.5131 18.6445 24.4622H19.1048H19.1558H19.3855H19.5902H19.6671H19.8209H19.8978C19.9487 24.4622 19.9996 24.4362 20.0256 24.4362C20.0516 24.4362 20.0765 24.4102 20.1025 24.4102C20.1534 24.4102 20.2043 24.3843 20.2303 24.3843C20.2563 24.3843 20.2812 24.3583 20.3072 24.3583C20.3581 24.3324 20.3841 24.3324 20.435 24.3074C20.461 24.2814 20.486 24.2814 20.5119 24.2565C20.5629 24.2305 20.6138 24.2055 20.6397 24.1546C20.6657 24.1286 20.6907 24.1286 20.6907 24.1037C20.7416 24.0527 20.8185 24.0018 20.8694 23.9249C20.9204 23.874 20.9713 23.7971 20.9973 23.7462C21.2529 23.3627 21.3807 22.8514 21.4067 22.2892V22.0075V21.9566C21.4067 21.9057 21.4067 21.8797 21.3807 21.8288L22.1986 21.5222C22.3524 21.4713 22.4543 21.2665 22.4033 21.1127C22.3524 20.934 22.1477 20.8571 21.9939 20.908L21.201 21.1897C21.175 21.1387 21.15 21.0878 21.1241 21.0618C21.0981 21.0359 21.0981 21.0109 21.0731 20.9849C21.0731 20.959 21.0472 20.959 21.0472 20.934C21.0472 20.908 21.0212 20.908 21.0212 20.8831C20.9953 20.8321 20.9443 20.7812 20.9194 20.7293C20.9194 20.7293 20.9194 20.7033 20.8934 20.7033C20.8934 20.6774 20.8674 20.6774 20.8425 20.6524C20.8165 20.6264 20.8165 20.6015 20.7915 20.5755C20.7656 20.5495 20.7406 20.5246 20.7146 20.4986L20.6887 20.4726L20.8425 19.8075L21.4556 19.6797L23.2711 19.2962L23.8334 21.9036C24.066 22.4928 23.9383 23.0301 23.6308 23.4905Z" fill="#3A3A47"/>
</svg>
