<svg width="25" height="24" viewBox="0 0 25 24" fill="none" xmlns="http://www.w3.org/2000/svg">
<path fill-rule="evenodd" clip-rule="evenodd" d="M17.0995 3.63809L18.6719 3.48495L14.9127 7.86058C14.772 7.78707 14.6106 7.74521 14.4399 7.74521C14.1472 7.74521 13.8844 7.86772 13.6992 8.06271L10.5202 6.2128C10.5523 6.11581 10.5699 6.01168 10.5699 5.90346C10.5699 5.35113 10.1158 4.90296 9.55612 4.90296C8.99646 4.90296 8.54234 5.35113 8.54234 5.90346C8.54234 6.13112 8.61889 6.34042 8.7482 6.50785L5.14523 10.7039C5.00454 10.6304 4.84317 10.5886 4.67246 10.5886C4.1128 10.5886 3.65868 11.0367 3.65868 11.5891C3.65868 12.1414 4.1128 12.5896 4.67246 12.5896C5.23212 12.5896 5.68624 12.1414 5.68624 11.5891C5.68624 11.3614 5.60969 11.1521 5.48038 10.9847L9.08441 6.78964C9.2251 6.86315 9.38647 6.905 9.55718 6.905C9.84994 6.905 10.1127 6.78249 10.2979 6.58751L13.4768 8.43742C13.4448 8.5344 13.4272 8.63854 13.4272 8.74676C13.4272 9.29908 13.8813 9.74726 14.441 9.74726C15.0006 9.74726 15.4548 9.29908 15.4548 8.74676C15.4548 8.51909 15.3782 8.3098 15.2489 8.14237L19.0237 3.7474L19.182 5.32267C19.1934 5.44212 19.302 5.5289 19.422 5.51767C19.543 5.50644 19.631 5.39924 19.6196 5.28081L19.4117 3.20426C19.4086 3.14709 19.3817 3.09094 19.3341 3.05112C19.2844 3.00926 19.2213 2.99395 19.1613 3.00211L17.0562 3.20732C16.9351 3.21855 16.8472 3.32575 16.8586 3.44418C16.871 3.5626 16.9785 3.64932 17.0995 3.63809ZM17.6509 21H20.9985V7.7555C20.9985 7.52068 20.8041 7.32875 20.5661 7.32875H18.0834C17.8454 7.32875 17.651 7.52069 17.651 7.7555L17.6509 21ZM2.99854 21H6.34621V16.2843C6.34621 16.0495 6.15173 15.8576 5.9138 15.8576H3.43105C3.19312 15.8576 2.99864 16.0495 2.99864 16.2843L2.99854 21ZM7.8822 21H11.2299V10.5988C11.2299 10.364 11.0354 10.1721 10.7975 10.1721H8.31472C8.07679 10.1721 7.88231 10.364 7.88231 10.5988L7.8822 21ZM12.7659 21H16.1135V13.4421C16.1135 13.2073 15.9191 13.0153 15.6811 13.0153H13.1984C12.9605 13.0153 12.766 13.2073 12.766 13.4421L12.7659 21Z" fill="#9A9AE8"/>
</svg>
