<svg width="49" height="48" viewBox="0 0 49 48" fill="none" xmlns="http://www.w3.org/2000/svg">
<path d="M28.7854 17.1673C28.1338 15.385 26.4219 14.1705 24.499 14.1705C22.5761 14.1705 20.8642 15.385 20.2139 17.1673C19.4462 17.2747 18.8525 17.935 18.8525 18.7323C18.8525 19.5284 19.445 20.1887 20.2139 20.2961C20.8631 22.0783 22.5763 23.2941 24.499 23.2941C26.422 23.2941 28.1352 22.0783 28.7867 20.2961C29.5544 20.1887 30.1468 19.5284 30.1468 18.7323C30.1456 17.935 29.5531 17.2734 28.7854 17.1673ZM28.567 19.3223C28.5374 19.3223 28.5077 19.3198 28.4806 19.3173C28.2424 19.2877 28.0116 19.442 27.9474 19.6777C27.5228 21.2254 26.1034 22.3067 24.4989 22.3067C22.8932 22.3067 21.475 21.2254 21.053 19.6777C20.9938 19.4617 20.7963 19.3149 20.5766 19.3149C20.5581 19.3149 20.5396 19.3161 20.5211 19.3173C20.1582 19.3581 19.8398 19.0865 19.8398 18.7323C19.8398 18.3818 20.1557 18.0967 20.5063 18.1448C20.7556 18.1818 20.9876 18.0263 21.0518 17.7856C21.3888 16.5526 22.3601 15.6269 23.5524 15.2962C23.2574 15.6183 23.1179 16.0318 23.2043 16.4391C23.3142 16.9574 23.7634 17.3055 24.3238 17.3055C24.7076 17.3055 25.0668 17.0994 25.2618 16.7686C25.4001 16.5329 25.3211 16.2305 25.0866 16.0923C24.8508 15.954 24.5485 16.033 24.4102 16.2675C24.4028 16.2786 24.3769 16.3181 24.3238 16.3181C24.1881 16.3181 24.1769 16.2614 24.1708 16.2342C24.1486 16.1281 24.2238 15.9219 24.4979 15.7998C24.804 15.685 25.1027 15.5418 25.2705 15.2517C26.5418 15.5356 27.5933 16.4934 27.9488 17.7856C28.0155 18.0263 28.2487 18.1769 28.4968 18.1436C28.519 18.1399 28.5437 18.1386 28.5672 18.1386C28.893 18.1386 29.1584 18.404 29.1584 18.7311C29.1584 19.0581 28.8928 19.3223 28.567 19.3223Z" fill="#3A3A47"/>
<path d="M23.4474 18.3694V18.0436C23.4474 17.7709 23.2264 17.5499 22.9537 17.5499C22.6809 17.5499 22.46 17.7709 22.46 18.0436V18.3694C22.46 18.6422 22.6809 18.8631 22.9537 18.8631C23.2264 18.8631 23.4474 18.641 23.4474 18.3694Z" fill="#3A3A47"/>
<path d="M26.0469 17.5486C25.7742 17.5486 25.5532 17.7695 25.5532 18.0423V18.3681C25.5532 18.6409 25.7742 18.8618 26.0469 18.8618C26.3197 18.8618 26.5406 18.6409 26.5406 18.3681V18.0423C26.5406 17.7695 26.3197 17.5486 26.0469 17.5486Z" fill="#3A3A47"/>
<path d="M25.3368 20.1455C25.1406 20.4183 24.8345 20.5751 24.4988 20.5751C24.1692 20.5751 23.8557 20.4146 23.6608 20.1455C23.5003 19.9246 23.1917 19.8752 22.9708 20.0357C22.7511 20.1961 22.7018 20.5047 22.861 20.7256C23.2411 21.2502 23.8545 21.5624 24.4988 21.5624C25.1456 21.5624 25.759 21.2489 26.1379 20.7244C26.2971 20.5035 26.2477 20.1949 26.0268 20.0357C25.8046 19.8752 25.4973 19.9246 25.3368 20.1455Z" fill="#3A3A47"/>
<path d="M32.024 25.3046C34.3949 25.3046 35.6797 23.647 36.0623 22.2128L38.2148 13.1237C39.1084 13.0065 39.8045 12.2487 39.8045 11.323C39.8045 10.3183 38.9862 9.5 37.9816 9.5H11.0183C10.0136 9.5 9.19531 10.3183 9.19531 11.323C9.19531 12.2474 9.89019 13.0052 10.7838 13.1225L12.9388 22.2252C13.3189 23.6458 14.6025 25.3034 16.9759 25.3034H20.7921V27.1671L13.6569 27.1683C12.6399 27.1683 11.8118 27.9965 11.8118 29.0135V36.6561C11.8118 37.6731 12.6399 38.5 13.6569 38.5H35.3512C36.3694 38.5 37.1964 37.6731 37.1964 36.6561L37.1976 29.0135C37.1976 27.9964 36.3694 27.1683 35.3524 27.1683H28.2185V25.3046L32.024 25.3046ZM10.1828 11.3231C10.1828 10.8627 10.558 10.4875 11.0184 10.4875H37.9804C38.442 10.4875 38.8172 10.8627 38.8172 11.3231C38.8172 11.7835 38.442 12.1587 37.9816 12.1587H11.0183C10.558 12.1599 10.1828 11.7847 10.1828 11.3231ZM13.8954 21.9857L11.8034 13.1472H37.1953L35.1058 21.9721C35.0416 22.2115 34.4097 24.3172 32.0251 24.3172H16.9759C14.5889 24.3172 13.9571 22.2115 13.8954 21.9857ZM19.4346 33.6331L19.9036 34.1009C19.9999 34.1972 20.1258 34.2453 20.2517 34.2453C20.3776 34.2453 20.5047 34.1972 20.601 34.0997C20.7935 33.9072 20.7935 33.5949 20.5998 33.4011L20.1332 32.9358C21.1922 32.0225 22.5351 31.4362 24.0123 31.3276V31.9892C24.0123 32.2619 24.2332 32.4829 24.506 32.4829C24.7788 32.4829 24.9997 32.2619 24.9997 31.9892V31.3276C26.4771 31.4362 27.82 32.0225 28.8776 32.9358L28.411 33.4024C28.2185 33.5949 28.2185 33.9084 28.411 34.1009C28.5073 34.1972 28.6332 34.2453 28.7603 34.2453C28.8862 34.2453 29.0133 34.1972 29.1096 34.1009L29.5762 33.6344C30.4895 34.6921 31.0758 36.0362 31.1844 37.5122H26.8496C26.82 36.8926 26.5472 36.299 26.077 35.8756C25.6104 35.4547 25.0106 35.2363 24.3811 35.2746C23.9232 35.2992 23.4937 35.4547 23.1309 35.7176L21.946 34.65C21.7436 34.4673 21.4313 34.4822 21.2487 34.687C21.066 34.8895 21.082 35.2017 21.2857 35.3844L22.4718 36.4532C22.2854 36.7766 22.1793 37.1407 22.162 37.5135H17.826C17.9334 36.0348 18.5209 34.6907 19.4342 33.6331L19.4346 33.6331ZM23.4954 36.7089C23.7373 36.4386 24.0706 36.2794 24.4334 36.2608C24.7938 36.2485 25.1456 36.3658 25.4159 36.6089C25.6763 36.8434 25.8294 37.1705 25.8578 37.5124H23.1548C23.1794 37.2174 23.2918 36.9323 23.4954 36.7089ZM36.2105 29.0135V36.6561C36.2105 37.1288 35.8254 37.5127 35.3527 37.5127H32.1722C31.9155 33.5015 28.5806 30.3146 24.5062 30.3146C20.4309 30.3146 17.0959 33.5015 16.839 37.5127H13.6585C13.1858 37.5127 12.8007 37.1288 12.8007 36.6561V29.0135C12.8007 28.5408 13.1858 28.1557 13.6585 28.1557H35.3527C35.8254 28.157 36.2105 28.5408 36.2105 29.0135ZM27.2301 27.1696H21.7797V25.3059H27.2314L27.2301 27.1696Z" fill="#3A3A47"/>
</svg>
