<svg width="49" height="48" viewBox="0 0 49 48" fill="none" xmlns="http://www.w3.org/2000/svg">
<path d="M36.375 9H12.625C10.875 9 9.5 10.375 9.5 12.125V35.875C9.5 37.625 10.875 39 12.625 39H36.375C38.125 39 39.5 37.625 39.5 35.875V12.125C39.5 10.375 38.125 9 36.375 9ZM25.625 10.25C25.375 10.625 25 10.9375 24.5 10.9375C24 10.9375 23.5625 10.625 23.375 10.25H25.625ZM22.0625 10.25C22.3125 11.375 23.3125 12.1875 24.5 12.1875H24.5625L25.875 14.8125C26 15.125 26.375 15.25 26.6875 15.125C27 15 27.125 14.625 27 14.3125L25.8125 11.875C26.375 11.4375 26.8125 10.9375 26.9375 10.25H32.8125C32.6875 12.125 32 13.8125 30.875 15.1875L29.9375 14.25C29.6875 14 29.3125 14 29.0625 14.25C28.8125 14.5 28.8125 14.875 29.0625 15.125L30 16.0625C28.6875 17.25 27 18 25.125 18.125V16.75C25.125 16.375 24.875 16.125 24.5 16.125C24.125 16.125 23.875 16.375 23.875 16.75V18.125C22 18 20.3125 17.1875 18.9375 16L19.875 15.0625C20.125 14.8125 20.125 14.4375 19.875 14.1875C19.625 13.9375 19.25 13.9375 19 14.1875L18.0625 15.125C17 13.8125 16.3125 12.125 16.1875 10.25H22.0625ZM38.25 35.875C38.25 36.9375 37.4375 37.75 36.375 37.75H25.125V25.875C25.125 25.5 24.875 25.25 24.5 25.25C24.125 25.25 23.875 25.5 23.875 25.875V37.75H12.625C11.5625 37.75 10.75 36.9375 10.75 35.875V12.125C10.75 11.0625 11.5625 10.25 12.625 10.25H14.9375C15.1875 15.3125 19.375 19.375 24.5 19.375C27.1875 19.375 29.5625 18.25 31.3125 16.5C32.875 14.875 33.875 12.6875 34 10.25H36.375C37.4375 10.25 38.25 11.0625 38.25 12.125V35.875Z" fill="#3A3A47"/>
</svg>
