<svg width="49" height="48" viewBox="0 0 49 48" fill="none" xmlns="http://www.w3.org/2000/svg">
<path d="M42.9165 23.7502L42.358 21.0075C42.3534 20.9828 42.338 20.9643 42.3287 20.9411C42.3226 20.9242 42.321 20.9072 42.3118 20.8918L37.9572 13.1881C37.1844 11.4573 35.6032 10.2587 33.729 9.98103C31.3812 9.63241 27.875 9.21899 24.4982 9.21899C21.1215 9.21899 17.6135 9.63396 15.2674 9.98103C13.3932 10.2587 11.8136 11.4573 11.0562 13.1557L6.68465 20.8918C6.67231 20.9134 6.66922 20.9381 6.66151 20.9612C6.65534 20.9766 6.64454 20.9905 6.64146 21.0075L6.08303 23.7502C5.89638 24.6665 6.02595 25.629 6.44708 26.462C7.1613 27.875 8.58665 28.7512 10.1693 28.7512H12.8395V36.5951C12.8395 36.8126 13.0169 36.99 13.2344 36.99H14.5487V37.9727C14.5487 38.7008 15.141 39.2916 15.8676 39.2916H17.856C18.5841 39.2916 19.1749 38.6992 19.1749 37.9727V36.99H29.8234V37.9727C29.8234 38.7008 30.4157 39.2916 31.1423 39.2916H33.1291C33.8572 39.2916 34.448 38.6992 34.448 37.9727V36.99H35.7622C35.9797 36.99 36.1571 36.8126 36.1571 36.5951L36.1587 28.7528H38.8304C40.4131 28.7528 41.8384 27.8751 42.5527 26.4636C42.9738 25.6291 43.1031 24.6665 42.9165 23.7502ZM11.7608 13.5104C12.4226 12.0264 13.777 11.0006 15.3828 10.7615C17.7044 10.4175 21.1689 10.0072 24.4979 10.0072C27.8268 10.0072 31.2929 10.4175 33.613 10.7615C35.2188 10.9991 36.5716 12.0264 37.2519 13.5428L41.4015 20.8856L40.3495 21.2975C38.6804 21.95 36.8185 22.0179 35.108 21.4903L30.7625 20.1498C26.6654 18.8849 22.3337 18.8849 18.2366 20.1498L13.8911 21.4903C12.1804 22.0194 10.3185 21.95 8.64963 21.299L7.59604 20.8871L11.7608 13.5104ZM18.3845 37.9741C18.3845 38.2656 18.1469 38.5032 17.8554 38.5032H15.867C15.5754 38.5032 15.3379 38.2656 15.3379 37.9741V36.9915H18.3845V37.9741ZM33.6608 37.9741C33.6608 38.2656 33.4232 38.5032 33.1317 38.5032H31.1449C30.8533 38.5032 30.6158 38.2656 30.6158 37.9741V36.9915H33.6624L33.6608 37.9741ZM35.3684 36.2017H13.6303V28.7526H35.37L35.3684 36.2017ZM41.8472 26.1072C41.2687 27.2518 40.1118 27.9629 38.8299 27.9629H10.1688C8.88539 27.9629 7.72999 27.2518 7.15154 26.1072C6.81063 25.4316 6.70419 24.651 6.8569 23.9075L7.32123 21.6245L8.36246 22.0317C10.1966 22.749 12.2436 22.8231 14.1241 22.2431L18.4695 20.9026C22.4139 19.6855 26.5851 19.6855 30.5294 20.9026L34.8749 22.2431C36.7568 22.8231 38.8023 22.749 40.6365 22.0317L41.6777 21.6245L42.142 23.9075C42.2932 24.6495 42.1881 25.4316 41.8472 26.1072Z" fill="#3A3A47"/>
<path d="M13.0536 19.8426C13.2541 19.9306 13.4855 19.8395 13.5734 19.6405L14.9232 16.5755C15.4338 15.309 16.6463 14.4899 18.0115 14.4899H30.9847C32.3514 14.4899 33.5639 15.309 34.0791 16.5878L35.4273 19.6514C35.4921 19.7995 35.6371 19.8874 35.7883 19.8874C35.8408 19.8874 35.8947 19.8766 35.9472 19.8534C36.1462 19.7655 36.2372 19.5326 36.1493 19.3336L34.8057 16.2808C34.1748 14.7135 32.6739 13.7001 30.9847 13.7001H18.0115C16.3208 13.7001 14.8214 14.7135 14.1951 16.2685L12.85 19.3212C12.7636 19.5218 12.8531 19.7547 13.0536 19.8426Z" fill="#3A3A47"/>
<path d="M15.745 34.895H25.9631C26.1806 34.895 26.358 34.7176 26.358 34.5001L26.3595 30.454C26.3595 30.2365 26.1821 30.0591 25.9646 30.0591H15.745C15.5275 30.0591 15.3501 30.2365 15.3501 30.454V34.4986C15.3501 34.7176 15.5275 34.895 15.745 34.895ZM16.1399 30.8489H25.5682V34.1037L16.1399 34.1053V30.8489Z" fill="#3A3A47"/>
<path d="M28.806 31.7915H32.9217C33.1392 31.7915 33.3166 31.6141 33.3166 31.3966C33.3166 31.1791 33.1392 31.0017 32.9217 31.0017H28.806C28.5885 31.0017 28.4111 31.1791 28.4111 31.3966C28.4111 31.6141 28.5885 31.7915 28.806 31.7915Z" fill="#3A3A47"/>
<path d="M28.806 33.9544H32.9217C33.1392 33.9544 33.3166 33.777 33.3166 33.5595C33.3166 33.3419 33.1392 33.1646 32.9217 33.1646H28.806C28.5885 33.1646 28.4111 33.3419 28.4111 33.5595C28.4111 33.777 28.5885 33.9544 28.806 33.9544Z" fill="#3A3A47"/>
</svg>
