<svg width="49" height="48" viewBox="0 0 49 48" fill="none" xmlns="http://www.w3.org/2000/svg">
<path d="M25.6666 36.1812C25.6666 39.0656 30.0324 39.0666 30.0324 36.1812C30.0324 33.2964 25.6666 33.2964 25.6666 36.1812ZM26.7365 36.1812C26.7365 34.7104 28.9625 34.71 28.9625 36.1812C28.9625 37.6521 26.7365 37.6521 26.7365 36.1812ZM35.6195 36.1812C35.6195 33.2964 31.2538 33.2964 31.2538 36.1812C31.2538 39.0655 35.6195 39.0666 35.6195 36.1812ZM34.5496 36.1812C34.5496 37.6521 32.3237 37.6521 32.3237 36.1812C32.3237 34.7105 34.5496 34.71 34.5496 36.1812ZM23.7074 33.235H13.9166C13.6211 33.235 13.3816 33.4744 13.3816 33.7699V38.5926C13.3816 38.888 13.6211 39.1275 13.9166 39.1275H23.7074C24.0028 39.1275 24.2423 38.888 24.2423 38.5926V33.7699C24.2423 33.4744 24.0028 33.235 23.7074 33.235ZM23.1724 38.0576H14.4515V34.3048H23.1724V38.0576ZM39.6891 17.9974H36.132C36.6952 17.4768 37.1602 16.862 37.5094 16.1734L38.1792 16.2891C41.5316 16.8675 42.3952 11.7945 39.0547 11.2178L38.6069 11.1405C38.6072 9.01136 37.0727 7.1448 34.9257 6.77465L30.7933 6.06144C28.6449 5.69004 26.5726 6.93555 25.8611 8.94016L25.4137 8.86292C22.0671 8.28514 21.1927 13.3568 24.5383 13.9342L25.208 14.0498C25.2762 14.5821 25.4093 15.0996 25.606 15.5976H25.1869C23.8444 15.5976 22.7474 16.6662 22.7001 17.9974H9.31203C6.52211 17.9974 6.12526 22.0502 8.84981 22.5971V22.9585C8.84981 25.6236 11.018 27.7918 13.6831 27.7918H17.3253V29.8482H13.0223C11.6437 29.8482 10.458 30.8315 10.2032 32.1864L8.89989 39.1155C8.56764 40.8827 9.92407 42.5143 11.719 42.5143H37.2821C39.0803 42.5143 40.4329 40.8796 40.1013 39.1155L38.798 32.1864C38.5431 30.8315 37.3575 29.8482 35.9788 29.8482H31.6758V27.7918H35.318C37.9831 27.7918 40.1513 25.6236 40.1513 22.9585V22.5965C42.8803 22.0433 42.4721 17.9974 39.6891 17.9974ZM38.3613 15.2348L37.9226 15.1591C38.0914 14.6179 38.1007 14.4653 38.4907 12.2061L38.8727 12.2721C40.8188 12.608 40.3226 15.5738 38.3613 15.2348ZM30.6112 7.11571L31.0976 7.19965C30.7758 7.74893 30.6462 8.39288 30.7388 9.03782C31.0006 10.8636 33.4859 11.3039 34.0478 9.7899C34.2319 9.29365 34.1189 8.74193 33.7454 8.31395C33.2808 7.78134 32.4741 8.48429 32.9394 9.01745C33.0866 9.18618 33.0779 9.3282 33.0448 9.41767C32.8852 9.84759 31.9064 9.64273 31.7978 8.88587C31.7123 8.29018 31.9066 7.84344 32.2741 7.4027L34.7438 7.82896C36.5873 8.14677 37.8085 9.90825 37.4891 11.7192L37.0718 14.1362C36.789 15.7683 35.7931 17.1892 34.3143 17.9974H29.2545C29.2073 16.6689 28.1145 15.6021 26.7756 15.5978C26.4622 14.9564 26.2795 14.2716 26.2347 13.5568C26.2067 13.1339 26.2298 12.7037 26.3037 12.2778L26.7215 9.85757C27.0209 8.06589 28.7508 6.79437 30.6112 7.11571ZM25.2317 9.91719L25.6141 9.98322C25.2182 12.2768 25.1808 12.4001 25.1589 12.9557L24.7202 12.88C22.7646 12.5424 23.278 9.57965 25.2317 9.91719ZM25.1869 16.6675H26.7676C28.6432 16.6675 28.6433 19.506 26.7676 19.506H25.1869C23.3116 19.506 23.311 16.6675 25.1869 16.6675ZM37.7465 32.3842L39.0498 39.3133C39.2582 40.4213 38.4077 41.4444 37.2821 41.4444H11.719C10.5916 41.4444 9.74332 40.4195 9.95137 39.3133L11.2547 32.3842C11.4144 31.5347 12.1578 30.918 13.0223 30.918C13.5189 30.918 35.5247 30.918 35.9788 30.918C36.8433 30.918 37.5867 31.5347 37.7465 32.3842ZM30.6059 29.8482H18.3952V27.7918H30.6059V29.8482ZM35.318 26.7219C34.9063 26.7219 14.2048 26.7219 13.6831 26.7219C11.6079 26.7219 9.91968 25.0337 9.91968 22.9585V22.6429H39.0815V22.9585C39.0815 25.0337 37.3932 26.7219 35.318 26.7219ZM39.6164 21.5729C39.1616 21.5729 10.4919 21.573 9.31203 21.573C7.65079 21.573 7.65958 19.0673 9.31203 19.0673H22.8994C23.2808 19.9536 24.1624 20.5759 25.1869 20.5759H26.7676C27.7921 20.5759 28.6737 19.9536 29.0551 19.0673C29.5418 19.0673 39.1894 19.0673 39.6891 19.0673C41.326 19.0673 41.3969 21.5729 39.6164 21.5729ZM30.4605 15.1863C30.9837 15.655 31.53 15.7492 32.1801 15.4832C32.8338 15.2149 33.2404 16.2051 32.5855 16.4732C31.5574 16.8943 30.5754 16.7257 29.7466 15.9831C29.2202 15.5116 29.9332 14.714 30.4605 15.1863ZM29.1339 11.2959L29.2398 10.6822C29.3602 9.98551 30.4146 10.167 30.2941 10.8642L30.1882 11.4779C30.068 12.1744 29.0134 11.9933 29.1339 11.2959ZM33.6799 12.0807L33.7858 11.4671C33.9062 10.7692 34.9602 10.9527 34.8401 11.6489L34.7342 12.2626C34.6139 12.9599 33.5598 12.7773 33.6799 12.0807ZM28.898 12.5566L29.4429 12.6506C30.1348 12.77 29.9642 13.8266 29.2609 13.7049L28.7161 13.6108C28.0196 13.4906 28.2006 12.4359 28.898 12.5566ZM33.9889 13.4354L34.5337 13.5294C35.1756 13.6402 35.0928 14.5916 34.4433 14.5916C34.3719 14.5916 34.3594 14.5851 33.8068 14.4896C33.1095 14.3693 33.2921 13.3153 33.9889 13.4354Z" fill="#3A3A47"/>
</svg>
